<svg xmlns="http://www.w3.org/2000/svg" xmlns:s="https://github.com/nturley/netlistsvg" xmlns:xlink="http://www.w3.org/1999/xlink" width="616" height="1115"><style>svg{stroke:#000;fill:none}text{fill:#000;stroke:none;font-size:10px;font-weight:700;font-family:&quot;Courier New&quot;,monospace}line{stroke-linecap:round}.nodelabel{text-anchor:middle}.inputPortLabel{text-anchor:end}.splitjoinBody{fill:#000}</style><g id="cell_$abc$173$auto$blifparse.cc:396:parse_blif$175" transform="translate(182,338.5)" s:height="20" s:type="not" s:width="30"><s:alias val="$_NOT_"/><s:alias val="$not"/><s:alias val="$logic_not"/><path d="M0,0 L0,20 L20,10 Z" class="cell_$abc$173$auto$blifparse.cc:396:parse_blif$175"/><circle cx="24" cy="10" r="3" class="cell_$abc$173$auto$blifparse.cc:396:parse_blif$175"/></g><g id="cell_$abc$173$auto$blifparse.cc:396:parse_blif$176" transform="translate(182,12)" s:height="20" s:type="not" s:width="30"><s:alias val="$_NOT_"/><s:alias val="$not"/><s:alias val="$logic_not"/><path d="M0,0 L0,20 L20,10 Z" class="cell_$abc$173$auto$blifparse.cc:396:parse_blif$176"/><circle cx="24" cy="10" r="3" class="cell_$abc$173$auto$blifparse.cc:396:parse_blif$176"/></g><g id="cell_$abc$173$auto$blifparse.cc:396:parse_blif$177" transform="translate(182.66666666666666,278.5)" s:height="25" s:type="and" s:width="30"><s:alias val="$and"/><s:alias val="$logic_and"/><s:alias val="$_AND_"/><s:alias val="$reduce_and"/><path d="M0,0 L0,25 L15,25 A15 12.5 0 0 0 15,0 Z" class="cell_$abc$173$auto$blifparse.cc:396:parse_blif$177"/></g><g id="cell_$abc$173$auto$blifparse.cc:396:parse_blif$178" transform="translate(333.3333333333333,12)" s:height="40" s:type="mux" s:width="20"><s:alias val="$pmux"/><s:alias val="$mux"/><s:alias val="$_MUX_"/><path d="M0,0 L20,10 L20,30 L0,40 Z" class="cell_$abc$173$auto$blifparse.cc:396:parse_blif$178"/><text x="5" y="32" class="nodelabel cell_$abc$173$auto$blifparse.cc:396:parse_blif$178">1</text><text x="5" y="13" class="nodelabel cell_$abc$173$auto$blifparse.cc:396:parse_blif$178">0</text></g><g id="cell_$abc$173$auto$blifparse.cc:396:parse_blif$179" transform="translate(180,567)" s:height="25" s:type="reduce_nor" s:width="33"><s:alias val="$nor"/><s:alias val="$reduce_nor"/><s:alias val="$_NOR_"/><s:alias val="$_ORNOT_"/><path d="M0,0 A30 25 0 0 1 0,25 A30 25 0 0 0 30,12.5 A30 25 0 0 0 0,0" class="cell_$abc$173$auto$blifparse.cc:396:parse_blif$179"/><circle cx="33" cy="12.5" r="3" class="cell_$abc$173$auto$blifparse.cc:396:parse_blif$179"/></g><g id="cell_$abc$173$auto$blifparse.cc:396:parse_blif$180" transform="translate(332,83)" s:height="25" s:type="andnot" s:width="30"><s:alias val="$_ANDNOT_"/><path d="M0,0 L0,25 L15,25 A15 12.5 0 0 0 15,0 Z" class="cell_$abc$173$auto$blifparse.cc:396:parse_blif$180"/><circle cx="-3" cy="20" r="3"/></g><g id="cell_$abc$173$auto$blifparse.cc:396:parse_blif$181" transform="translate(422,65.5)" s:height="40" s:type="mux" s:width="20"><s:alias val="$pmux"/><s:alias val="$mux"/><s:alias val="$_MUX_"/><path d="M0,0 L20,10 L20,30 L0,40 Z" class="cell_$abc$173$auto$blifparse.cc:396:parse_blif$181"/><text x="5" y="32" class="nodelabel cell_$abc$173$auto$blifparse.cc:396:parse_blif$181">1</text><text x="5" y="13" class="nodelabel cell_$abc$173$auto$blifparse.cc:396:parse_blif$181">0</text></g><g id="cell_$abc$173$auto$blifparse.cc:396:parse_blif$182" transform="translate(182.66666666666666,140.5)" s:height="25" s:type="or" s:width="30"><s:alias val="$or"/><s:alias val="$logic_or"/><s:alias val="$_OR_"/><s:alias val="$reduce_or"/><s:alias val="$reduce_bool"/><path d="M0,0 A30 25 0 0 1 0,25 A30 25 0 0 0 30,12.5 A30 25 0 0 0 0,0" class="cell_$abc$173$auto$blifparse.cc:396:parse_blif$182"/></g><g id="cell_$abc$173$auto$blifparse.cc:396:parse_blif$183" transform="translate(333.3333333333333,143)" s:height="40" s:type="mux" s:width="20"><s:alias val="$pmux"/><s:alias val="$mux"/><s:alias val="$_MUX_"/><path d="M0,0 L20,10 L20,30 L0,40 Z" class="cell_$abc$173$auto$blifparse.cc:396:parse_blif$183"/><text x="5" y="32" class="nodelabel cell_$abc$173$auto$blifparse.cc:396:parse_blif$183">1</text><text x="5" y="13" class="nodelabel cell_$abc$173$auto$blifparse.cc:396:parse_blif$183">0</text></g><g id="cell_$abc$173$auto$blifparse.cc:396:parse_blif$184" transform="translate(182.66666666666666,221.5)" s:height="25" s:type="ornot" s:width="30"><s:alias val="$_ORNOT_"/><path d="M0,0 A30 25 0 0 1 0,25 A30 25 0 0 0 30,12.5 A30 25 0 0 0 0,0" class="cell_$abc$173$auto$blifparse.cc:396:parse_blif$184"/><circle cx="-1" cy="20" r="3"/></g><g id="cell_$abc$173$auto$blifparse.cc:396:parse_blif$185" transform="translate(332,214)" s:height="25" s:type="andnot" s:width="30"><s:alias val="$_ANDNOT_"/><path d="M0,0 L0,25 L15,25 A15 12.5 0 0 0 15,0 Z" class="cell_$abc$173$auto$blifparse.cc:396:parse_blif$185"/><circle cx="-3" cy="20" r="3"/></g><g id="cell_$abc$173$auto$blifparse.cc:396:parse_blif$186" transform="translate(422,196.5)" s:height="40" s:type="mux" s:width="20"><s:alias val="$pmux"/><s:alias val="$mux"/><s:alias val="$_MUX_"/><path d="M0,0 L20,10 L20,30 L0,40 Z" class="cell_$abc$173$auto$blifparse.cc:396:parse_blif$186"/><text x="5" y="32" class="nodelabel cell_$abc$173$auto$blifparse.cc:396:parse_blif$186">1</text><text x="5" y="13" class="nodelabel cell_$abc$173$auto$blifparse.cc:396:parse_blif$186">0</text></g><g id="cell_$abc$173$auto$blifparse.cc:396:parse_blif$187" transform="translate(182.66666666666666,439.5)" s:height="25" s:type="ornot" s:width="30"><s:alias val="$_ORNOT_"/><path d="M0,0 A30 25 0 0 1 0,25 A30 25 0 0 0 30,12.5 A30 25 0 0 0 0,0" class="cell_$abc$173$auto$blifparse.cc:396:parse_blif$187"/><circle cx="-1" cy="20" r="3"/></g><g id="cell_$abc$173$auto$blifparse.cc:396:parse_blif$188" transform="translate(333.3333333333333,422)" s:height="40" s:type="mux" s:width="20"><s:alias val="$pmux"/><s:alias val="$mux"/><s:alias val="$_MUX_"/><path d="M0,0 L20,10 L20,30 L0,40 Z" class="cell_$abc$173$auto$blifparse.cc:396:parse_blif$188"/><text x="5" y="32" class="nodelabel cell_$abc$173$auto$blifparse.cc:396:parse_blif$188">1</text><text x="5" y="13" class="nodelabel cell_$abc$173$auto$blifparse.cc:396:parse_blif$188">0</text></g><g id="cell_$abc$173$auto$blifparse.cc:396:parse_blif$189" transform="translate(332,482)" s:height="25" s:type="andnot" s:width="30"><s:alias val="$_ANDNOT_"/><path d="M0,0 L0,25 L15,25 A15 12.5 0 0 0 15,0 Z" class="cell_$abc$173$auto$blifparse.cc:396:parse_blif$189"/><circle cx="-3" cy="20" r="3"/></g><g id="cell_$abc$173$auto$blifparse.cc:396:parse_blif$190" transform="translate(422,464.5)" s:height="40" s:type="mux" s:width="20"><s:alias val="$pmux"/><s:alias val="$mux"/><s:alias val="$_MUX_"/><path d="M0,0 L20,10 L20,30 L0,40 Z" class="cell_$abc$173$auto$blifparse.cc:396:parse_blif$190"/><text x="5" y="32" class="nodelabel cell_$abc$173$auto$blifparse.cc:396:parse_blif$190">1</text><text x="5" y="13" class="nodelabel cell_$abc$173$auto$blifparse.cc:396:parse_blif$190">0</text></g><g id="cell_$abc$173$auto$blifparse.cc:396:parse_blif$191" transform="translate(184,809.5)" s:height="25" s:type="andnot" s:width="30"><s:alias val="$_ANDNOT_"/><path d="M0,0 L0,25 L15,25 A15 12.5 0 0 0 15,0 Z" class="cell_$abc$173$auto$blifparse.cc:396:parse_blif$191"/><circle cx="-3" cy="20" r="3"/></g><g id="cell_$abc$173$auto$blifparse.cc:396:parse_blif$192" transform="translate(178,379.5)" s:height="25" s:type="reduce_nxor" s:width="33"><s:alias val="$xnor"/><s:alias val="$reduce_xnor"/><s:alias val="$_XNOR_"/><path d="M3,0 A30 25 0 0 1 3,25 A30 25 0 0 0 33,12.5 A30 25 0 0 0 3,0" class="cell_$abc$173$auto$blifparse.cc:396:parse_blif$192"/><path d="M0,0 A30 25 0 0 1 0,25" class="cell_$abc$173$auto$blifparse.cc:396:parse_blif$192"/><circle cx="36" cy="12.5" r="3" class="cell_$abc$173$auto$blifparse.cc:396:parse_blif$192"/></g><g id="cell_$abc$173$auto$blifparse.cc:396:parse_blif$193" transform="translate(333.3333333333333,542)" s:height="40" s:type="mux" s:width="20"><s:alias val="$pmux"/><s:alias val="$mux"/><s:alias val="$_MUX_"/><path d="M0,0 L20,10 L20,30 L0,40 Z" class="cell_$abc$173$auto$blifparse.cc:396:parse_blif$193"/><text x="5" y="32" class="nodelabel cell_$abc$173$auto$blifparse.cc:396:parse_blif$193">1</text><text x="5" y="13" class="nodelabel cell_$abc$173$auto$blifparse.cc:396:parse_blif$193">0</text></g><g id="cell_$abc$173$auto$blifparse.cc:396:parse_blif$194" transform="translate(181.66666666666666,734.5)" s:height="25" s:type="reduce_xor" s:width="33"><s:alias val="$xor"/><s:alias val="$reduce_xor"/><s:alias val="$_XOR_"/><path d="M3,0 A30 25 0 0 1 3,25 A30 25 0 0 0 33,12.5 A30 25 0 0 0 3,0" class="cell_$abc$173$auto$blifparse.cc:396:parse_blif$194"/><path d="M0,0 A30 25 0 0 1 0,25" class="cell_$abc$173$auto$blifparse.cc:396:parse_blif$194"/></g><g id="cell_$abc$173$auto$blifparse.cc:396:parse_blif$195" transform="translate(333.3333333333333,622)" s:height="40" s:type="mux" s:width="20"><s:alias val="$pmux"/><s:alias val="$mux"/><s:alias val="$_MUX_"/><path d="M0,0 L20,10 L20,30 L0,40 Z" class="cell_$abc$173$auto$blifparse.cc:396:parse_blif$195"/><text x="5" y="32" class="nodelabel cell_$abc$173$auto$blifparse.cc:396:parse_blif$195">1</text><text x="5" y="13" class="nodelabel cell_$abc$173$auto$blifparse.cc:396:parse_blif$195">0</text></g><g id="cell_$abc$173$auto$blifparse.cc:396:parse_blif$196" transform="translate(422,612)" s:height="40" s:type="mux" s:width="20"><s:alias val="$pmux"/><s:alias val="$mux"/><s:alias val="$_MUX_"/><path d="M0,0 L20,10 L20,30 L0,40 Z" class="cell_$abc$173$auto$blifparse.cc:396:parse_blif$196"/><text x="5" y="32" class="nodelabel cell_$abc$173$auto$blifparse.cc:396:parse_blif$196">1</text><text x="5" y="13" class="nodelabel cell_$abc$173$auto$blifparse.cc:396:parse_blif$196">0</text></g><g id="cell_$abc$173$auto$blifparse.cc:396:parse_blif$198" transform="translate(332,682)" s:height="25" s:type="andnot" s:width="30"><s:alias val="$_ANDNOT_"/><path d="M0,0 L0,25 L15,25 A15 12.5 0 0 0 15,0 Z" class="cell_$abc$173$auto$blifparse.cc:396:parse_blif$198"/><circle cx="-3" cy="20" r="3"/></g><g id="cell_$abc$173$auto$blifparse.cc:396:parse_blif$200" transform="translate(332,802)" s:height="25" s:type="andnot" s:width="30"><s:alias val="$_ANDNOT_"/><path d="M0,0 L0,25 L15,25 A15 12.5 0 0 0 15,0 Z" class="cell_$abc$173$auto$blifparse.cc:396:parse_blif$200"/><circle cx="-3" cy="20" r="3"/></g><g id="cell_$abc$173$auto$blifparse.cc:396:parse_blif$201" transform="translate(422,784.5)" s:height="40" s:type="mux" s:width="20"><s:alias val="$pmux"/><s:alias val="$mux"/><s:alias val="$_MUX_"/><path d="M0,0 L20,10 L20,30 L0,40 Z" class="cell_$abc$173$auto$blifparse.cc:396:parse_blif$201"/><text x="5" y="32" class="nodelabel cell_$abc$173$auto$blifparse.cc:396:parse_blif$201">1</text><text x="5" y="13" class="nodelabel cell_$abc$173$auto$blifparse.cc:396:parse_blif$201">0</text></g><g id="cell_$abc$173$auto$blifparse.cc:396:parse_blif$202" transform="translate(332,742)" s:height="25" s:type="andnot" s:width="30"><s:alias val="$_ANDNOT_"/><path d="M0,0 L0,25 L15,25 A15 12.5 0 0 0 15,0 Z" class="cell_$abc$173$auto$blifparse.cc:396:parse_blif$202"/><circle cx="-3" cy="20" r="3"/></g><g id="cell_$abc$173$auto$blifparse.cc:396:parse_blif$203" transform="translate(333.3333333333333,862)" s:height="40" s:type="mux" s:width="20"><s:alias val="$pmux"/><s:alias val="$mux"/><s:alias val="$_MUX_"/><path d="M0,0 L20,10 L20,30 L0,40 Z" class="cell_$abc$173$auto$blifparse.cc:396:parse_blif$203"/><text x="5" y="32" class="nodelabel cell_$abc$173$auto$blifparse.cc:396:parse_blif$203">1</text><text x="5" y="13" class="nodelabel cell_$abc$173$auto$blifparse.cc:396:parse_blif$203">0</text></g><g id="cell_$abc$173$auto$blifparse.cc:396:parse_blif$204" transform="translate(422,852)" s:height="40" s:type="mux" s:width="20"><s:alias val="$pmux"/><s:alias val="$mux"/><s:alias val="$_MUX_"/><path d="M0,0 L20,10 L20,30 L0,40 Z" class="cell_$abc$173$auto$blifparse.cc:396:parse_blif$204"/><text x="5" y="32" class="nodelabel cell_$abc$173$auto$blifparse.cc:396:parse_blif$204">1</text><text x="5" y="13" class="nodelabel cell_$abc$173$auto$blifparse.cc:396:parse_blif$204">0</text></g><g id="cell_$abc$173$auto$blifparse.cc:396:parse_blif$205" transform="translate(333.3333333333333,922)" s:height="40" s:type="mux" s:width="20"><s:alias val="$pmux"/><s:alias val="$mux"/><s:alias val="$_MUX_"/><path d="M0,0 L20,10 L20,30 L0,40 Z" class="cell_$abc$173$auto$blifparse.cc:396:parse_blif$205"/><text x="5" y="32" class="nodelabel cell_$abc$173$auto$blifparse.cc:396:parse_blif$205">1</text><text x="5" y="13" class="nodelabel cell_$abc$173$auto$blifparse.cc:396:parse_blif$205">0</text></g><g id="cell_$abc$173$auto$blifparse.cc:396:parse_blif$206" transform="translate(333.3333333333333,982)" s:height="40" s:type="mux" s:width="20"><s:alias val="$pmux"/><s:alias val="$mux"/><s:alias val="$_MUX_"/><path d="M0,0 L20,10 L20,30 L0,40 Z" class="cell_$abc$173$auto$blifparse.cc:396:parse_blif$206"/><text x="5" y="32" class="nodelabel cell_$abc$173$auto$blifparse.cc:396:parse_blif$206">1</text><text x="5" y="13" class="nodelabel cell_$abc$173$auto$blifparse.cc:396:parse_blif$206">0</text></g><g id="cell_$abc$173$auto$blifparse.cc:396:parse_blif$207" transform="translate(422,1053)" s:height="40" s:type="mux" s:width="20"><s:alias val="$pmux"/><s:alias val="$mux"/><s:alias val="$_MUX_"/><path d="M0,0 L20,10 L20,30 L0,40 Z" class="cell_$abc$173$auto$blifparse.cc:396:parse_blif$207"/><text x="5" y="32" class="nodelabel cell_$abc$173$auto$blifparse.cc:396:parse_blif$207">1</text><text x="5" y="13" class="nodelabel cell_$abc$173$auto$blifparse.cc:396:parse_blif$207">0</text></g><g id="cell_bin" transform="translate(12,439.5)" s:height="20" s:type="inputExt" s:width="30"><text x="15" y="-4" class="nodelabel cell_bin" s:attribute="ref">bin</text><s:alias val="$_inputExt_"/><path d="M0,0 L0,20 L15,20 L30,10 L15,0 Z" class="cell_bin"/></g><g id="cell_hex" transform="translate(574,772)" s:height="20" s:type="outputExt" s:width="30"><text x="15" y="-4" class="nodelabel cell_hex" s:attribute="ref">hex</text><s:alias val="$_outputExt_"/><path d="M30,0 L30,20 L15,20 L0,10 L15,0 Z" class="cell_hex"/></g><g id="cell_$join$,6,7,8,9,10,11,12," transform="translate(492,761.5)" s:height="40" s:type="join" s:width="4"><rect width="5" height="140" class="splitjoinBody" s:generic="body"/><s:alias val="$_join_"/><g s:pid="in0" s:x="0" s:y="10"><text x="-3" y="-4" class="inputPortLabel" transform="translate(0,10)">0</text></g><g s:pid="in0" s:x="0" s:y="10"><text x="-3" y="-4" class="inputPortLabel" transform="translate(0,30)">1</text></g><g s:pid="in0" s:x="0" s:y="10"><text x="-3" y="-4" class="inputPortLabel" transform="translate(0,50)">2</text></g><g s:pid="in0" s:x="0" s:y="10"><text x="-3" y="-4" class="inputPortLabel" transform="translate(0,70)">3</text></g><g s:pid="in0" s:x="0" s:y="10"><text x="-3" y="-4" class="inputPortLabel" transform="translate(0,90)">4</text></g><g s:pid="in0" s:x="0" s:y="10"><text x="-3" y="-4" class="inputPortLabel" transform="translate(0,110)">5</text></g><g s:pid="in0" s:x="0" s:y="10"><text x="-3" y="-4" class="inputPortLabel" transform="translate(0,130)">6</text></g></g><g id="cell_$split$,2,3,4,5," transform="translate(116,429)" s:height="40" s:type="split" s:width="5"><rect width="5" height="80" class="splitjoinBody" s:generic="body"/><s:alias val="$_split_"/><g s:pid="out0" s:x="4" s:y="10"><text x="5" y="-4" transform="translate(4,10)">2</text></g><g s:pid="out0" s:x="4" s:y="10"><text x="5" y="-4" transform="translate(4,30)">1</text></g><g s:pid="out0" s:x="4" s:y="10"><text x="5" y="-4" transform="translate(4,50)">0</text></g><g s:pid="out0" s:x="4" s:y="10"><text x="5" y="-4" transform="translate(4,70)">3</text></g></g><line x1="121" x2="148" y1="439.5" y2="439.5" class="net_4 width_1" style="stroke-width:1"/><line x1="148" x2="148" y1="439.5" y2="348.5" class="net_4 width_1" style="stroke-width:1"/><circle cx="148" cy="439.5" r="2" style="fill:#000" class="net_4 width_1"/><circle cx="148" cy="348.5" r="2" style="fill:#000" class="net_4 width_1"/><line x1="148" x2="181" y1="348.5" y2="348.5" class="net_4 width_1" style="stroke-width:1"/><line x1="121" x2="148" y1="439.5" y2="439.5" class="net_4 width_1" style="stroke-width:1"/><line x1="148" x2="148" y1="439.5" y2="73" class="net_4 width_1" style="stroke-width:1"/><line x1="148" x2="343.333" y1="73" y2="73" class="net_4 width_1" style="stroke-width:1"/><line x1="343.333" x2="343.333" y1="73" y2="47" class="net_4 width_1" style="stroke-width:1"/><line x1="121" x2="148" y1="439.5" y2="439.5" class="net_4 width_1" style="stroke-width:1"/><line x1="148" x2="148" y1="439.5" y2="204" class="net_4 width_1" style="stroke-width:1"/><line x1="148" x2="343.333" y1="204" y2="204" class="net_4 width_1" style="stroke-width:1"/><circle cx="148" cy="204" r="2" style="fill:#000" class="net_4 width_1"/><line x1="343.333" x2="343.333" y1="204" y2="178" class="net_4 width_1" style="stroke-width:1"/><line x1="121" x2="148" y1="439.5" y2="439.5" class="net_4 width_1" style="stroke-width:1"/><line x1="148" x2="148" y1="439.5" y2="204" class="net_4 width_1" style="stroke-width:1"/><line x1="148" x2="296" y1="204" y2="204" class="net_4 width_1" style="stroke-width:1"/><line x1="296" x2="296" y1="204" y2="219" class="net_4 width_1" style="stroke-width:1"/><circle cx="296" cy="204" r="2" style="fill:#000" class="net_4 width_1"/><line x1="296" x2="332" y1="219" y2="219" class="net_4 width_1" style="stroke-width:1"/><line x1="121" x2="148" y1="439.5" y2="439.5" class="net_4 width_1" style="stroke-width:1"/><line x1="148" x2="148" y1="439.5" y2="267.5" class="net_4 width_1" style="stroke-width:1"/><line x1="148" x2="296" y1="267.5" y2="267.5" class="net_4 width_1" style="stroke-width:1"/><line x1="296" x2="296" y1="267.5" y2="472" class="net_4 width_1" style="stroke-width:1"/><line x1="296" x2="343.333" y1="472" y2="472" class="net_4 width_1" style="stroke-width:1"/><circle cx="148" cy="267.5" r="2" style="fill:#000" class="net_4 width_1"/><line x1="343.333" x2="343.333" y1="472" y2="457" class="net_4 width_1" style="stroke-width:1"/><line x1="121" x2="148" y1="439.5" y2="439.5" class="net_4 width_1" style="stroke-width:1"/><line x1="148" x2="148" y1="439.5" y2="368.5" class="net_4 width_1" style="stroke-width:1"/><line x1="148" x2="276" y1="368.5" y2="368.5" class="net_4 width_1" style="stroke-width:1"/><line x1="276" x2="276" y1="368.5" y2="592" class="net_4 width_1" style="stroke-width:1"/><line x1="276" x2="343.333" y1="592" y2="592" class="net_4 width_1" style="stroke-width:1"/><circle cx="148" cy="368.5" r="2" style="fill:#000" class="net_4 width_1"/><line x1="343.333" x2="343.333" y1="592" y2="577" class="net_4 width_1" style="stroke-width:1"/><line x1="121" x2="148" y1="439.5" y2="439.5" class="net_4 width_1" style="stroke-width:1"/><line x1="148" x2="148" y1="439.5" y2="672" class="net_4 width_1" style="stroke-width:1"/><line x1="148" x2="343.333" y1="672" y2="672" class="net_4 width_1" style="stroke-width:1"/><circle cx="148" cy="672" r="2" style="fill:#000" class="net_4 width_1"/><line x1="343.333" x2="343.333" y1="672" y2="657" class="net_4 width_1" style="stroke-width:1"/><line x1="121" x2="148" y1="439.5" y2="439.5" class="net_4 width_1" style="stroke-width:1"/><line x1="148" x2="148" y1="439.5" y2="787.5" class="net_4 width_1" style="stroke-width:1"/><line x1="148" x2="266" y1="787.5" y2="787.5" class="net_4 width_1" style="stroke-width:1"/><line x1="266" x2="266" y1="787.5" y2="807" class="net_4 width_1" style="stroke-width:1"/><circle cx="148" cy="787.5" r="2" style="fill:#000" class="net_4 width_1"/><circle cx="266" cy="807" r="2" style="fill:#000" class="net_4 width_1"/><line x1="266" x2="332" y1="807" y2="807" class="net_4 width_1" style="stroke-width:1"/><line x1="121" x2="148" y1="439.5" y2="439.5" class="net_4 width_1" style="stroke-width:1"/><line x1="148" x2="148" y1="439.5" y2="787.5" class="net_4 width_1" style="stroke-width:1"/><line x1="148" x2="266" y1="787.5" y2="787.5" class="net_4 width_1" style="stroke-width:1"/><line x1="266" x2="266" y1="787.5" y2="872" class="net_4 width_1" style="stroke-width:1"/><line x1="266" x2="333.333" y1="872" y2="872" class="net_4 width_1" style="stroke-width:1"/><line x1="121" x2="148" y1="439.5" y2="439.5" class="net_4 width_1" style="stroke-width:1"/><line x1="148" x2="148" y1="439.5" y2="1032" class="net_4 width_1" style="stroke-width:1"/><line x1="148" x2="266" y1="1032" y2="1032" class="net_4 width_1" style="stroke-width:1"/><line x1="266" x2="266" y1="1032" y2="972" class="net_4 width_1" style="stroke-width:1"/><line x1="266" x2="343.333" y1="972" y2="972" class="net_4 width_1" style="stroke-width:1"/><circle cx="266" cy="1032" r="2" style="fill:#000" class="net_4 width_1"/><line x1="343.333" x2="343.333" y1="972" y2="957" class="net_4 width_1" style="stroke-width:1"/><line x1="121" x2="148" y1="439.5" y2="439.5" class="net_4 width_1" style="stroke-width:1"/><line x1="148" x2="148" y1="439.5" y2="1032" class="net_4 width_1" style="stroke-width:1"/><line x1="148" x2="343.333" y1="1032" y2="1032" class="net_4 width_1" style="stroke-width:1"/><line x1="343.333" x2="343.333" y1="1032" y2="1017" class="net_4 width_1" style="stroke-width:1"/><line x1="121" x2="158" y1="459.5" y2="459.5" class="net_3 width_1" style="stroke-width:1"/><line x1="158" x2="158" y1="459.5" y2="22" class="net_3 width_1" style="stroke-width:1"/><circle cx="158" cy="459.5" r="2" style="fill:#000" class="net_3 width_1"/><line x1="158" x2="181" y1="22" y2="22" class="net_3 width_1" style="stroke-width:1"/><line x1="121" x2="158" y1="459.5" y2="459.5" class="net_3 width_1" style="stroke-width:1"/><line x1="158" x2="158" y1="459.5" y2="283.5" class="net_3 width_1" style="stroke-width:1"/><circle cx="158" cy="283.5" r="2" style="fill:#000" class="net_3 width_1"/><line x1="158" x2="182.667" y1="283.5" y2="283.5" class="net_3 width_1" style="stroke-width:1"/><line x1="121" x2="158" y1="459.5" y2="459.5" class="net_3 width_1" style="stroke-width:1"/><line x1="158" x2="158" y1="459.5" y2="572" class="net_3 width_1" style="stroke-width:1"/><circle cx="158" cy="572" r="2" style="fill:#000" class="net_3 width_1"/><line x1="158" x2="182" y1="572" y2="572" class="net_3 width_1" style="stroke-width:1"/><line x1="121" x2="158" y1="459.5" y2="459.5" class="net_3 width_1" style="stroke-width:1"/><line x1="158" x2="158" y1="459.5" y2="145.5" class="net_3 width_1" style="stroke-width:1"/><circle cx="158" cy="145.5" r="2" style="fill:#000" class="net_3 width_1"/><line x1="158" x2="184.667" y1="145.5" y2="145.5" class="net_3 width_1" style="stroke-width:1"/><line x1="121" x2="158" y1="459.5" y2="459.5" class="net_3 width_1" style="stroke-width:1"/><line x1="158" x2="158" y1="459.5" y2="226.5" class="net_3 width_1" style="stroke-width:1"/><circle cx="158" cy="226.5" r="2" style="fill:#000" class="net_3 width_1"/><line x1="158" x2="184.667" y1="226.5" y2="226.5" class="net_3 width_1" style="stroke-width:1"/><line x1="121" x2="178.667" y1="459.5" y2="459.5" class="net_3 width_1" style="stroke-width:1"/><line x1="121" x2="158" y1="459.5" y2="459.5" class="net_3 width_1" style="stroke-width:1"/><line x1="158" x2="158" y1="459.5" y2="829.5" class="net_3 width_1" style="stroke-width:1"/><line x1="158" x2="178" y1="829.5" y2="829.5" class="net_3 width_1" style="stroke-width:1"/><line x1="121" x2="158" y1="459.5" y2="459.5" class="net_3 width_1" style="stroke-width:1"/><line x1="158" x2="158" y1="459.5" y2="384.5" class="net_3 width_1" style="stroke-width:1"/><circle cx="158" cy="384.5" r="2" style="fill:#000" class="net_3 width_1"/><line x1="158" x2="180" y1="384.5" y2="384.5" class="net_3 width_1" style="stroke-width:1"/><line x1="121" x2="158" y1="459.5" y2="459.5" class="net_3 width_1" style="stroke-width:1"/><line x1="158" x2="158" y1="459.5" y2="739.5" class="net_3 width_1" style="stroke-width:1"/><circle cx="158" cy="739.5" r="2" style="fill:#000" class="net_3 width_1"/><line x1="158" x2="183.667" y1="739.5" y2="739.5" class="net_3 width_1" style="stroke-width:1"/><line x1="121" x2="158" y1="459.5" y2="459.5" class="net_3 width_1" style="stroke-width:1"/><line x1="158" x2="158" y1="459.5" y2="798.5" class="net_3 width_1" style="stroke-width:1"/><line x1="158" x2="246" y1="798.5" y2="798.5" class="net_3 width_1" style="stroke-width:1"/><line x1="246" x2="246" y1="798.5" y2="892" class="net_3 width_1" style="stroke-width:1"/><circle cx="158" cy="798.5" r="2" style="fill:#000" class="net_3 width_1"/><line x1="246" x2="333.333" y1="892" y2="892" class="net_3 width_1" style="stroke-width:1"/><line x1="121" x2="168" y1="479.5" y2="479.5" class="net_2 width_1" style="stroke-width:1"/><line x1="168" x2="168" y1="479.5" y2="298.5" class="net_2 width_1" style="stroke-width:1"/><circle cx="168" cy="479.5" r="2" style="fill:#000" class="net_2 width_1"/><circle cx="168" cy="298.5" r="2" style="fill:#000" class="net_2 width_1"/><line x1="168" x2="182.667" y1="298.5" y2="298.5" class="net_2 width_1" style="stroke-width:1"/><line x1="121" x2="168" y1="479.5" y2="479.5" class="net_2 width_1" style="stroke-width:1"/><line x1="168" x2="168" y1="479.5" y2="587" class="net_2 width_1" style="stroke-width:1"/><circle cx="168" cy="587" r="2" style="fill:#000" class="net_2 width_1"/><line x1="168" x2="182" y1="587" y2="587" class="net_2 width_1" style="stroke-width:1"/><line x1="121" x2="168" y1="479.5" y2="479.5" class="net_2 width_1" style="stroke-width:1"/><line x1="168" x2="168" y1="479.5" y2="160.5" class="net_2 width_1" style="stroke-width:1"/><line x1="168" x2="184.667" y1="160.5" y2="160.5" class="net_2 width_1" style="stroke-width:1"/><line x1="121" x2="168" y1="479.5" y2="479.5" class="net_2 width_1" style="stroke-width:1"/><line x1="168" x2="168" y1="479.5" y2="241.5" class="net_2 width_1" style="stroke-width:1"/><circle cx="168" cy="241.5" r="2" style="fill:#000" class="net_2 width_1"/><line x1="168" x2="178.667" y1="241.5" y2="241.5" class="net_2 width_1" style="stroke-width:1"/><line x1="121" x2="168" y1="479.5" y2="479.5" class="net_2 width_1" style="stroke-width:1"/><line x1="168" x2="168" y1="479.5" y2="444.5" class="net_2 width_1" style="stroke-width:1"/><circle cx="168" cy="444.5" r="2" style="fill:#000" class="net_2 width_1"/><line x1="168" x2="184.667" y1="444.5" y2="444.5" class="net_2 width_1" style="stroke-width:1"/><line x1="121" x2="168" y1="479.5" y2="479.5" class="net_2 width_1" style="stroke-width:1"/><line x1="168" x2="168" y1="479.5" y2="256.5" class="net_2 width_1" style="stroke-width:1"/><line x1="168" x2="306" y1="256.5" y2="256.5" class="net_2 width_1" style="stroke-width:1"/><line x1="306" x2="306" y1="256.5" y2="432" class="net_2 width_1" style="stroke-width:1"/><circle cx="168" cy="256.5" r="2" style="fill:#000" class="net_2 width_1"/><line x1="306" x2="333.333" y1="432" y2="432" class="net_2 width_1" style="stroke-width:1"/><line x1="121" x2="168" y1="479.5" y2="479.5" class="net_2 width_1" style="stroke-width:1"/><line x1="168" x2="168" y1="479.5" y2="814.5" class="net_2 width_1" style="stroke-width:1"/><circle cx="168" cy="814.5" r="2" style="fill:#000" class="net_2 width_1"/><line x1="168" x2="184" y1="814.5" y2="814.5" class="net_2 width_1" style="stroke-width:1"/><line x1="121" x2="168" y1="479.5" y2="479.5" class="net_2 width_1" style="stroke-width:1"/><line x1="168" x2="168" y1="479.5" y2="399.5" class="net_2 width_1" style="stroke-width:1"/><circle cx="168" cy="399.5" r="2" style="fill:#000" class="net_2 width_1"/><line x1="168" x2="180" y1="399.5" y2="399.5" class="net_2 width_1" style="stroke-width:1"/><line x1="121" x2="168" y1="479.5" y2="479.5" class="net_2 width_1" style="stroke-width:1"/><line x1="168" x2="168" y1="479.5" y2="754.5" class="net_2 width_1" style="stroke-width:1"/><circle cx="168" cy="754.5" r="2" style="fill:#000" class="net_2 width_1"/><line x1="168" x2="183.667" y1="754.5" y2="754.5" class="net_2 width_1" style="stroke-width:1"/><line x1="121" x2="168" y1="479.5" y2="479.5" class="net_2 width_1" style="stroke-width:1"/><line x1="168" x2="168" y1="479.5" y2="912" class="net_2 width_1" style="stroke-width:1"/><line x1="168" x2="343.333" y1="912" y2="912" class="net_2 width_1" style="stroke-width:1"/><line x1="343.333" x2="343.333" y1="912" y2="897" class="net_2 width_1" style="stroke-width:1"/><line x1="209" x2="333.333" y1="22" y2="22" class="net_14 width_1" style="stroke-width:1"/><line x1="212.667" x2="226" y1="291" y2="291" class="net_15 width_1" style="stroke-width:1"/><line x1="226" x2="226" y1="291" y2="42" class="net_15 width_1" style="stroke-width:1"/><circle cx="226" cy="291" r="2" style="fill:#000" class="net_15 width_1"/><line x1="226" x2="333.333" y1="42" y2="42" class="net_15 width_1" style="stroke-width:1"/><line x1="212.667" x2="226" y1="291" y2="291" class="net_15 width_1" style="stroke-width:1"/><line x1="226" x2="226" y1="291" y2="173" class="net_15 width_1" style="stroke-width:1"/><circle cx="226" cy="173" r="2" style="fill:#000" class="net_15 width_1"/><line x1="226" x2="333.333" y1="173" y2="173" class="net_15 width_1" style="stroke-width:1"/><line x1="212.667" x2="226" y1="291" y2="291" class="net_15 width_1" style="stroke-width:1"/><line x1="226" x2="226" y1="291" y2="652" class="net_15 width_1" style="stroke-width:1"/><circle cx="226" cy="652" r="2" style="fill:#000" class="net_15 width_1"/><line x1="226" x2="333.333" y1="652" y2="652" class="net_15 width_1" style="stroke-width:1"/><line x1="212.667" x2="226" y1="291" y2="291" class="net_15 width_1" style="stroke-width:1"/><line x1="226" x2="226" y1="291" y2="992" class="net_15 width_1" style="stroke-width:1"/><line x1="226" x2="333.333" y1="992" y2="992" class="net_15 width_1" style="stroke-width:1"/><line x1="216" x2="236" y1="579.5" y2="579.5" class="net_17 width_1" style="stroke-width:1"/><line x1="236" x2="236" y1="579.5" y2="88" class="net_17 width_1" style="stroke-width:1"/><circle cx="236" cy="579.5" r="2" style="fill:#000" class="net_17 width_1"/><line x1="236" x2="332" y1="88" y2="88" class="net_17 width_1" style="stroke-width:1"/><line x1="216" x2="236" y1="579.5" y2="579.5" class="net_17 width_1" style="stroke-width:1"/><line x1="236" x2="236" y1="579.5" y2="952" class="net_17 width_1" style="stroke-width:1"/><line x1="236" x2="333.333" y1="952" y2="952" class="net_17 width_1" style="stroke-width:1"/><line x1="209" x2="286" y1="348.5" y2="348.5" class="net_13 width_1" style="stroke-width:1"/><line x1="286" x2="286" y1="348.5" y2="103" class="net_13 width_1" style="stroke-width:1"/><circle cx="286" cy="348.5" r="2" style="fill:#000" class="net_13 width_1"/><line x1="286" x2="326" y1="103" y2="103" class="net_13 width_1" style="stroke-width:1"/><line x1="209" x2="286" y1="348.5" y2="348.5" class="net_13 width_1" style="stroke-width:1"/><line x1="286" x2="286" y1="348.5" y2="487" class="net_13 width_1" style="stroke-width:1"/><circle cx="286" cy="487" r="2" style="fill:#000" class="net_13 width_1"/><line x1="286" x2="332" y1="487" y2="487" class="net_13 width_1" style="stroke-width:1"/><line x1="209" x2="286" y1="348.5" y2="348.5" class="net_13 width_1" style="stroke-width:1"/><line x1="286" x2="286" y1="348.5" y2="687" class="net_13 width_1" style="stroke-width:1"/><circle cx="286" cy="687" r="2" style="fill:#000" class="net_13 width_1"/><line x1="286" x2="332" y1="687" y2="687" class="net_13 width_1" style="stroke-width:1"/><line x1="209" x2="286" y1="348.5" y2="348.5" class="net_13 width_1" style="stroke-width:1"/><line x1="286" x2="286" y1="348.5" y2="762" class="net_13 width_1" style="stroke-width:1"/><line x1="286" x2="326" y1="762" y2="762" class="net_13 width_1" style="stroke-width:1"/><line x1="353.333" x2="412" y1="32" y2="32" class="net_16 width_1" style="stroke-width:1"/><line x1="412" x2="412" y1="32" y2="75.5" class="net_16 width_1" style="stroke-width:1"/><line x1="412" x2="422" y1="75.5" y2="75.5" class="net_16 width_1" style="stroke-width:1"/><line x1="362" x2="422" y1="95.5" y2="95.5" class="net_18 width_1" style="stroke-width:1"/><line x1="121" x2="138" y1="499.5" y2="499.5" class="net_5 width_1" style="stroke-width:1"/><line x1="138" x2="138" y1="499.5" y2="62" class="net_5 width_1" style="stroke-width:1"/><line x1="138" x2="402" y1="62" y2="62" class="net_5 width_1" style="stroke-width:1"/><line x1="402" x2="402" y1="62" y2="186.5" class="net_5 width_1" style="stroke-width:1"/><line x1="402" x2="432" y1="186.5" y2="186.5" class="net_5 width_1" style="stroke-width:1"/><circle cx="138" cy="499.5" r="2" style="fill:#000" class="net_5 width_1"/><line x1="432" x2="432" y1="186.5" y2="100.5" class="net_5 width_1" style="stroke-width:1"/><line x1="121" x2="138" y1="499.5" y2="499.5" class="net_5 width_1" style="stroke-width:1"/><line x1="138" x2="138" y1="499.5" y2="193" class="net_5 width_1" style="stroke-width:1"/><line x1="138" x2="382" y1="193" y2="193" class="net_5 width_1" style="stroke-width:1"/><line x1="382" x2="382" y1="193" y2="454.5" class="net_5 width_1" style="stroke-width:1"/><line x1="382" x2="432" y1="454.5" y2="454.5" class="net_5 width_1" style="stroke-width:1"/><circle cx="138" cy="193" r="2" style="fill:#000" class="net_5 width_1"/><line x1="432" x2="432" y1="454.5" y2="231.5" class="net_5 width_1" style="stroke-width:1"/><line x1="121" x2="138" y1="499.5" y2="499.5" class="net_5 width_1" style="stroke-width:1"/><line x1="138" x2="138" y1="499.5" y2="602" class="net_5 width_1" style="stroke-width:1"/><line x1="138" x2="432" y1="602" y2="602" class="net_5 width_1" style="stroke-width:1"/><circle cx="138" cy="602" r="2" style="fill:#000" class="net_5 width_1"/><line x1="432" x2="432" y1="602" y2="499.5" class="net_5 width_1" style="stroke-width:1"/><line x1="121" x2="138" y1="499.5" y2="499.5" class="net_5 width_1" style="stroke-width:1"/><line x1="138" x2="138" y1="499.5" y2="1043" class="net_5 width_1" style="stroke-width:1"/><line x1="138" x2="382" y1="1043" y2="1043" class="net_5 width_1" style="stroke-width:1"/><line x1="382" x2="382" y1="1043" y2="774.5" class="net_5 width_1" style="stroke-width:1"/><line x1="382" x2="432" y1="774.5" y2="774.5" class="net_5 width_1" style="stroke-width:1"/><circle cx="382" cy="1043" r="2" style="fill:#000" class="net_5 width_1"/><line x1="432" x2="432" y1="774.5" y2="647" class="net_5 width_1" style="stroke-width:1"/><line x1="121" x2="138" y1="499.5" y2="499.5" class="net_5 width_1" style="stroke-width:1"/><line x1="138" x2="138" y1="499.5" y2="1043" class="net_5 width_1" style="stroke-width:1"/><line x1="138" x2="382" y1="1043" y2="1043" class="net_5 width_1" style="stroke-width:1"/><line x1="382" x2="382" y1="1043" y2="842" class="net_5 width_1" style="stroke-width:1"/><line x1="382" x2="432" y1="842" y2="842" class="net_5 width_1" style="stroke-width:1"/><circle cx="382" cy="842" r="2" style="fill:#000" class="net_5 width_1"/><line x1="432" x2="432" y1="842" y2="819.5" class="net_5 width_1" style="stroke-width:1"/><line x1="121" x2="138" y1="499.5" y2="499.5" class="net_5 width_1" style="stroke-width:1"/><line x1="138" x2="138" y1="499.5" y2="1043" class="net_5 width_1" style="stroke-width:1"/><line x1="138" x2="432" y1="1043" y2="1043" class="net_5 width_1" style="stroke-width:1"/><line x1="432" x2="432" y1="1043" y2="887" class="net_5 width_1" style="stroke-width:1"/><line x1="121" x2="138" y1="499.5" y2="499.5" class="net_5 width_1" style="stroke-width:1"/><line x1="138" x2="138" y1="499.5" y2="1043" class="net_5 width_1" style="stroke-width:1"/><line x1="138" x2="382" y1="1043" y2="1043" class="net_5 width_1" style="stroke-width:1"/><line x1="382" x2="382" y1="1043" y2="1103" class="net_5 width_1" style="stroke-width:1"/><line x1="382" x2="432" y1="1103" y2="1103" class="net_5 width_1" style="stroke-width:1"/><line x1="432" x2="432" y1="1103" y2="1088" class="net_5 width_1" style="stroke-width:1"/><line x1="212.667" x2="333.333" y1="153" y2="153" class="net_19 width_1" style="stroke-width:1"/><line x1="212.667" x2="326" y1="234" y2="234" class="net_21 width_1" style="stroke-width:1"/><line x1="212.667" x2="316" y1="234" y2="234" class="net_21 width_1" style="stroke-width:1"/><line x1="316" x2="316" y1="234" y2="502" class="net_21 width_1" style="stroke-width:1"/><circle cx="316" cy="234" r="2" style="fill:#000" class="net_21 width_1"/><line x1="316" x2="326" y1="502" y2="502" class="net_21 width_1" style="stroke-width:1"/><line x1="353.333" x2="392" y1="163" y2="163" class="net_20 width_1" style="stroke-width:1"/><line x1="392" x2="392" y1="163" y2="206.5" class="net_20 width_1" style="stroke-width:1"/><line x1="392" x2="422" y1="206.5" y2="206.5" class="net_20 width_1" style="stroke-width:1"/><line x1="362" x2="422" y1="226.5" y2="226.5" class="net_22 width_1" style="stroke-width:1"/><line x1="212.667" x2="333.333" y1="452" y2="452" class="net_23 width_1" style="stroke-width:1"/><line x1="212.667" x2="246" y1="452" y2="452" class="net_23 width_1" style="stroke-width:1"/><line x1="246" x2="246" y1="452" y2="702" class="net_23 width_1" style="stroke-width:1"/><circle cx="246" cy="452" r="2" style="fill:#000" class="net_23 width_1"/><line x1="246" x2="326" y1="702" y2="702" class="net_23 width_1" style="stroke-width:1"/><line x1="353.333" x2="372" y1="442" y2="442" class="net_24 width_1" style="stroke-width:1"/><line x1="372" x2="372" y1="442" y2="474.5" class="net_24 width_1" style="stroke-width:1"/><line x1="372" x2="422" y1="474.5" y2="474.5" class="net_24 width_1" style="stroke-width:1"/><line x1="362" x2="422" y1="494.5" y2="494.5" class="net_25 width_1" style="stroke-width:1"/><line x1="214" x2="256" y1="822" y2="822" class="net_26 width_1" style="stroke-width:1"/><line x1="256" x2="256" y1="822" y2="552" class="net_26 width_1" style="stroke-width:1"/><circle cx="256" cy="822" r="2" style="fill:#000" class="net_26 width_1"/><line x1="256" x2="333.333" y1="552" y2="552" class="net_26 width_1" style="stroke-width:1"/><line x1="214" x2="326" y1="822" y2="822" class="net_26 width_1" style="stroke-width:1"/><line x1="214" x2="256" y1="822" y2="822" class="net_26 width_1" style="stroke-width:1"/><line x1="256" x2="256" y1="822" y2="932" class="net_26 width_1" style="stroke-width:1"/><circle cx="256" cy="932" r="2" style="fill:#000" class="net_26 width_1"/><line x1="256" x2="333.333" y1="932" y2="932" class="net_26 width_1" style="stroke-width:1"/><line x1="214" x2="256" y1="822" y2="822" class="net_26 width_1" style="stroke-width:1"/><line x1="256" x2="256" y1="822" y2="1012" class="net_26 width_1" style="stroke-width:1"/><line x1="256" x2="333.333" y1="1012" y2="1012" class="net_26 width_1" style="stroke-width:1"/><line x1="216" x2="266" y1="392" y2="392" class="net_27 width_1" style="stroke-width:1"/><line x1="266" x2="266" y1="392" y2="572" class="net_27 width_1" style="stroke-width:1"/><line x1="266" x2="333.333" y1="572" y2="572" class="net_27 width_1" style="stroke-width:1"/><line x1="214.667" x2="296" y1="747" y2="747" class="net_29 width_1" style="stroke-width:1"/><line x1="296" x2="296" y1="747" y2="632" class="net_29 width_1" style="stroke-width:1"/><circle cx="296" cy="747" r="2" style="fill:#000" class="net_29 width_1"/><line x1="296" x2="333.333" y1="632" y2="632" class="net_29 width_1" style="stroke-width:1"/><line x1="214.667" x2="332" y1="747" y2="747" class="net_29 width_1" style="stroke-width:1"/><line x1="353.333" x2="372" y1="562" y2="562" class="net_28 width_1" style="stroke-width:1"/><line x1="372" x2="372" y1="562" y2="622" class="net_28 width_1" style="stroke-width:1"/><line x1="372" x2="422" y1="622" y2="622" class="net_28 width_1" style="stroke-width:1"/><line x1="353.333" x2="422" y1="642" y2="642" class="net_30 width_1" style="stroke-width:1"/><line x1="362" x2="392" y1="694.5" y2="694.5" class="net_31 width_1" style="stroke-width:1"/><line x1="392" x2="392" y1="694.5" y2="794.5" class="net_31 width_1" style="stroke-width:1"/><line x1="392" x2="422" y1="794.5" y2="794.5" class="net_31 width_1" style="stroke-width:1"/><line x1="362" x2="422" y1="814.5" y2="814.5" class="net_32 width_1" style="stroke-width:1"/><line x1="362" x2="372" y1="754.5" y2="754.5" class="net_33 width_1" style="stroke-width:1"/><line x1="372" x2="372" y1="754.5" y2="862" class="net_33 width_1" style="stroke-width:1"/><line x1="372" x2="422" y1="862" y2="862" class="net_33 width_1" style="stroke-width:1"/><line x1="353.333" x2="422" y1="882" y2="882" class="net_34 width_1" style="stroke-width:1"/><line x1="353.333" x2="392" y1="942" y2="942" class="net_35 width_1" style="stroke-width:1"/><line x1="392" x2="392" y1="942" y2="1063" class="net_35 width_1" style="stroke-width:1"/><line x1="392" x2="422" y1="1063" y2="1063" class="net_35 width_1" style="stroke-width:1"/><line x1="353.333" x2="372" y1="1002" y2="1002" class="net_36 width_1" style="stroke-width:1"/><line x1="372" x2="372" y1="1002" y2="1083" class="net_36 width_1" style="stroke-width:1"/><line x1="372" x2="422" y1="1083" y2="1083" class="net_36 width_1" style="stroke-width:1"/><line x1="498" x2="574" y1="782" y2="782" class="net_6,7,8,9,10,11,12 width_7" style="stroke-width:2"/><line x1="442" x2="492.5" y1="85.5" y2="85.5" class="net_6 width_1" style="stroke-width:1"/><line x1="492.5" x2="492.5" y1="85.5" y2="771.5" class="net_6 width_1" style="stroke-width:1"/><line x1="442" x2="482" y1="216.5" y2="216.5" class="net_7 width_1" style="stroke-width:1"/><line x1="482" x2="482" y1="216.5" y2="792" class="net_7 width_1" style="stroke-width:1"/><line x1="482" x2="492" y1="792" y2="792" class="net_7 width_1" style="stroke-width:1"/><line x1="442" x2="472" y1="484.5" y2="484.5" class="net_8 width_1" style="stroke-width:1"/><line x1="472" x2="472" y1="484.5" y2="812" class="net_8 width_1" style="stroke-width:1"/><line x1="472" x2="492" y1="812" y2="812" class="net_8 width_1" style="stroke-width:1"/><line x1="442" x2="462" y1="632" y2="632" class="net_9 width_1" style="stroke-width:1"/><line x1="462" x2="462" y1="632" y2="832" class="net_9 width_1" style="stroke-width:1"/><line x1="462" x2="492" y1="832" y2="832" class="net_9 width_1" style="stroke-width:1"/><line x1="442" x2="452" y1="804.5" y2="804.5" class="net_10 width_1" style="stroke-width:1"/><line x1="452" x2="452" y1="804.5" y2="852" class="net_10 width_1" style="stroke-width:1"/><line x1="452" x2="492" y1="852" y2="852" class="net_10 width_1" style="stroke-width:1"/><line x1="442" x2="492" y1="872" y2="872" class="net_11 width_1" style="stroke-width:1"/><line x1="442" x2="492.5" y1="1073" y2="1073" class="net_12 width_1" style="stroke-width:1"/><line x1="492.5" x2="492.5" y1="1073" y2="892.5" class="net_12 width_1" style="stroke-width:1"/><line x1="42" x2="116" y1="449.5" y2="449.5" class="net_2,3,4,5 width_4" style="stroke-width:2"/><rect width="16" height="9" x="536" y="777" class="net_6,7,8,9,10,11,12 width_7 busLabel_7" style="fill:#fff;stroke:none"/><text x="535" y="785" class="net_6,7,8,9,10,11,12 width_7 busLabel_7">/7/</text><rect width="16" height="9" x="78" y="444.5" class="net_2,3,4,5 width_4 busLabel_4" style="fill:#fff;stroke:none"/><text x="77" y="452.5" class="net_2,3,4,5 width_4 busLabel_4">/4/</text></svg>