<svg xmlns="http://www.w3.org/2000/svg" xmlns:xlink="http://www.w3.org/1999/xlink" xmlns:s="https://github.com/nturley/netlistsvg" width="616" height="1115"><style>svg {
  stroke:#000;
  fill:none;
}
text {
  fill:#000;
  stroke:none;
  font-size:10px;
  font-weight: bold;
  font-family: "Courier New", monospace;
}
line {
    stroke-linecap: round;
}
.nodelabel {
  text-anchor: middle;
}
.inputPortLabel {
  text-anchor: end;
}
.splitjoinBody {
  fill:#000;
}</style><g s:type="not" transform="translate(182,338.5)" s:width="30" s:height="20" id="cell_$abc$173$auto$blifparse.cc:396:parse_blif$175"><s:alias val="$_NOT_"/><s:alias val="$not"/><s:alias val="$logic_not"/><path d="M0,0 L0,20 L20,10 Z" class="cell_$abc$173$auto$blifparse.cc:396:parse_blif$175"/><circle cx="24" cy="10" r="3" class="cell_$abc$173$auto$blifparse.cc:396:parse_blif$175"/><g s:x="-1" s:y="10" s:pid="A"/><g s:x="27" s:y="10" s:pid="Y"/></g><g s:type="not" transform="translate(182,12)" s:width="30" s:height="20" id="cell_$abc$173$auto$blifparse.cc:396:parse_blif$176"><s:alias val="$_NOT_"/><s:alias val="$not"/><s:alias val="$logic_not"/><path d="M0,0 L0,20 L20,10 Z" class="cell_$abc$173$auto$blifparse.cc:396:parse_blif$176"/><circle cx="24" cy="10" r="3" class="cell_$abc$173$auto$blifparse.cc:396:parse_blif$176"/><g s:x="-1" s:y="10" s:pid="A"/><g s:x="27" s:y="10" s:pid="Y"/></g><g s:type="and" transform="translate(182.66666666666666,278.5)" s:width="30" s:height="25" id="cell_$abc$173$auto$blifparse.cc:396:parse_blif$177"><s:alias val="$and"/><s:alias val="$logic_and"/><s:alias val="$_AND_"/><s:alias val="$reduce_and"/><path d="M0,0 L0,25 L15,25 A15 12.5 0 0 0 15,0 Z" class="cell_$abc$173$auto$blifparse.cc:396:parse_blif$177"/><g s:x="0" s:y="5" s:pid="A"/><g s:x="0" s:y="20" s:pid="B"/><g s:x="30" s:y="12.5" s:pid="Y"/></g><g s:type="mux" transform="translate(333.3333333333333,12)" s:width="20" s:height="40" id="cell_$abc$173$auto$blifparse.cc:396:parse_blif$178"><s:alias val="$pmux"/><s:alias val="$mux"/><s:alias val="$_MUX_"/><path d="M0,0 L20,10 L20,30 L0,40 Z" class="cell_$abc$173$auto$blifparse.cc:396:parse_blif$178"/><text x="5" y="32" class="nodelabel cell_$abc$173$auto$blifparse.cc:396:parse_blif$178" s:attribute="">1</text><text x="5" y="13" class="nodelabel cell_$abc$173$auto$blifparse.cc:396:parse_blif$178" s:attribute="">0</text><g s:x="0" s:y="10" s:pid="A"/><g s:x="0" s:y="30" s:pid="B"/><g s:x="10" s:y="35" s:pid="S"/><g s:x="20" s:y="20" s:pid="Y"/></g><g s:type="reduce_nor" transform="translate(180,567)" s:width="33" s:height="25" id="cell_$abc$173$auto$blifparse.cc:396:parse_blif$179"><s:alias val="$nor"/><s:alias val="$reduce_nor"/><s:alias val="$_NOR_"/><s:alias val="$_ORNOT_"/><path d="M0,0 A30 25 0 0 1 0,25 A30 25 0 0 0 30,12.5 A30 25 0 0 0 0,0" class="cell_$abc$173$auto$blifparse.cc:396:parse_blif$179"/><circle cx="33" cy="12.5" r="3" class="cell_$abc$173$auto$blifparse.cc:396:parse_blif$179"/><g s:x="2" s:y="5" s:pid="A"/><g s:x="2" s:y="20" s:pid="B"/><g s:x="36" s:y="12.5" s:pid="Y"/></g><g s:type="andnot" transform="translate(332,83)" s:width="30" s:height="25" id="cell_$abc$173$auto$blifparse.cc:396:parse_blif$180"><s:alias val="$_ANDNOT_"/><path d="M0,0 L0,25 L15,25 A15 12.5 0 0 0 15,0 Z" class="cell_$abc$173$auto$blifparse.cc:396:parse_blif$180"/><circle cx="-3" cy="20" r="3"/><g s:x="0" s:y="5" s:pid="A"/><g s:x="-6" s:y="20" s:pid="B"/><g s:x="30" s:y="12.5" s:pid="Y"/></g><g s:type="mux" transform="translate(422,65.5)" s:width="20" s:height="40" id="cell_$abc$173$auto$blifparse.cc:396:parse_blif$181"><s:alias val="$pmux"/><s:alias val="$mux"/><s:alias val="$_MUX_"/><path d="M0,0 L20,10 L20,30 L0,40 Z" class="cell_$abc$173$auto$blifparse.cc:396:parse_blif$181"/><text x="5" y="32" class="nodelabel cell_$abc$173$auto$blifparse.cc:396:parse_blif$181" s:attribute="">1</text><text x="5" y="13" class="nodelabel cell_$abc$173$auto$blifparse.cc:396:parse_blif$181" s:attribute="">0</text><g s:x="0" s:y="10" s:pid="A"/><g s:x="0" s:y="30" s:pid="B"/><g s:x="10" s:y="35" s:pid="S"/><g s:x="20" s:y="20" s:pid="Y"/></g><g s:type="or" transform="translate(182.66666666666666,140.5)" s:width="30" s:height="25" id="cell_$abc$173$auto$blifparse.cc:396:parse_blif$182"><s:alias val="$or"/><s:alias val="$logic_or"/><s:alias val="$_OR_"/><s:alias val="$reduce_or"/><s:alias val="$reduce_bool"/><path d="M0,0 A30 25 0 0 1 0,25 A30 25 0 0 0 30,12.5 A30 25 0 0 0 0,0" class="cell_$abc$173$auto$blifparse.cc:396:parse_blif$182"/><g s:x="2" s:y="5" s:pid="A"/><g s:x="2" s:y="20" s:pid="B"/><g s:x="30" s:y="12.5" s:pid="Y"/></g><g s:type="mux" transform="translate(333.3333333333333,143)" s:width="20" s:height="40" id="cell_$abc$173$auto$blifparse.cc:396:parse_blif$183"><s:alias val="$pmux"/><s:alias val="$mux"/><s:alias val="$_MUX_"/><path d="M0,0 L20,10 L20,30 L0,40 Z" class="cell_$abc$173$auto$blifparse.cc:396:parse_blif$183"/><text x="5" y="32" class="nodelabel cell_$abc$173$auto$blifparse.cc:396:parse_blif$183" s:attribute="">1</text><text x="5" y="13" class="nodelabel cell_$abc$173$auto$blifparse.cc:396:parse_blif$183" s:attribute="">0</text><g s:x="0" s:y="10" s:pid="A"/><g s:x="0" s:y="30" s:pid="B"/><g s:x="10" s:y="35" s:pid="S"/><g s:x="20" s:y="20" s:pid="Y"/></g><g s:type="ornot" transform="translate(182.66666666666666,221.5)" s:width="30" s:height="25" id="cell_$abc$173$auto$blifparse.cc:396:parse_blif$184"><s:alias val="$_ORNOT_"/><path d="M0,0 A30 25 0 0 1 0,25 A30 25 0 0 0 30,12.5 A30 25 0 0 0 0,0" class="cell_$abc$173$auto$blifparse.cc:396:parse_blif$184"/><circle cx="-1" cy="20" r="3"/><g s:x="2" s:y="5" s:pid="A"/><g s:x="-4" s:y="20" s:pid="B"/><g s:x="30" s:y="12.5" s:pid="Y"/></g><g s:type="andnot" transform="translate(332,214)" s:width="30" s:height="25" id="cell_$abc$173$auto$blifparse.cc:396:parse_blif$185"><s:alias val="$_ANDNOT_"/><path d="M0,0 L0,25 L15,25 A15 12.5 0 0 0 15,0 Z" class="cell_$abc$173$auto$blifparse.cc:396:parse_blif$185"/><circle cx="-3" cy="20" r="3"/><g s:x="0" s:y="5" s:pid="A"/><g s:x="-6" s:y="20" s:pid="B"/><g s:x="30" s:y="12.5" s:pid="Y"/></g><g s:type="mux" transform="translate(422,196.5)" s:width="20" s:height="40" id="cell_$abc$173$auto$blifparse.cc:396:parse_blif$186"><s:alias val="$pmux"/><s:alias val="$mux"/><s:alias val="$_MUX_"/><path d="M0,0 L20,10 L20,30 L0,40 Z" class="cell_$abc$173$auto$blifparse.cc:396:parse_blif$186"/><text x="5" y="32" class="nodelabel cell_$abc$173$auto$blifparse.cc:396:parse_blif$186" s:attribute="">1</text><text x="5" y="13" class="nodelabel cell_$abc$173$auto$blifparse.cc:396:parse_blif$186" s:attribute="">0</text><g s:x="0" s:y="10" s:pid="A"/><g s:x="0" s:y="30" s:pid="B"/><g s:x="10" s:y="35" s:pid="S"/><g s:x="20" s:y="20" s:pid="Y"/></g><g s:type="ornot" transform="translate(182.66666666666666,439.5)" s:width="30" s:height="25" id="cell_$abc$173$auto$blifparse.cc:396:parse_blif$187"><s:alias val="$_ORNOT_"/><path d="M0,0 A30 25 0 0 1 0,25 A30 25 0 0 0 30,12.5 A30 25 0 0 0 0,0" class="cell_$abc$173$auto$blifparse.cc:396:parse_blif$187"/><circle cx="-1" cy="20" r="3"/><g s:x="2" s:y="5" s:pid="A"/><g s:x="-4" s:y="20" s:pid="B"/><g s:x="30" s:y="12.5" s:pid="Y"/></g><g s:type="mux" transform="translate(333.3333333333333,422)" s:width="20" s:height="40" id="cell_$abc$173$auto$blifparse.cc:396:parse_blif$188"><s:alias val="$pmux"/><s:alias val="$mux"/><s:alias val="$_MUX_"/><path d="M0,0 L20,10 L20,30 L0,40 Z" class="cell_$abc$173$auto$blifparse.cc:396:parse_blif$188"/><text x="5" y="32" class="nodelabel cell_$abc$173$auto$blifparse.cc:396:parse_blif$188" s:attribute="">1</text><text x="5" y="13" class="nodelabel cell_$abc$173$auto$blifparse.cc:396:parse_blif$188" s:attribute="">0</text><g s:x="0" s:y="10" s:pid="A"/><g s:x="0" s:y="30" s:pid="B"/><g s:x="10" s:y="35" s:pid="S"/><g s:x="20" s:y="20" s:pid="Y"/></g><g s:type="andnot" transform="translate(332,482)" s:width="30" s:height="25" id="cell_$abc$173$auto$blifparse.cc:396:parse_blif$189"><s:alias val="$_ANDNOT_"/><path d="M0,0 L0,25 L15,25 A15 12.5 0 0 0 15,0 Z" class="cell_$abc$173$auto$blifparse.cc:396:parse_blif$189"/><circle cx="-3" cy="20" r="3"/><g s:x="0" s:y="5" s:pid="A"/><g s:x="-6" s:y="20" s:pid="B"/><g s:x="30" s:y="12.5" s:pid="Y"/></g><g s:type="mux" transform="translate(422,464.5)" s:width="20" s:height="40" id="cell_$abc$173$auto$blifparse.cc:396:parse_blif$190"><s:alias val="$pmux"/><s:alias val="$mux"/><s:alias val="$_MUX_"/><path d="M0,0 L20,10 L20,30 L0,40 Z" class="cell_$abc$173$auto$blifparse.cc:396:parse_blif$190"/><text x="5" y="32" class="nodelabel cell_$abc$173$auto$blifparse.cc:396:parse_blif$190" s:attribute="">1</text><text x="5" y="13" class="nodelabel cell_$abc$173$auto$blifparse.cc:396:parse_blif$190" s:attribute="">0</text><g s:x="0" s:y="10" s:pid="A"/><g s:x="0" s:y="30" s:pid="B"/><g s:x="10" s:y="35" s:pid="S"/><g s:x="20" s:y="20" s:pid="Y"/></g><g s:type="andnot" transform="translate(184,809.5)" s:width="30" s:height="25" id="cell_$abc$173$auto$blifparse.cc:396:parse_blif$191"><s:alias val="$_ANDNOT_"/><path d="M0,0 L0,25 L15,25 A15 12.5 0 0 0 15,0 Z" class="cell_$abc$173$auto$blifparse.cc:396:parse_blif$191"/><circle cx="-3" cy="20" r="3"/><g s:x="0" s:y="5" s:pid="A"/><g s:x="-6" s:y="20" s:pid="B"/><g s:x="30" s:y="12.5" s:pid="Y"/></g><g s:type="reduce_nxor" transform="translate(178,379.5)" s:width="33" s:height="25" id="cell_$abc$173$auto$blifparse.cc:396:parse_blif$192"><s:alias val="$xnor"/><s:alias val="$reduce_xnor"/><s:alias val="$_XNOR_"/><path d="M3,0 A30 25 0 0 1 3,25 A30 25 0 0 0 33,12.5 A30 25 0 0 0 3,0" class="cell_$abc$173$auto$blifparse.cc:396:parse_blif$192"/><path d="M0,0 A30 25 0 0 1 0,25" class="cell_$abc$173$auto$blifparse.cc:396:parse_blif$192"/><circle cx="36" cy="12.5" r="3" class="cell_$abc$173$auto$blifparse.cc:396:parse_blif$192"/><g s:x="2" s:y="5" s:pid="A"/><g s:x="2" s:y="20" s:pid="B"/><g s:x="38" s:y="12.5" s:pid="Y"/></g><g s:type="mux" transform="translate(333.3333333333333,542)" s:width="20" s:height="40" id="cell_$abc$173$auto$blifparse.cc:396:parse_blif$193"><s:alias val="$pmux"/><s:alias val="$mux"/><s:alias val="$_MUX_"/><path d="M0,0 L20,10 L20,30 L0,40 Z" class="cell_$abc$173$auto$blifparse.cc:396:parse_blif$193"/><text x="5" y="32" class="nodelabel cell_$abc$173$auto$blifparse.cc:396:parse_blif$193" s:attribute="">1</text><text x="5" y="13" class="nodelabel cell_$abc$173$auto$blifparse.cc:396:parse_blif$193" s:attribute="">0</text><g s:x="0" s:y="10" s:pid="A"/><g s:x="0" s:y="30" s:pid="B"/><g s:x="10" s:y="35" s:pid="S"/><g s:x="20" s:y="20" s:pid="Y"/></g><g s:type="reduce_xor" transform="translate(181.66666666666666,734.5)" s:width="33" s:height="25" id="cell_$abc$173$auto$blifparse.cc:396:parse_blif$194"><s:alias val="$xor"/><s:alias val="$reduce_xor"/><s:alias val="$_XOR_"/><path d="M3,0 A30 25 0 0 1 3,25 A30 25 0 0 0 33,12.5 A30 25 0 0 0 3,0" class="cell_$abc$173$auto$blifparse.cc:396:parse_blif$194"/><path d="M0,0 A30 25 0 0 1 0,25" class="cell_$abc$173$auto$blifparse.cc:396:parse_blif$194"/><g s:x="2" s:y="5" s:pid="A"/><g s:x="2" s:y="20" s:pid="B"/><g s:x="33" s:y="12.5" s:pid="Y"/></g><g s:type="mux" transform="translate(333.3333333333333,622)" s:width="20" s:height="40" id="cell_$abc$173$auto$blifparse.cc:396:parse_blif$195"><s:alias val="$pmux"/><s:alias val="$mux"/><s:alias val="$_MUX_"/><path d="M0,0 L20,10 L20,30 L0,40 Z" class="cell_$abc$173$auto$blifparse.cc:396:parse_blif$195"/><text x="5" y="32" class="nodelabel cell_$abc$173$auto$blifparse.cc:396:parse_blif$195" s:attribute="">1</text><text x="5" y="13" class="nodelabel cell_$abc$173$auto$blifparse.cc:396:parse_blif$195" s:attribute="">0</text><g s:x="0" s:y="10" s:pid="A"/><g s:x="0" s:y="30" s:pid="B"/><g s:x="10" s:y="35" s:pid="S"/><g s:x="20" s:y="20" s:pid="Y"/></g><g s:type="mux" transform="translate(422,612)" s:width="20" s:height="40" id="cell_$abc$173$auto$blifparse.cc:396:parse_blif$196"><s:alias val="$pmux"/><s:alias val="$mux"/><s:alias val="$_MUX_"/><path d="M0,0 L20,10 L20,30 L0,40 Z" class="cell_$abc$173$auto$blifparse.cc:396:parse_blif$196"/><text x="5" y="32" class="nodelabel cell_$abc$173$auto$blifparse.cc:396:parse_blif$196" s:attribute="">1</text><text x="5" y="13" class="nodelabel cell_$abc$173$auto$blifparse.cc:396:parse_blif$196" s:attribute="">0</text><g s:x="0" s:y="10" s:pid="A"/><g s:x="0" s:y="30" s:pid="B"/><g s:x="10" s:y="35" s:pid="S"/><g s:x="20" s:y="20" s:pid="Y"/></g><g s:type="andnot" transform="translate(332,682)" s:width="30" s:height="25" id="cell_$abc$173$auto$blifparse.cc:396:parse_blif$198"><s:alias val="$_ANDNOT_"/><path d="M0,0 L0,25 L15,25 A15 12.5 0 0 0 15,0 Z" class="cell_$abc$173$auto$blifparse.cc:396:parse_blif$198"/><circle cx="-3" cy="20" r="3"/><g s:x="0" s:y="5" s:pid="A"/><g s:x="-6" s:y="20" s:pid="B"/><g s:x="30" s:y="12.5" s:pid="Y"/></g><g s:type="andnot" transform="translate(332,802)" s:width="30" s:height="25" id="cell_$abc$173$auto$blifparse.cc:396:parse_blif$200"><s:alias val="$_ANDNOT_"/><path d="M0,0 L0,25 L15,25 A15 12.5 0 0 0 15,0 Z" class="cell_$abc$173$auto$blifparse.cc:396:parse_blif$200"/><circle cx="-3" cy="20" r="3"/><g s:x="0" s:y="5" s:pid="A"/><g s:x="-6" s:y="20" s:pid="B"/><g s:x="30" s:y="12.5" s:pid="Y"/></g><g s:type="mux" transform="translate(422,784.5)" s:width="20" s:height="40" id="cell_$abc$173$auto$blifparse.cc:396:parse_blif$201"><s:alias val="$pmux"/><s:alias val="$mux"/><s:alias val="$_MUX_"/><path d="M0,0 L20,10 L20,30 L0,40 Z" class="cell_$abc$173$auto$blifparse.cc:396:parse_blif$201"/><text x="5" y="32" class="nodelabel cell_$abc$173$auto$blifparse.cc:396:parse_blif$201" s:attribute="">1</text><text x="5" y="13" class="nodelabel cell_$abc$173$auto$blifparse.cc:396:parse_blif$201" s:attribute="">0</text><g s:x="0" s:y="10" s:pid="A"/><g s:x="0" s:y="30" s:pid="B"/><g s:x="10" s:y="35" s:pid="S"/><g s:x="20" s:y="20" s:pid="Y"/></g><g s:type="andnot" transform="translate(332,742)" s:width="30" s:height="25" id="cell_$abc$173$auto$blifparse.cc:396:parse_blif$202"><s:alias val="$_ANDNOT_"/><path d="M0,0 L0,25 L15,25 A15 12.5 0 0 0 15,0 Z" class="cell_$abc$173$auto$blifparse.cc:396:parse_blif$202"/><circle cx="-3" cy="20" r="3"/><g s:x="0" s:y="5" s:pid="A"/><g s:x="-6" s:y="20" s:pid="B"/><g s:x="30" s:y="12.5" s:pid="Y"/></g><g s:type="mux" transform="translate(333.3333333333333,862)" s:width="20" s:height="40" id="cell_$abc$173$auto$blifparse.cc:396:parse_blif$203"><s:alias val="$pmux"/><s:alias val="$mux"/><s:alias val="$_MUX_"/><path d="M0,0 L20,10 L20,30 L0,40 Z" class="cell_$abc$173$auto$blifparse.cc:396:parse_blif$203"/><text x="5" y="32" class="nodelabel cell_$abc$173$auto$blifparse.cc:396:parse_blif$203" s:attribute="">1</text><text x="5" y="13" class="nodelabel cell_$abc$173$auto$blifparse.cc:396:parse_blif$203" s:attribute="">0</text><g s:x="0" s:y="10" s:pid="A"/><g s:x="0" s:y="30" s:pid="B"/><g s:x="10" s:y="35" s:pid="S"/><g s:x="20" s:y="20" s:pid="Y"/></g><g s:type="mux" transform="translate(422,852)" s:width="20" s:height="40" id="cell_$abc$173$auto$blifparse.cc:396:parse_blif$204"><s:alias val="$pmux"/><s:alias val="$mux"/><s:alias val="$_MUX_"/><path d="M0,0 L20,10 L20,30 L0,40 Z" class="cell_$abc$173$auto$blifparse.cc:396:parse_blif$204"/><text x="5" y="32" class="nodelabel cell_$abc$173$auto$blifparse.cc:396:parse_blif$204" s:attribute="">1</text><text x="5" y="13" class="nodelabel cell_$abc$173$auto$blifparse.cc:396:parse_blif$204" s:attribute="">0</text><g s:x="0" s:y="10" s:pid="A"/><g s:x="0" s:y="30" s:pid="B"/><g s:x="10" s:y="35" s:pid="S"/><g s:x="20" s:y="20" s:pid="Y"/></g><g s:type="mux" transform="translate(333.3333333333333,922)" s:width="20" s:height="40" id="cell_$abc$173$auto$blifparse.cc:396:parse_blif$205"><s:alias val="$pmux"/><s:alias val="$mux"/><s:alias val="$_MUX_"/><path d="M0,0 L20,10 L20,30 L0,40 Z" class="cell_$abc$173$auto$blifparse.cc:396:parse_blif$205"/><text x="5" y="32" class="nodelabel cell_$abc$173$auto$blifparse.cc:396:parse_blif$205" s:attribute="">1</text><text x="5" y="13" class="nodelabel cell_$abc$173$auto$blifparse.cc:396:parse_blif$205" s:attribute="">0</text><g s:x="0" s:y="10" s:pid="A"/><g s:x="0" s:y="30" s:pid="B"/><g s:x="10" s:y="35" s:pid="S"/><g s:x="20" s:y="20" s:pid="Y"/></g><g s:type="mux" transform="translate(333.3333333333333,982)" s:width="20" s:height="40" id="cell_$abc$173$auto$blifparse.cc:396:parse_blif$206"><s:alias val="$pmux"/><s:alias val="$mux"/><s:alias val="$_MUX_"/><path d="M0,0 L20,10 L20,30 L0,40 Z" class="cell_$abc$173$auto$blifparse.cc:396:parse_blif$206"/><text x="5" y="32" class="nodelabel cell_$abc$173$auto$blifparse.cc:396:parse_blif$206" s:attribute="">1</text><text x="5" y="13" class="nodelabel cell_$abc$173$auto$blifparse.cc:396:parse_blif$206" s:attribute="">0</text><g s:x="0" s:y="10" s:pid="A"/><g s:x="0" s:y="30" s:pid="B"/><g s:x="10" s:y="35" s:pid="S"/><g s:x="20" s:y="20" s:pid="Y"/></g><g s:type="mux" transform="translate(422,1053)" s:width="20" s:height="40" id="cell_$abc$173$auto$blifparse.cc:396:parse_blif$207"><s:alias val="$pmux"/><s:alias val="$mux"/><s:alias val="$_MUX_"/><path d="M0,0 L20,10 L20,30 L0,40 Z" class="cell_$abc$173$auto$blifparse.cc:396:parse_blif$207"/><text x="5" y="32" class="nodelabel cell_$abc$173$auto$blifparse.cc:396:parse_blif$207" s:attribute="">1</text><text x="5" y="13" class="nodelabel cell_$abc$173$auto$blifparse.cc:396:parse_blif$207" s:attribute="">0</text><g s:x="0" s:y="10" s:pid="A"/><g s:x="0" s:y="30" s:pid="B"/><g s:x="10" s:y="35" s:pid="S"/><g s:x="20" s:y="20" s:pid="Y"/></g><g s:type="inputExt" transform="translate(12,439.5)" s:width="30" s:height="20" id="cell_bin"><text x="15" y="-4" class="nodelabel cell_bin" s:attribute="ref">bin</text><s:alias val="$_inputExt_"/><path d="M0,0 L0,20 L15,20 L30,10 L15,0 Z" class="cell_bin"/><g s:x="30" s:y="10" s:pid="Y"/></g><g s:type="outputExt" transform="translate(574,772)" s:width="30" s:height="20" id="cell_hex"><text x="15" y="-4" class="nodelabel cell_hex" s:attribute="ref">hex</text><s:alias val="$_outputExt_"/><path d="M30,0 L30,20 L15,20 L0,10 L15,0 Z" class="cell_hex"/><g s:x="0" s:y="10" s:pid="A"/></g><g s:type="join" transform="translate(492,761.5)" s:width="4" s:height="40" id="cell_$join$,6,7,8,9,10,11,12,"><rect width="5" height="140" class="splitjoinBody" s:generic="body"/><s:alias val="$_join_"/><g s:x="5" s:y="20" s:pid="out"/><g transform="translate(0,10)" s:x="0" s:y="10" s:pid="in0"><text x="-3" y="-4" class="inputPortLabel">0</text></g><g transform="translate(0,30)" s:x="0" s:y="10" s:pid="in0"><text x="-3" y="-4" class="inputPortLabel">1</text></g><g transform="translate(0,50)" s:x="0" s:y="10" s:pid="in0"><text x="-3" y="-4" class="inputPortLabel">2</text></g><g transform="translate(0,70)" s:x="0" s:y="10" s:pid="in0"><text x="-3" y="-4" class="inputPortLabel">3</text></g><g transform="translate(0,90)" s:x="0" s:y="10" s:pid="in0"><text x="-3" y="-4" class="inputPortLabel">4</text></g><g transform="translate(0,110)" s:x="0" s:y="10" s:pid="in0"><text x="-3" y="-4" class="inputPortLabel">5</text></g><g transform="translate(0,130)" s:x="0" s:y="10" s:pid="in0"><text x="-3" y="-4" class="inputPortLabel">6</text></g></g><g s:type="split" transform="translate(116,429)" s:width="5" s:height="40" id="cell_$split$,2,3,4,5,"><rect width="5" height="80" class="splitjoinBody" s:generic="body"/><s:alias val="$_split_"/><g s:x="0" s:y="20" s:pid="in"/><g transform="translate(4,10)" s:x="4" s:y="10" s:pid="out0"><text x="5" y="-4">2</text></g><g transform="translate(4,30)" s:x="4" s:y="10" s:pid="out0"><text x="5" y="-4">1</text></g><g transform="translate(4,50)" s:x="4" s:y="10" s:pid="out0"><text x="5" y="-4">0</text></g><g transform="translate(4,70)" s:x="4" s:y="10" s:pid="out0"><text x="5" y="-4">3</text></g></g><line x1="121" x2="148" y1="439.5" y2="439.5" class="net_4 width_1" style="stroke-width: 1"/><line x1="148" x2="148" y1="439.5" y2="348.5" class="net_4 width_1" style="stroke-width: 1"/><circle cx="148" cy="439.5" r="2" style="fill:#000" class="net_4 width_1"/><circle cx="148" cy="348.5" r="2" style="fill:#000" class="net_4 width_1"/><line x1="148" x2="181" y1="348.5" y2="348.5" class="net_4 width_1" style="stroke-width: 1"/><line x1="121" x2="148" y1="439.5" y2="439.5" class="net_4 width_1" style="stroke-width: 1"/><line x1="148" x2="148" y1="439.5" y2="73" class="net_4 width_1" style="stroke-width: 1"/><line x1="148" x2="343.3333333333333" y1="73" y2="73" class="net_4 width_1" style="stroke-width: 1"/><line x1="343.3333333333333" x2="343.3333333333333" y1="73" y2="47" class="net_4 width_1" style="stroke-width: 1"/><line x1="121" x2="148" y1="439.5" y2="439.5" class="net_4 width_1" style="stroke-width: 1"/><line x1="148" x2="148" y1="439.5" y2="204" class="net_4 width_1" style="stroke-width: 1"/><line x1="148" x2="343.3333333333333" y1="204" y2="204" class="net_4 width_1" style="stroke-width: 1"/><circle cx="148" cy="204" r="2" style="fill:#000" class="net_4 width_1"/><line x1="343.3333333333333" x2="343.3333333333333" y1="204" y2="178" class="net_4 width_1" style="stroke-width: 1"/><line x1="121" x2="148" y1="439.5" y2="439.5" class="net_4 width_1" style="stroke-width: 1"/><line x1="148" x2="148" y1="439.5" y2="204" class="net_4 width_1" style="stroke-width: 1"/><line x1="148" x2="296" y1="204" y2="204" class="net_4 width_1" style="stroke-width: 1"/><line x1="296" x2="296" y1="204" y2="219" class="net_4 width_1" style="stroke-width: 1"/><circle cx="296" cy="204" r="2" style="fill:#000" class="net_4 width_1"/><line x1="296" x2="332" y1="219" y2="219" class="net_4 width_1" style="stroke-width: 1"/><line x1="121" x2="148" y1="439.5" y2="439.5" class="net_4 width_1" style="stroke-width: 1"/><line x1="148" x2="148" y1="439.5" y2="267.5" class="net_4 width_1" style="stroke-width: 1"/><line x1="148" x2="296" y1="267.5" y2="267.5" class="net_4 width_1" style="stroke-width: 1"/><line x1="296" x2="296" y1="267.5" y2="472" class="net_4 width_1" style="stroke-width: 1"/><line x1="296" x2="343.3333333333333" y1="472" y2="472" class="net_4 width_1" style="stroke-width: 1"/><circle cx="148" cy="267.5" r="2" style="fill:#000" class="net_4 width_1"/><line x1="343.3333333333333" x2="343.3333333333333" y1="472" y2="457" class="net_4 width_1" style="stroke-width: 1"/><line x1="121" x2="148" y1="439.5" y2="439.5" class="net_4 width_1" style="stroke-width: 1"/><line x1="148" x2="148" y1="439.5" y2="368.5" class="net_4 width_1" style="stroke-width: 1"/><line x1="148" x2="276" y1="368.5" y2="368.5" class="net_4 width_1" style="stroke-width: 1"/><line x1="276" x2="276" y1="368.5" y2="592" class="net_4 width_1" style="stroke-width: 1"/><line x1="276" x2="343.3333333333333" y1="592" y2="592" class="net_4 width_1" style="stroke-width: 1"/><circle cx="148" cy="368.5" r="2" style="fill:#000" class="net_4 width_1"/><line x1="343.3333333333333" x2="343.3333333333333" y1="592" y2="577" class="net_4 width_1" style="stroke-width: 1"/><line x1="121" x2="148" y1="439.5" y2="439.5" class="net_4 width_1" style="stroke-width: 1"/><line x1="148" x2="148" y1="439.5" y2="672" class="net_4 width_1" style="stroke-width: 1"/><line x1="148" x2="343.3333333333333" y1="672" y2="672" class="net_4 width_1" style="stroke-width: 1"/><circle cx="148" cy="672" r="2" style="fill:#000" class="net_4 width_1"/><line x1="343.3333333333333" x2="343.3333333333333" y1="672" y2="657" class="net_4 width_1" style="stroke-width: 1"/><line x1="121" x2="148" y1="439.5" y2="439.5" class="net_4 width_1" style="stroke-width: 1"/><line x1="148" x2="148" y1="439.5" y2="787.5" class="net_4 width_1" style="stroke-width: 1"/><line x1="148" x2="266" y1="787.5" y2="787.5" class="net_4 width_1" style="stroke-width: 1"/><line x1="266" x2="266" y1="787.5" y2="807" class="net_4 width_1" style="stroke-width: 1"/><circle cx="148" cy="787.5" r="2" style="fill:#000" class="net_4 width_1"/><circle cx="266" cy="807" r="2" style="fill:#000" class="net_4 width_1"/><line x1="266" x2="332" y1="807" y2="807" class="net_4 width_1" style="stroke-width: 1"/><line x1="121" x2="148" y1="439.5" y2="439.5" class="net_4 width_1" style="stroke-width: 1"/><line x1="148" x2="148" y1="439.5" y2="787.5" class="net_4 width_1" style="stroke-width: 1"/><line x1="148" x2="266" y1="787.5" y2="787.5" class="net_4 width_1" style="stroke-width: 1"/><line x1="266" x2="266" y1="787.5" y2="872" class="net_4 width_1" style="stroke-width: 1"/><line x1="266" x2="333.3333333333333" y1="872" y2="872" class="net_4 width_1" style="stroke-width: 1"/><line x1="121" x2="148" y1="439.5" y2="439.5" class="net_4 width_1" style="stroke-width: 1"/><line x1="148" x2="148" y1="439.5" y2="1032" class="net_4 width_1" style="stroke-width: 1"/><line x1="148" x2="266" y1="1032" y2="1032" class="net_4 width_1" style="stroke-width: 1"/><line x1="266" x2="266" y1="1032" y2="972" class="net_4 width_1" style="stroke-width: 1"/><line x1="266" x2="343.3333333333333" y1="972" y2="972" class="net_4 width_1" style="stroke-width: 1"/><circle cx="266" cy="1032" r="2" style="fill:#000" class="net_4 width_1"/><line x1="343.3333333333333" x2="343.3333333333333" y1="972" y2="957" class="net_4 width_1" style="stroke-width: 1"/><line x1="121" x2="148" y1="439.5" y2="439.5" class="net_4 width_1" style="stroke-width: 1"/><line x1="148" x2="148" y1="439.5" y2="1032" class="net_4 width_1" style="stroke-width: 1"/><line x1="148" x2="343.3333333333333" y1="1032" y2="1032" class="net_4 width_1" style="stroke-width: 1"/><line x1="343.3333333333333" x2="343.3333333333333" y1="1032" y2="1017" class="net_4 width_1" style="stroke-width: 1"/><line x1="121" x2="158" y1="459.5" y2="459.5" class="net_3 width_1" style="stroke-width: 1"/><line x1="158" x2="158" y1="459.5" y2="22" class="net_3 width_1" style="stroke-width: 1"/><circle cx="158" cy="459.5" r="2" style="fill:#000" class="net_3 width_1"/><line x1="158" x2="181" y1="22" y2="22" class="net_3 width_1" style="stroke-width: 1"/><line x1="121" x2="158" y1="459.5" y2="459.5" class="net_3 width_1" style="stroke-width: 1"/><line x1="158" x2="158" y1="459.5" y2="283.5" class="net_3 width_1" style="stroke-width: 1"/><circle cx="158" cy="283.5" r="2" style="fill:#000" class="net_3 width_1"/><line x1="158" x2="182.66666666666666" y1="283.5" y2="283.5" class="net_3 width_1" style="stroke-width: 1"/><line x1="121" x2="158" y1="459.5" y2="459.5" class="net_3 width_1" style="stroke-width: 1"/><line x1="158" x2="158" y1="459.5" y2="572" class="net_3 width_1" style="stroke-width: 1"/><circle cx="158" cy="572" r="2" style="fill:#000" class="net_3 width_1"/><line x1="158" x2="182" y1="572" y2="572" class="net_3 width_1" style="stroke-width: 1"/><line x1="121" x2="158" y1="459.5" y2="459.5" class="net_3 width_1" style="stroke-width: 1"/><line x1="158" x2="158" y1="459.5" y2="145.5" class="net_3 width_1" style="stroke-width: 1"/><circle cx="158" cy="145.5" r="2" style="fill:#000" class="net_3 width_1"/><line x1="158" x2="184.66666666666666" y1="145.5" y2="145.5" class="net_3 width_1" style="stroke-width: 1"/><line x1="121" x2="158" y1="459.5" y2="459.5" class="net_3 width_1" style="stroke-width: 1"/><line x1="158" x2="158" y1="459.5" y2="226.5" class="net_3 width_1" style="stroke-width: 1"/><circle cx="158" cy="226.5" r="2" style="fill:#000" class="net_3 width_1"/><line x1="158" x2="184.66666666666666" y1="226.5" y2="226.5" class="net_3 width_1" style="stroke-width: 1"/><line x1="121" x2="178.66666666666666" y1="459.5" y2="459.5" class="net_3 width_1" style="stroke-width: 1"/><line x1="121" x2="158" y1="459.5" y2="459.5" class="net_3 width_1" style="stroke-width: 1"/><line x1="158" x2="158" y1="459.5" y2="829.5" class="net_3 width_1" style="stroke-width: 1"/><line x1="158" x2="178" y1="829.5" y2="829.5" class="net_3 width_1" style="stroke-width: 1"/><line x1="121" x2="158" y1="459.5" y2="459.5" class="net_3 width_1" style="stroke-width: 1"/><line x1="158" x2="158" y1="459.5" y2="384.5" class="net_3 width_1" style="stroke-width: 1"/><circle cx="158" cy="384.5" r="2" style="fill:#000" class="net_3 width_1"/><line x1="158" x2="180" y1="384.5" y2="384.5" class="net_3 width_1" style="stroke-width: 1"/><line x1="121" x2="158" y1="459.5" y2="459.5" class="net_3 width_1" style="stroke-width: 1"/><line x1="158" x2="158" y1="459.5" y2="739.5" class="net_3 width_1" style="stroke-width: 1"/><circle cx="158" cy="739.5" r="2" style="fill:#000" class="net_3 width_1"/><line x1="158" x2="183.66666666666666" y1="739.5" y2="739.5" class="net_3 width_1" style="stroke-width: 1"/><line x1="121" x2="158" y1="459.5" y2="459.5" class="net_3 width_1" style="stroke-width: 1"/><line x1="158" x2="158" y1="459.5" y2="798.5" class="net_3 width_1" style="stroke-width: 1"/><line x1="158" x2="246" y1="798.5" y2="798.5" class="net_3 width_1" style="stroke-width: 1"/><line x1="246" x2="246" y1="798.5" y2="892" class="net_3 width_1" style="stroke-width: 1"/><circle cx="158" cy="798.5" r="2" style="fill:#000" class="net_3 width_1"/><line x1="246" x2="333.3333333333333" y1="892" y2="892" class="net_3 width_1" style="stroke-width: 1"/><line x1="121" x2="168" y1="479.5" y2="479.5" class="net_2 width_1" style="stroke-width: 1"/><line x1="168" x2="168" y1="479.5" y2="298.5" class="net_2 width_1" style="stroke-width: 1"/><circle cx="168" cy="479.5" r="2" style="fill:#000" class="net_2 width_1"/><circle cx="168" cy="298.5" r="2" style="fill:#000" class="net_2 width_1"/><line x1="168" x2="182.66666666666666" y1="298.5" y2="298.5" class="net_2 width_1" style="stroke-width: 1"/><line x1="121" x2="168" y1="479.5" y2="479.5" class="net_2 width_1" style="stroke-width: 1"/><line x1="168" x2="168" y1="479.5" y2="587" class="net_2 width_1" style="stroke-width: 1"/><circle cx="168" cy="587" r="2" style="fill:#000" class="net_2 width_1"/><line x1="168" x2="182" y1="587" y2="587" class="net_2 width_1" style="stroke-width: 1"/><line x1="121" x2="168" y1="479.5" y2="479.5" class="net_2 width_1" style="stroke-width: 1"/><line x1="168" x2="168" y1="479.5" y2="160.5" class="net_2 width_1" style="stroke-width: 1"/><line x1="168" x2="184.66666666666666" y1="160.5" y2="160.5" class="net_2 width_1" style="stroke-width: 1"/><line x1="121" x2="168" y1="479.5" y2="479.5" class="net_2 width_1" style="stroke-width: 1"/><line x1="168" x2="168" y1="479.5" y2="241.5" class="net_2 width_1" style="stroke-width: 1"/><circle cx="168" cy="241.5" r="2" style="fill:#000" class="net_2 width_1"/><line x1="168" x2="178.66666666666666" y1="241.5" y2="241.5" class="net_2 width_1" style="stroke-width: 1"/><line x1="121" x2="168" y1="479.5" y2="479.5" class="net_2 width_1" style="stroke-width: 1"/><line x1="168" x2="168" y1="479.5" y2="444.5" class="net_2 width_1" style="stroke-width: 1"/><circle cx="168" cy="444.5" r="2" style="fill:#000" class="net_2 width_1"/><line x1="168" x2="184.66666666666666" y1="444.5" y2="444.5" class="net_2 width_1" style="stroke-width: 1"/><line x1="121" x2="168" y1="479.5" y2="479.5" class="net_2 width_1" style="stroke-width: 1"/><line x1="168" x2="168" y1="479.5" y2="256.5" class="net_2 width_1" style="stroke-width: 1"/><line x1="168" x2="306" y1="256.5" y2="256.5" class="net_2 width_1" style="stroke-width: 1"/><line x1="306" x2="306" y1="256.5" y2="432" class="net_2 width_1" style="stroke-width: 1"/><circle cx="168" cy="256.5" r="2" style="fill:#000" class="net_2 width_1"/><line x1="306" x2="333.3333333333333" y1="432" y2="432" class="net_2 width_1" style="stroke-width: 1"/><line x1="121" x2="168" y1="479.5" y2="479.5" class="net_2 width_1" style="stroke-width: 1"/><line x1="168" x2="168" y1="479.5" y2="814.5" class="net_2 width_1" style="stroke-width: 1"/><circle cx="168" cy="814.5" r="2" style="fill:#000" class="net_2 width_1"/><line x1="168" x2="184" y1="814.5" y2="814.5" class="net_2 width_1" style="stroke-width: 1"/><line x1="121" x2="168" y1="479.5" y2="479.5" class="net_2 width_1" style="stroke-width: 1"/><line x1="168" x2="168" y1="479.5" y2="399.5" class="net_2 width_1" style="stroke-width: 1"/><circle cx="168" cy="399.5" r="2" style="fill:#000" class="net_2 width_1"/><line x1="168" x2="180" y1="399.5" y2="399.5" class="net_2 width_1" style="stroke-width: 1"/><line x1="121" x2="168" y1="479.5" y2="479.5" class="net_2 width_1" style="stroke-width: 1"/><line x1="168" x2="168" y1="479.5" y2="754.5" class="net_2 width_1" style="stroke-width: 1"/><circle cx="168" cy="754.5" r="2" style="fill:#000" class="net_2 width_1"/><line x1="168" x2="183.66666666666666" y1="754.5" y2="754.5" class="net_2 width_1" style="stroke-width: 1"/><line x1="121" x2="168" y1="479.5" y2="479.5" class="net_2 width_1" style="stroke-width: 1"/><line x1="168" x2="168" y1="479.5" y2="912" class="net_2 width_1" style="stroke-width: 1"/><line x1="168" x2="343.3333333333333" y1="912" y2="912" class="net_2 width_1" style="stroke-width: 1"/><line x1="343.3333333333333" x2="343.3333333333333" y1="912" y2="897" class="net_2 width_1" style="stroke-width: 1"/><line x1="209" x2="333.3333333333333" y1="22" y2="22" class="net_14 width_1" style="stroke-width: 1"/><line x1="212.66666666666666" x2="226" y1="291" y2="291" class="net_15 width_1" style="stroke-width: 1"/><line x1="226" x2="226" y1="291" y2="42" class="net_15 width_1" style="stroke-width: 1"/><circle cx="226" cy="291" r="2" style="fill:#000" class="net_15 width_1"/><line x1="226" x2="333.3333333333333" y1="42" y2="42" class="net_15 width_1" style="stroke-width: 1"/><line x1="212.66666666666666" x2="226" y1="291" y2="291" class="net_15 width_1" style="stroke-width: 1"/><line x1="226" x2="226" y1="291" y2="173" class="net_15 width_1" style="stroke-width: 1"/><circle cx="226" cy="173" r="2" style="fill:#000" class="net_15 width_1"/><line x1="226" x2="333.3333333333333" y1="173" y2="173" class="net_15 width_1" style="stroke-width: 1"/><line x1="212.66666666666666" x2="226" y1="291" y2="291" class="net_15 width_1" style="stroke-width: 1"/><line x1="226" x2="226" y1="291" y2="652" class="net_15 width_1" style="stroke-width: 1"/><circle cx="226" cy="652" r="2" style="fill:#000" class="net_15 width_1"/><line x1="226" x2="333.3333333333333" y1="652" y2="652" class="net_15 width_1" style="stroke-width: 1"/><line x1="212.66666666666666" x2="226" y1="291" y2="291" class="net_15 width_1" style="stroke-width: 1"/><line x1="226" x2="226" y1="291" y2="992" class="net_15 width_1" style="stroke-width: 1"/><line x1="226" x2="333.3333333333333" y1="992" y2="992" class="net_15 width_1" style="stroke-width: 1"/><line x1="216" x2="236" y1="579.5" y2="579.5" class="net_17 width_1" style="stroke-width: 1"/><line x1="236" x2="236" y1="579.5" y2="88" class="net_17 width_1" style="stroke-width: 1"/><circle cx="236" cy="579.5" r="2" style="fill:#000" class="net_17 width_1"/><line x1="236" x2="332" y1="88" y2="88" class="net_17 width_1" style="stroke-width: 1"/><line x1="216" x2="236" y1="579.5" y2="579.5" class="net_17 width_1" style="stroke-width: 1"/><line x1="236" x2="236" y1="579.5" y2="952" class="net_17 width_1" style="stroke-width: 1"/><line x1="236" x2="333.3333333333333" y1="952" y2="952" class="net_17 width_1" style="stroke-width: 1"/><line x1="209" x2="286" y1="348.5" y2="348.5" class="net_13 width_1" style="stroke-width: 1"/><line x1="286" x2="286" y1="348.5" y2="103" class="net_13 width_1" style="stroke-width: 1"/><circle cx="286" cy="348.5" r="2" style="fill:#000" class="net_13 width_1"/><line x1="286" x2="326" y1="103" y2="103" class="net_13 width_1" style="stroke-width: 1"/><line x1="209" x2="286" y1="348.5" y2="348.5" class="net_13 width_1" style="stroke-width: 1"/><line x1="286" x2="286" y1="348.5" y2="487" class="net_13 width_1" style="stroke-width: 1"/><circle cx="286" cy="487" r="2" style="fill:#000" class="net_13 width_1"/><line x1="286" x2="332" y1="487" y2="487" class="net_13 width_1" style="stroke-width: 1"/><line x1="209" x2="286" y1="348.5" y2="348.5" class="net_13 width_1" style="stroke-width: 1"/><line x1="286" x2="286" y1="348.5" y2="687" class="net_13 width_1" style="stroke-width: 1"/><circle cx="286" cy="687" r="2" style="fill:#000" class="net_13 width_1"/><line x1="286" x2="332" y1="687" y2="687" class="net_13 width_1" style="stroke-width: 1"/><line x1="209" x2="286" y1="348.5" y2="348.5" class="net_13 width_1" style="stroke-width: 1"/><line x1="286" x2="286" y1="348.5" y2="762" class="net_13 width_1" style="stroke-width: 1"/><line x1="286" x2="326" y1="762" y2="762" class="net_13 width_1" style="stroke-width: 1"/><line x1="353.3333333333333" x2="412" y1="32" y2="32" class="net_16 width_1" style="stroke-width: 1"/><line x1="412" x2="412" y1="32" y2="75.5" class="net_16 width_1" style="stroke-width: 1"/><line x1="412" x2="422" y1="75.5" y2="75.5" class="net_16 width_1" style="stroke-width: 1"/><line x1="362" x2="422" y1="95.5" y2="95.5" class="net_18 width_1" style="stroke-width: 1"/><line x1="121" x2="138" y1="499.5" y2="499.5" class="net_5 width_1" style="stroke-width: 1"/><line x1="138" x2="138" y1="499.5" y2="62" class="net_5 width_1" style="stroke-width: 1"/><line x1="138" x2="402" y1="62" y2="62" class="net_5 width_1" style="stroke-width: 1"/><line x1="402" x2="402" y1="62" y2="186.5" class="net_5 width_1" style="stroke-width: 1"/><line x1="402" x2="432" y1="186.5" y2="186.5" class="net_5 width_1" style="stroke-width: 1"/><circle cx="138" cy="499.5" r="2" style="fill:#000" class="net_5 width_1"/><line x1="432" x2="432" y1="186.5" y2="100.5" class="net_5 width_1" style="stroke-width: 1"/><line x1="121" x2="138" y1="499.5" y2="499.5" class="net_5 width_1" style="stroke-width: 1"/><line x1="138" x2="138" y1="499.5" y2="193" class="net_5 width_1" style="stroke-width: 1"/><line x1="138" x2="382" y1="193" y2="193" class="net_5 width_1" style="stroke-width: 1"/><line x1="382" x2="382" y1="193" y2="454.5" class="net_5 width_1" style="stroke-width: 1"/><line x1="382" x2="432" y1="454.5" y2="454.5" class="net_5 width_1" style="stroke-width: 1"/><circle cx="138" cy="193" r="2" style="fill:#000" class="net_5 width_1"/><line x1="432" x2="432" y1="454.5" y2="231.5" class="net_5 width_1" style="stroke-width: 1"/><line x1="121" x2="138" y1="499.5" y2="499.5" class="net_5 width_1" style="stroke-width: 1"/><line x1="138" x2="138" y1="499.5" y2="602" class="net_5 width_1" style="stroke-width: 1"/><line x1="138" x2="432" y1="602" y2="602" class="net_5 width_1" style="stroke-width: 1"/><circle cx="138" cy="602" r="2" style="fill:#000" class="net_5 width_1"/><line x1="432" x2="432" y1="602" y2="499.5" class="net_5 width_1" style="stroke-width: 1"/><line x1="121" x2="138" y1="499.5" y2="499.5" class="net_5 width_1" style="stroke-width: 1"/><line x1="138" x2="138" y1="499.5" y2="1043" class="net_5 width_1" style="stroke-width: 1"/><line x1="138" x2="382" y1="1043" y2="1043" class="net_5 width_1" style="stroke-width: 1"/><line x1="382" x2="382" y1="1043" y2="774.5" class="net_5 width_1" style="stroke-width: 1"/><line x1="382" x2="432" y1="774.5" y2="774.5" class="net_5 width_1" style="stroke-width: 1"/><circle cx="382" cy="1043" r="2" style="fill:#000" class="net_5 width_1"/><line x1="432" x2="432" y1="774.5" y2="647" class="net_5 width_1" style="stroke-width: 1"/><line x1="121" x2="138" y1="499.5" y2="499.5" class="net_5 width_1" style="stroke-width: 1"/><line x1="138" x2="138" y1="499.5" y2="1043" class="net_5 width_1" style="stroke-width: 1"/><line x1="138" x2="382" y1="1043" y2="1043" class="net_5 width_1" style="stroke-width: 1"/><line x1="382" x2="382" y1="1043" y2="842" class="net_5 width_1" style="stroke-width: 1"/><line x1="382" x2="432" y1="842" y2="842" class="net_5 width_1" style="stroke-width: 1"/><circle cx="382" cy="842" r="2" style="fill:#000" class="net_5 width_1"/><line x1="432" x2="432" y1="842" y2="819.5" class="net_5 width_1" style="stroke-width: 1"/><line x1="121" x2="138" y1="499.5" y2="499.5" class="net_5 width_1" style="stroke-width: 1"/><line x1="138" x2="138" y1="499.5" y2="1043" class="net_5 width_1" style="stroke-width: 1"/><line x1="138" x2="432" y1="1043" y2="1043" class="net_5 width_1" style="stroke-width: 1"/><line x1="432" x2="432" y1="1043" y2="887" class="net_5 width_1" style="stroke-width: 1"/><line x1="121" x2="138" y1="499.5" y2="499.5" class="net_5 width_1" style="stroke-width: 1"/><line x1="138" x2="138" y1="499.5" y2="1043" class="net_5 width_1" style="stroke-width: 1"/><line x1="138" x2="382" y1="1043" y2="1043" class="net_5 width_1" style="stroke-width: 1"/><line x1="382" x2="382" y1="1043" y2="1103" class="net_5 width_1" style="stroke-width: 1"/><line x1="382" x2="432" y1="1103" y2="1103" class="net_5 width_1" style="stroke-width: 1"/><line x1="432" x2="432" y1="1103" y2="1088" class="net_5 width_1" style="stroke-width: 1"/><line x1="212.66666666666666" x2="333.3333333333333" y1="153" y2="153" class="net_19 width_1" style="stroke-width: 1"/><line x1="212.66666666666666" x2="326" y1="234" y2="234" class="net_21 width_1" style="stroke-width: 1"/><line x1="212.66666666666666" x2="316" y1="234" y2="234" class="net_21 width_1" style="stroke-width: 1"/><line x1="316" x2="316" y1="234" y2="502" class="net_21 width_1" style="stroke-width: 1"/><circle cx="316" cy="234" r="2" style="fill:#000" class="net_21 width_1"/><line x1="316" x2="326" y1="502" y2="502" class="net_21 width_1" style="stroke-width: 1"/><line x1="353.3333333333333" x2="392" y1="163" y2="163" class="net_20 width_1" style="stroke-width: 1"/><line x1="392" x2="392" y1="163" y2="206.5" class="net_20 width_1" style="stroke-width: 1"/><line x1="392" x2="422" y1="206.5" y2="206.5" class="net_20 width_1" style="stroke-width: 1"/><line x1="362" x2="422" y1="226.5" y2="226.5" class="net_22 width_1" style="stroke-width: 1"/><line x1="212.66666666666666" x2="333.3333333333333" y1="452" y2="452" class="net_23 width_1" style="stroke-width: 1"/><line x1="212.66666666666666" x2="246" y1="452" y2="452" class="net_23 width_1" style="stroke-width: 1"/><line x1="246" x2="246" y1="452" y2="702" class="net_23 width_1" style="stroke-width: 1"/><circle cx="246" cy="452" r="2" style="fill:#000" class="net_23 width_1"/><line x1="246" x2="326" y1="702" y2="702" class="net_23 width_1" style="stroke-width: 1"/><line x1="353.3333333333333" x2="372" y1="442" y2="442" class="net_24 width_1" style="stroke-width: 1"/><line x1="372" x2="372" y1="442" y2="474.5" class="net_24 width_1" style="stroke-width: 1"/><line x1="372" x2="422" y1="474.5" y2="474.5" class="net_24 width_1" style="stroke-width: 1"/><line x1="362" x2="422" y1="494.5" y2="494.5" class="net_25 width_1" style="stroke-width: 1"/><line x1="214" x2="256" y1="822" y2="822" class="net_26 width_1" style="stroke-width: 1"/><line x1="256" x2="256" y1="822" y2="552" class="net_26 width_1" style="stroke-width: 1"/><circle cx="256" cy="822" r="2" style="fill:#000" class="net_26 width_1"/><line x1="256" x2="333.3333333333333" y1="552" y2="552" class="net_26 width_1" style="stroke-width: 1"/><line x1="214" x2="326" y1="822" y2="822" class="net_26 width_1" style="stroke-width: 1"/><line x1="214" x2="256" y1="822" y2="822" class="net_26 width_1" style="stroke-width: 1"/><line x1="256" x2="256" y1="822" y2="932" class="net_26 width_1" style="stroke-width: 1"/><circle cx="256" cy="932" r="2" style="fill:#000" class="net_26 width_1"/><line x1="256" x2="333.3333333333333" y1="932" y2="932" class="net_26 width_1" style="stroke-width: 1"/><line x1="214" x2="256" y1="822" y2="822" class="net_26 width_1" style="stroke-width: 1"/><line x1="256" x2="256" y1="822" y2="1012" class="net_26 width_1" style="stroke-width: 1"/><line x1="256" x2="333.3333333333333" y1="1012" y2="1012" class="net_26 width_1" style="stroke-width: 1"/><line x1="216" x2="266" y1="392" y2="392" class="net_27 width_1" style="stroke-width: 1"/><line x1="266" x2="266" y1="392" y2="572" class="net_27 width_1" style="stroke-width: 1"/><line x1="266" x2="333.3333333333333" y1="572" y2="572" class="net_27 width_1" style="stroke-width: 1"/><line x1="214.66666666666666" x2="296" y1="747" y2="747" class="net_29 width_1" style="stroke-width: 1"/><line x1="296" x2="296" y1="747" y2="632" class="net_29 width_1" style="stroke-width: 1"/><circle cx="296" cy="747" r="2" style="fill:#000" class="net_29 width_1"/><line x1="296" x2="333.3333333333333" y1="632" y2="632" class="net_29 width_1" style="stroke-width: 1"/><line x1="214.66666666666666" x2="332" y1="747" y2="747" class="net_29 width_1" style="stroke-width: 1"/><line x1="353.3333333333333" x2="372" y1="562" y2="562" class="net_28 width_1" style="stroke-width: 1"/><line x1="372" x2="372" y1="562" y2="622" class="net_28 width_1" style="stroke-width: 1"/><line x1="372" x2="422" y1="622" y2="622" class="net_28 width_1" style="stroke-width: 1"/><line x1="353.3333333333333" x2="422" y1="642" y2="642" class="net_30 width_1" style="stroke-width: 1"/><line x1="362" x2="392" y1="694.5" y2="694.5" class="net_31 width_1" style="stroke-width: 1"/><line x1="392" x2="392" y1="694.5" y2="794.5" class="net_31 width_1" style="stroke-width: 1"/><line x1="392" x2="422" y1="794.5" y2="794.5" class="net_31 width_1" style="stroke-width: 1"/><line x1="362" x2="422" y1="814.5" y2="814.5" class="net_32 width_1" style="stroke-width: 1"/><line x1="362" x2="372" y1="754.5" y2="754.5" class="net_33 width_1" style="stroke-width: 1"/><line x1="372" x2="372" y1="754.5" y2="862" class="net_33 width_1" style="stroke-width: 1"/><line x1="372" x2="422" y1="862" y2="862" class="net_33 width_1" style="stroke-width: 1"/><line x1="353.3333333333333" x2="422" y1="882" y2="882" class="net_34 width_1" style="stroke-width: 1"/><line x1="353.3333333333333" x2="392" y1="942" y2="942" class="net_35 width_1" style="stroke-width: 1"/><line x1="392" x2="392" y1="942" y2="1063" class="net_35 width_1" style="stroke-width: 1"/><line x1="392" x2="422" y1="1063" y2="1063" class="net_35 width_1" style="stroke-width: 1"/><line x1="353.3333333333333" x2="372" y1="1002" y2="1002" class="net_36 width_1" style="stroke-width: 1"/><line x1="372" x2="372" y1="1002" y2="1083" class="net_36 width_1" style="stroke-width: 1"/><line x1="372" x2="422" y1="1083" y2="1083" class="net_36 width_1" style="stroke-width: 1"/><line x1="498" x2="574" y1="782" y2="782" class="net_6,7,8,9,10,11,12 width_7" style="stroke-width: 2"/><line x1="442" x2="492.5" y1="85.5" y2="85.5" class="net_6 width_1" style="stroke-width: 1"/><line x1="492.5" x2="492.5" y1="85.5" y2="771.5" class="net_6 width_1" style="stroke-width: 1"/><line x1="442" x2="482" y1="216.5" y2="216.5" class="net_7 width_1" style="stroke-width: 1"/><line x1="482" x2="482" y1="216.5" y2="792" class="net_7 width_1" style="stroke-width: 1"/><line x1="482" x2="492" y1="792" y2="792" class="net_7 width_1" style="stroke-width: 1"/><line x1="442" x2="472" y1="484.5" y2="484.5" class="net_8 width_1" style="stroke-width: 1"/><line x1="472" x2="472" y1="484.5" y2="812" class="net_8 width_1" style="stroke-width: 1"/><line x1="472" x2="492" y1="812" y2="812" class="net_8 width_1" style="stroke-width: 1"/><line x1="442" x2="462" y1="632" y2="632" class="net_9 width_1" style="stroke-width: 1"/><line x1="462" x2="462" y1="632" y2="832" class="net_9 width_1" style="stroke-width: 1"/><line x1="462" x2="492" y1="832" y2="832" class="net_9 width_1" style="stroke-width: 1"/><line x1="442" x2="452" y1="804.5" y2="804.5" class="net_10 width_1" style="stroke-width: 1"/><line x1="452" x2="452" y1="804.5" y2="852" class="net_10 width_1" style="stroke-width: 1"/><line x1="452" x2="492" y1="852" y2="852" class="net_10 width_1" style="stroke-width: 1"/><line x1="442" x2="492" y1="872" y2="872" class="net_11 width_1" style="stroke-width: 1"/><line x1="442" x2="492.5" y1="1073" y2="1073" class="net_12 width_1" style="stroke-width: 1"/><line x1="492.5" x2="492.5" y1="1073" y2="892.5" class="net_12 width_1" style="stroke-width: 1"/><line x1="42" x2="116" y1="449.5" y2="449.5" class="net_2,3,4,5 width_4" style="stroke-width: 2"/><rect x="536" y="777" width="16" height="9" class="net_6,7,8,9,10,11,12 width_7 busLabel_7" style="fill: white; stroke: none"/><text x="535" y="785" class="net_6,7,8,9,10,11,12 width_7 busLabel_7">/7/</text><rect x="78" y="444.5" width="16" height="9" class="net_2,3,4,5 width_4 busLabel_4" style="fill: white; stroke: none"/><text x="77" y="452.5" class="net_2,3,4,5 width_4 busLabel_4">/4/</text></svg>