<svg xmlns="http://www.w3.org/2000/svg" xmlns:xlink="http://www.w3.org/1999/xlink" xmlns:s="https://github.com/nturley/netlistsvg" width="640" height="729"><style>svg {
  stroke:#000;
  fill:none;
}
text {
  fill:#000;
  stroke:none;
  font-size:10px;
  font-weight: bold;
  font-family: "Courier New", monospace;
}
line {
    stroke-linecap: round;
}
.nodelabel {
  text-anchor: middle;
}
.inputPortLabel {
  text-anchor: end;
}
.splitjoinBody {
  fill:#000;
}</style><g s:type="nand" transform="translate(360,307)" s:width="30" s:height="25" id="cell_$abc$168$auto$blifparse.cc:396:parse_blif$170"><s:alias val="$nand"/><s:alias val="$logic_nand"/><s:alias val="$_NAND_"/><path d="M0,0 L0,25 L15,25 A15 12.5 0 0 0 15,0 Z" class="cell_$abc$168$auto$blifparse.cc:396:parse_blif$170"/><circle cx="34" cy="12.5" r="3" class="cell_$abc$168$auto$blifparse.cc:396:parse_blif$170"/><g s:x="0" s:y="5" s:pid="A"/><g s:x="0" s:y="20" s:pid="B"/><g s:x="36" s:y="12.5" s:pid="Y"/></g><g s:type="reduce_nor" transform="translate(178,250)" s:width="33" s:height="25" id="cell_$abc$168$auto$blifparse.cc:396:parse_blif$171"><s:alias val="$nor"/><s:alias val="$reduce_nor"/><s:alias val="$_NOR_"/><s:alias val="$_ORNOT_"/><path d="M0,0 A30 25 0 0 1 0,25 A30 25 0 0 0 30,12.5 A30 25 0 0 0 0,0" class="cell_$abc$168$auto$blifparse.cc:396:parse_blif$171"/><circle cx="33" cy="12.5" r="3" class="cell_$abc$168$auto$blifparse.cc:396:parse_blif$171"/><g s:x="2" s:y="5" s:pid="A"/><g s:x="2" s:y="20" s:pid="B"/><g s:x="36" s:y="12.5" s:pid="Y"/></g><g s:type="mux" transform="translate(367.3333333333333,22)" s:width="20" s:height="40" id="cell_$abc$168$auto$blifparse.cc:396:parse_blif$172"><s:alias val="$pmux"/><s:alias val="$mux"/><s:alias val="$_MUX_"/><path d="M0,0 L20,10 L20,30 L0,40 Z" class="cell_$abc$168$auto$blifparse.cc:396:parse_blif$172"/><text x="5" y="32" class="nodelabel cell_$abc$168$auto$blifparse.cc:396:parse_blif$172" s:attribute="">1</text><text x="5" y="13" class="nodelabel cell_$abc$168$auto$blifparse.cc:396:parse_blif$172" s:attribute="">0</text><g s:x="0" s:y="10" s:pid="A"/><g s:x="0" s:y="30" s:pid="B"/><g s:x="10" s:y="35" s:pid="S"/><g s:x="20" s:y="20" s:pid="Y"/></g><g s:type="mux" transform="translate(446,12)" s:width="20" s:height="40" id="cell_$abc$168$auto$blifparse.cc:396:parse_blif$173"><s:alias val="$pmux"/><s:alias val="$mux"/><s:alias val="$_MUX_"/><path d="M0,0 L20,10 L20,30 L0,40 Z" class="cell_$abc$168$auto$blifparse.cc:396:parse_blif$173"/><text x="5" y="32" class="nodelabel cell_$abc$168$auto$blifparse.cc:396:parse_blif$173" s:attribute="">1</text><text x="5" y="13" class="nodelabel cell_$abc$168$auto$blifparse.cc:396:parse_blif$173" s:attribute="">0</text><g s:x="0" s:y="10" s:pid="A"/><g s:x="0" s:y="30" s:pid="B"/><g s:x="10" s:y="35" s:pid="S"/><g s:x="20" s:y="20" s:pid="Y"/></g><g s:type="not" transform="translate(287,338)" s:width="30" s:height="20" id="cell_$abc$168$auto$blifparse.cc:396:parse_blif$174"><s:alias val="$_NOT_"/><s:alias val="$not"/><s:alias val="$logic_not"/><path d="M0,0 L0,20 L20,10 Z" class="cell_$abc$168$auto$blifparse.cc:396:parse_blif$174"/><circle cx="24" cy="10" r="3" class="cell_$abc$168$auto$blifparse.cc:396:parse_blif$174"/><g s:x="-1" s:y="10" s:pid="A"/><g s:x="27" s:y="10" s:pid="Y"/></g><g s:type="nand" transform="translate(284,154)" s:width="30" s:height="25" id="cell_$abc$168$auto$blifparse.cc:396:parse_blif$175"><s:alias val="$nand"/><s:alias val="$logic_nand"/><s:alias val="$_NAND_"/><path d="M0,0 L0,25 L15,25 A15 12.5 0 0 0 15,0 Z" class="cell_$abc$168$auto$blifparse.cc:396:parse_blif$175"/><circle cx="34" cy="12.5" r="3" class="cell_$abc$168$auto$blifparse.cc:396:parse_blif$175"/><g s:x="0" s:y="5" s:pid="A"/><g s:x="0" s:y="20" s:pid="B"/><g s:x="36" s:y="12.5" s:pid="Y"/></g><g s:type="mux" transform="translate(367.3333333333333,93)" s:width="20" s:height="40" id="cell_$abc$168$auto$blifparse.cc:396:parse_blif$176"><s:alias val="$pmux"/><s:alias val="$mux"/><s:alias val="$_MUX_"/><path d="M0,0 L20,10 L20,30 L0,40 Z" class="cell_$abc$168$auto$blifparse.cc:396:parse_blif$176"/><text x="5" y="32" class="nodelabel cell_$abc$168$auto$blifparse.cc:396:parse_blif$176" s:attribute="">1</text><text x="5" y="13" class="nodelabel cell_$abc$168$auto$blifparse.cc:396:parse_blif$176" s:attribute="">0</text><g s:x="0" s:y="10" s:pid="A"/><g s:x="0" s:y="30" s:pid="B"/><g s:x="10" s:y="35" s:pid="S"/><g s:x="20" s:y="20" s:pid="Y"/></g><g s:type="mux" transform="translate(446,83)" s:width="20" s:height="40" id="cell_$abc$168$auto$blifparse.cc:396:parse_blif$177"><s:alias val="$pmux"/><s:alias val="$mux"/><s:alias val="$_MUX_"/><path d="M0,0 L20,10 L20,30 L0,40 Z" class="cell_$abc$168$auto$blifparse.cc:396:parse_blif$177"/><text x="5" y="32" class="nodelabel cell_$abc$168$auto$blifparse.cc:396:parse_blif$177" s:attribute="">1</text><text x="5" y="13" class="nodelabel cell_$abc$168$auto$blifparse.cc:396:parse_blif$177" s:attribute="">0</text><g s:x="0" s:y="10" s:pid="A"/><g s:x="0" s:y="30" s:pid="B"/><g s:x="10" s:y="35" s:pid="S"/><g s:x="20" s:y="20" s:pid="Y"/></g><g s:type="or" transform="translate(364,161.5)" s:width="30" s:height="25" id="cell_$abc$168$auto$blifparse.cc:396:parse_blif$178"><s:alias val="$or"/><s:alias val="$logic_or"/><s:alias val="$_OR_"/><s:alias val="$reduce_or"/><s:alias val="$reduce_bool"/><path d="M0,0 A30 25 0 0 1 0,25 A30 25 0 0 0 30,12.5 A30 25 0 0 0 0,0" class="cell_$abc$168$auto$blifparse.cc:396:parse_blif$178"/><g s:x="2" s:y="5" s:pid="A"/><g s:x="2" s:y="20" s:pid="B"/><g s:x="30" s:y="12.5" s:pid="Y"/></g><g s:type="ornot" transform="translate(182,359)" s:width="30" s:height="25" id="cell_$abc$168$auto$blifparse.cc:396:parse_blif$179"><s:alias val="$_ORNOT_"/><path d="M0,0 A30 25 0 0 1 0,25 A30 25 0 0 0 30,12.5 A30 25 0 0 0 0,0" class="cell_$abc$168$auto$blifparse.cc:396:parse_blif$179"/><circle cx="-1" cy="20" r="3"/><g s:x="2" s:y="5" s:pid="A"/><g s:x="-4" s:y="20" s:pid="B"/><g s:x="30" s:y="12.5" s:pid="Y"/></g><g s:type="andnot" transform="translate(184,419)" s:width="30" s:height="25" id="cell_$abc$168$auto$blifparse.cc:396:parse_blif$180"><s:alias val="$_ANDNOT_"/><path d="M0,0 L0,25 L15,25 A15 12.5 0 0 0 15,0 Z" class="cell_$abc$168$auto$blifparse.cc:396:parse_blif$180"/><circle cx="-3" cy="20" r="3"/><g s:x="0" s:y="5" s:pid="A"/><g s:x="-6" s:y="20" s:pid="B"/><g s:x="30" s:y="12.5" s:pid="Y"/></g><g s:type="or" transform="translate(288,242.5)" s:width="30" s:height="25" id="cell_$abc$168$auto$blifparse.cc:396:parse_blif$181"><s:alias val="$or"/><s:alias val="$logic_or"/><s:alias val="$_OR_"/><s:alias val="$reduce_or"/><s:alias val="$reduce_bool"/><path d="M0,0 A30 25 0 0 1 0,25 A30 25 0 0 0 30,12.5 A30 25 0 0 0 0,0" class="cell_$abc$168$auto$blifparse.cc:396:parse_blif$181"/><g s:x="2" s:y="5" s:pid="A"/><g s:x="2" s:y="20" s:pid="B"/><g s:x="30" s:y="12.5" s:pid="Y"/></g><g s:type="mux" transform="translate(367.3333333333333,221.5)" s:width="20" s:height="40" id="cell_$abc$168$auto$blifparse.cc:396:parse_blif$182"><s:alias val="$pmux"/><s:alias val="$mux"/><s:alias val="$_MUX_"/><path d="M0,0 L20,10 L20,30 L0,40 Z" class="cell_$abc$168$auto$blifparse.cc:396:parse_blif$182"/><text x="5" y="32" class="nodelabel cell_$abc$168$auto$blifparse.cc:396:parse_blif$182" s:attribute="">1</text><text x="5" y="13" class="nodelabel cell_$abc$168$auto$blifparse.cc:396:parse_blif$182" s:attribute="">0</text><g s:x="0" s:y="10" s:pid="A"/><g s:x="0" s:y="30" s:pid="B"/><g s:x="10" s:y="35" s:pid="S"/><g s:x="20" s:y="20" s:pid="Y"/></g><g s:type="mux" transform="translate(446,164)" s:width="20" s:height="40" id="cell_$abc$168$auto$blifparse.cc:396:parse_blif$183"><s:alias val="$pmux"/><s:alias val="$mux"/><s:alias val="$_MUX_"/><path d="M0,0 L20,10 L20,30 L0,40 Z" class="cell_$abc$168$auto$blifparse.cc:396:parse_blif$183"/><text x="5" y="32" class="nodelabel cell_$abc$168$auto$blifparse.cc:396:parse_blif$183" s:attribute="">1</text><text x="5" y="13" class="nodelabel cell_$abc$168$auto$blifparse.cc:396:parse_blif$183" s:attribute="">0</text><g s:x="0" s:y="10" s:pid="A"/><g s:x="0" s:y="30" s:pid="B"/><g s:x="10" s:y="35" s:pid="S"/><g s:x="20" s:y="20" s:pid="Y"/></g><g s:type="and" transform="translate(182,479)" s:width="30" s:height="25" id="cell_$abc$168$auto$blifparse.cc:396:parse_blif$184"><s:alias val="$and"/><s:alias val="$logic_and"/><s:alias val="$_AND_"/><s:alias val="$reduce_and"/><path d="M0,0 L0,25 L15,25 A15 12.5 0 0 0 15,0 Z" class="cell_$abc$168$auto$blifparse.cc:396:parse_blif$184"/><g s:x="0" s:y="5" s:pid="A"/><g s:x="0" s:y="20" s:pid="B"/><g s:x="30" s:y="12.5" s:pid="Y"/></g><g s:type="or" transform="translate(288,393)" s:width="30" s:height="25" id="cell_$abc$168$auto$blifparse.cc:396:parse_blif$185"><s:alias val="$or"/><s:alias val="$logic_or"/><s:alias val="$_OR_"/><s:alias val="$reduce_or"/><s:alias val="$reduce_bool"/><path d="M0,0 A30 25 0 0 1 0,25 A30 25 0 0 0 30,12.5 A30 25 0 0 0 0,0" class="cell_$abc$168$auto$blifparse.cc:396:parse_blif$185"/><g s:x="2" s:y="5" s:pid="A"/><g s:x="2" s:y="20" s:pid="B"/><g s:x="30" s:y="12.5" s:pid="Y"/></g><g s:type="mux" transform="translate(367.3333333333333,395.5)" s:width="20" s:height="40" id="cell_$abc$168$auto$blifparse.cc:396:parse_blif$186"><s:alias val="$pmux"/><s:alias val="$mux"/><s:alias val="$_MUX_"/><path d="M0,0 L20,10 L20,30 L0,40 Z" class="cell_$abc$168$auto$blifparse.cc:396:parse_blif$186"/><text x="5" y="32" class="nodelabel cell_$abc$168$auto$blifparse.cc:396:parse_blif$186" s:attribute="">1</text><text x="5" y="13" class="nodelabel cell_$abc$168$auto$blifparse.cc:396:parse_blif$186" s:attribute="">0</text><g s:x="0" s:y="10" s:pid="A"/><g s:x="0" s:y="30" s:pid="B"/><g s:x="10" s:y="35" s:pid="S"/><g s:x="20" s:y="20" s:pid="Y"/></g><g s:type="mux" transform="translate(446,309.5)" s:width="20" s:height="40" id="cell_$abc$168$auto$blifparse.cc:396:parse_blif$187"><s:alias val="$pmux"/><s:alias val="$mux"/><s:alias val="$_MUX_"/><path d="M0,0 L20,10 L20,30 L0,40 Z" class="cell_$abc$168$auto$blifparse.cc:396:parse_blif$187"/><text x="5" y="32" class="nodelabel cell_$abc$168$auto$blifparse.cc:396:parse_blif$187" s:attribute="">1</text><text x="5" y="13" class="nodelabel cell_$abc$168$auto$blifparse.cc:396:parse_blif$187" s:attribute="">0</text><g s:x="0" s:y="10" s:pid="A"/><g s:x="0" s:y="30" s:pid="B"/><g s:x="10" s:y="35" s:pid="S"/><g s:x="20" s:y="20" s:pid="Y"/></g><g s:type="andnot" transform="translate(366,541.5)" s:width="30" s:height="25" id="cell_$abc$168$auto$blifparse.cc:396:parse_blif$189"><s:alias val="$_ANDNOT_"/><path d="M0,0 L0,25 L15,25 A15 12.5 0 0 0 15,0 Z" class="cell_$abc$168$auto$blifparse.cc:396:parse_blif$189"/><circle cx="-3" cy="20" r="3"/><g s:x="0" s:y="5" s:pid="A"/><g s:x="-6" s:y="20" s:pid="B"/><g s:x="30" s:y="12.5" s:pid="Y"/></g><g s:type="mux" transform="translate(446,524)" s:width="20" s:height="40" id="cell_$abc$168$auto$blifparse.cc:396:parse_blif$190"><s:alias val="$pmux"/><s:alias val="$mux"/><s:alias val="$_MUX_"/><path d="M0,0 L20,10 L20,30 L0,40 Z" class="cell_$abc$168$auto$blifparse.cc:396:parse_blif$190"/><text x="5" y="32" class="nodelabel cell_$abc$168$auto$blifparse.cc:396:parse_blif$190" s:attribute="">1</text><text x="5" y="13" class="nodelabel cell_$abc$168$auto$blifparse.cc:396:parse_blif$190" s:attribute="">0</text><g s:x="0" s:y="10" s:pid="A"/><g s:x="0" s:y="30" s:pid="B"/><g s:x="10" s:y="35" s:pid="S"/><g s:x="20" s:y="20" s:pid="Y"/></g><g s:type="andnot" transform="translate(290,609)" s:width="30" s:height="25" id="cell_$abc$168$auto$blifparse.cc:396:parse_blif$191"><s:alias val="$_ANDNOT_"/><path d="M0,0 L0,25 L15,25 A15 12.5 0 0 0 15,0 Z" class="cell_$abc$168$auto$blifparse.cc:396:parse_blif$191"/><circle cx="-3" cy="20" r="3"/><g s:x="0" s:y="5" s:pid="A"/><g s:x="-6" s:y="20" s:pid="B"/><g s:x="30" s:y="12.5" s:pid="Y"/></g><g s:type="andnot" transform="translate(366,601.5)" s:width="30" s:height="25" id="cell_$abc$168$auto$blifparse.cc:396:parse_blif$192"><s:alias val="$_ANDNOT_"/><path d="M0,0 L0,25 L15,25 A15 12.5 0 0 0 15,0 Z" class="cell_$abc$168$auto$blifparse.cc:396:parse_blif$192"/><circle cx="-3" cy="20" r="3"/><g s:x="0" s:y="5" s:pid="A"/><g s:x="-6" s:y="20" s:pid="B"/><g s:x="30" s:y="12.5" s:pid="Y"/></g><g s:type="mux" transform="translate(446,584)" s:width="20" s:height="40" id="cell_$abc$168$auto$blifparse.cc:396:parse_blif$193"><s:alias val="$pmux"/><s:alias val="$mux"/><s:alias val="$_MUX_"/><path d="M0,0 L20,10 L20,30 L0,40 Z" class="cell_$abc$168$auto$blifparse.cc:396:parse_blif$193"/><text x="5" y="32" class="nodelabel cell_$abc$168$auto$blifparse.cc:396:parse_blif$193" s:attribute="">1</text><text x="5" y="13" class="nodelabel cell_$abc$168$auto$blifparse.cc:396:parse_blif$193" s:attribute="">0</text><g s:x="0" s:y="10" s:pid="A"/><g s:x="0" s:y="30" s:pid="B"/><g s:x="10" s:y="35" s:pid="S"/><g s:x="20" s:y="20" s:pid="Y"/></g><g s:type="mux" transform="translate(367.3333333333333,655)" s:width="20" s:height="40" id="cell_$abc$168$auto$blifparse.cc:396:parse_blif$194"><s:alias val="$pmux"/><s:alias val="$mux"/><s:alias val="$_MUX_"/><path d="M0,0 L20,10 L20,30 L0,40 Z" class="cell_$abc$168$auto$blifparse.cc:396:parse_blif$194"/><text x="5" y="32" class="nodelabel cell_$abc$168$auto$blifparse.cc:396:parse_blif$194" s:attribute="">1</text><text x="5" y="13" class="nodelabel cell_$abc$168$auto$blifparse.cc:396:parse_blif$194" s:attribute="">0</text><g s:x="0" s:y="10" s:pid="A"/><g s:x="0" s:y="30" s:pid="B"/><g s:x="10" s:y="35" s:pid="S"/><g s:x="20" s:y="20" s:pid="Y"/></g><g s:type="mux" transform="translate(446,645)" s:width="20" s:height="40" id="cell_$abc$168$auto$blifparse.cc:396:parse_blif$195"><s:alias val="$pmux"/><s:alias val="$mux"/><s:alias val="$_MUX_"/><path d="M0,0 L20,10 L20,30 L0,40 Z" class="cell_$abc$168$auto$blifparse.cc:396:parse_blif$195"/><text x="5" y="32" class="nodelabel cell_$abc$168$auto$blifparse.cc:396:parse_blif$195" s:attribute="">1</text><text x="5" y="13" class="nodelabel cell_$abc$168$auto$blifparse.cc:396:parse_blif$195" s:attribute="">0</text><g s:x="0" s:y="10" s:pid="A"/><g s:x="0" s:y="30" s:pid="B"/><g s:x="10" s:y="35" s:pid="S"/><g s:x="20" s:y="20" s:pid="Y"/></g><g s:type="inputExt" transform="translate(12,348)" s:width="30" s:height="20" id="cell_KEY"><text x="15" y="-4" class="nodelabel cell_KEY" s:attribute="ref">KEY</text><s:alias val="$_inputExt_"/><path d="M0,0 L0,20 L15,20 L30,10 L15,0 Z" class="cell_KEY"/><g s:x="30" s:y="10" s:pid="Y"/></g><g s:type="outputExt" transform="translate(598,83)" s:width="30" s:height="20" id="cell_HEX0"><text x="15" y="-4" class="nodelabel cell_HEX0" s:attribute="ref">HEX0</text><s:alias val="$_outputExt_"/><path d="M30,0 L30,20 L15,20 L0,10 L15,0 Z" class="cell_HEX0"/><g s:x="0" s:y="10" s:pid="A"/></g><g s:type="join" transform="translate(516,72.5)" s:width="4" s:height="40" id="cell_$join$,6,7,8,9,10,11,12,"><rect width="5" height="140" class="splitjoinBody" s:generic="body"/><s:alias val="$_join_"/><g s:x="5" s:y="20" s:pid="out"/><g transform="translate(0,10)" s:x="0" s:y="10" s:pid="in0"><text x="-3" y="-4" class="inputPortLabel">0</text></g><g transform="translate(0,30)" s:x="0" s:y="10" s:pid="in0"><text x="-3" y="-4" class="inputPortLabel">1</text></g><g transform="translate(0,50)" s:x="0" s:y="10" s:pid="in0"><text x="-3" y="-4" class="inputPortLabel">2</text></g><g transform="translate(0,70)" s:x="0" s:y="10" s:pid="in0"><text x="-3" y="-4" class="inputPortLabel">3</text></g><g transform="translate(0,90)" s:x="0" s:y="10" s:pid="in0"><text x="-3" y="-4" class="inputPortLabel">4</text></g><g transform="translate(0,110)" s:x="0" s:y="10" s:pid="in0"><text x="-3" y="-4" class="inputPortLabel">5</text></g><g transform="translate(0,130)" s:x="0" s:y="10" s:pid="in0"><text x="-3" y="-4" class="inputPortLabel">6</text></g></g><g s:type="split" transform="translate(116,337.5)" s:width="5" s:height="40" id="cell_$split$,2,3,4,5,"><rect width="5" height="80" class="splitjoinBody" s:generic="body"/><s:alias val="$_split_"/><g s:x="0" s:y="20" s:pid="in"/><g transform="translate(4,10)" s:x="4" s:y="10" s:pid="out0"><text x="5" y="-4">2</text></g><g transform="translate(4,30)" s:x="4" s:y="10" s:pid="out0"><text x="5" y="-4">1</text></g><g transform="translate(4,50)" s:x="4" s:y="10" s:pid="out0"><text x="5" y="-4">0</text></g><g transform="translate(4,70)" s:x="4" s:y="10" s:pid="out0"><text x="5" y="-4">3</text></g></g><line x1="121" x2="148" y1="348" y2="348" class="net_4 width_1" style="stroke-width: 1"/><line x1="148" x2="148" y1="348" y2="312" class="net_4 width_1" style="stroke-width: 1"/><circle cx="148" cy="348" r="2" style="fill:#000" class="net_4 width_1"/><circle cx="148" cy="312" r="2" style="fill:#000" class="net_4 width_1"/><line x1="148" x2="360" y1="312" y2="312" class="net_4 width_1" style="stroke-width: 1"/><line x1="121" x2="148" y1="348" y2="348" class="net_4 width_1" style="stroke-width: 1"/><line x1="148" x2="148" y1="348" y2="83" class="net_4 width_1" style="stroke-width: 1"/><line x1="148" x2="377.3333333333333" y1="83" y2="83" class="net_4 width_1" style="stroke-width: 1"/><line x1="377.3333333333333" x2="377.3333333333333" y1="83" y2="57" class="net_4 width_1" style="stroke-width: 1"/><line x1="121" x2="286" y1="348" y2="348" class="net_4 width_1" style="stroke-width: 1"/><line x1="121" x2="148" y1="348" y2="348" class="net_4 width_1" style="stroke-width: 1"/><line x1="148" x2="148" y1="348" y2="83" class="net_4 width_1" style="stroke-width: 1"/><line x1="148" x2="274" y1="83" y2="83" class="net_4 width_1" style="stroke-width: 1"/><line x1="274" x2="274" y1="83" y2="143" class="net_4 width_1" style="stroke-width: 1"/><line x1="274" x2="377.3333333333333" y1="143" y2="143" class="net_4 width_1" style="stroke-width: 1"/><circle cx="274" cy="83" r="2" style="fill:#000" class="net_4 width_1"/><line x1="377.3333333333333" x2="377.3333333333333" y1="143" y2="128" class="net_4 width_1" style="stroke-width: 1"/><line x1="121" x2="148" y1="348" y2="348" class="net_4 width_1" style="stroke-width: 1"/><line x1="148" x2="148" y1="348" y2="285" class="net_4 width_1" style="stroke-width: 1"/><line x1="148" x2="377.3333333333333" y1="285" y2="285" class="net_4 width_1" style="stroke-width: 1"/><circle cx="148" cy="285" r="2" style="fill:#000" class="net_4 width_1"/><line x1="377.3333333333333" x2="377.3333333333333" y1="285" y2="256.5" class="net_4 width_1" style="stroke-width: 1"/><line x1="121" x2="254" y1="348" y2="348" class="net_4 width_1" style="stroke-width: 1"/><line x1="254" x2="254" y1="348" y2="445.5" class="net_4 width_1" style="stroke-width: 1"/><line x1="254" x2="377.3333333333333" y1="445.5" y2="445.5" class="net_4 width_1" style="stroke-width: 1"/><circle cx="254" cy="348" r="2" style="fill:#000" class="net_4 width_1"/><line x1="377.3333333333333" x2="377.3333333333333" y1="445.5" y2="430.5" class="net_4 width_1" style="stroke-width: 1"/><line x1="121" x2="148" y1="348" y2="348" class="net_4 width_1" style="stroke-width: 1"/><line x1="148" x2="148" y1="348" y2="546.5" class="net_4 width_1" style="stroke-width: 1"/><circle cx="148" cy="546.5" r="2" style="fill:#000" class="net_4 width_1"/><line x1="148" x2="366" y1="546.5" y2="546.5" class="net_4 width_1" style="stroke-width: 1"/><line x1="121" x2="148" y1="348" y2="348" class="net_4 width_1" style="stroke-width: 1"/><line x1="148" x2="148" y1="348" y2="705" class="net_4 width_1" style="stroke-width: 1"/><line x1="148" x2="377.3333333333333" y1="705" y2="705" class="net_4 width_1" style="stroke-width: 1"/><line x1="377.3333333333333" x2="377.3333333333333" y1="705" y2="690" class="net_4 width_1" style="stroke-width: 1"/><line x1="121" x2="168" y1="368" y2="368" class="net_3 width_1" style="stroke-width: 1"/><line x1="168" x2="168" y1="368" y2="327" class="net_3 width_1" style="stroke-width: 1"/><circle cx="168" cy="368" r="2" style="fill:#000" class="net_3 width_1"/><circle cx="168" cy="327" r="2" style="fill:#000" class="net_3 width_1"/><line x1="168" x2="360" y1="327" y2="327" class="net_3 width_1" style="stroke-width: 1"/><line x1="121" x2="168" y1="368" y2="368" class="net_3 width_1" style="stroke-width: 1"/><line x1="168" x2="168" y1="368" y2="270" class="net_3 width_1" style="stroke-width: 1"/><circle cx="168" cy="270" r="2" style="fill:#000" class="net_3 width_1"/><line x1="168" x2="180" y1="270" y2="270" class="net_3 width_1" style="stroke-width: 1"/><line x1="121" x2="168" y1="368" y2="368" class="net_3 width_1" style="stroke-width: 1"/><line x1="168" x2="168" y1="368" y2="52" class="net_3 width_1" style="stroke-width: 1"/><line x1="168" x2="367.3333333333333" y1="52" y2="52" class="net_3 width_1" style="stroke-width: 1"/><line x1="121" x2="168" y1="368" y2="368" class="net_3 width_1" style="stroke-width: 1"/><line x1="168" x2="168" y1="368" y2="174" class="net_3 width_1" style="stroke-width: 1"/><circle cx="168" cy="174" r="2" style="fill:#000" class="net_3 width_1"/><line x1="168" x2="284" y1="174" y2="174" class="net_3 width_1" style="stroke-width: 1"/><line x1="121" x2="168" y1="368" y2="368" class="net_3 width_1" style="stroke-width: 1"/><line x1="168" x2="168" y1="368" y2="364" class="net_3 width_1" style="stroke-width: 1"/><circle cx="168" cy="364" r="2" style="fill:#000" class="net_3 width_1"/><line x1="168" x2="184" y1="364" y2="364" class="net_3 width_1" style="stroke-width: 1"/><line x1="121" x2="168" y1="368" y2="368" class="net_3 width_1" style="stroke-width: 1"/><line x1="168" x2="168" y1="368" y2="424" class="net_3 width_1" style="stroke-width: 1"/><circle cx="168" cy="424" r="2" style="fill:#000" class="net_3 width_1"/><line x1="168" x2="184" y1="424" y2="424" class="net_3 width_1" style="stroke-width: 1"/><line x1="121" x2="168" y1="368" y2="368" class="net_3 width_1" style="stroke-width: 1"/><line x1="168" x2="168" y1="368" y2="499" class="net_3 width_1" style="stroke-width: 1"/><line x1="168" x2="182" y1="499" y2="499" class="net_3 width_1" style="stroke-width: 1"/><line x1="121" x2="158" y1="388" y2="388" class="net_2 width_1" style="stroke-width: 1"/><line x1="158" x2="158" y1="388" y2="255" class="net_2 width_1" style="stroke-width: 1"/><circle cx="158" cy="388" r="2" style="fill:#000" class="net_2 width_1"/><circle cx="158" cy="255" r="2" style="fill:#000" class="net_2 width_1"/><line x1="158" x2="180" y1="255" y2="255" class="net_2 width_1" style="stroke-width: 1"/><line x1="121" x2="158" y1="388" y2="388" class="net_2 width_1" style="stroke-width: 1"/><line x1="158" x2="158" y1="388" y2="159" class="net_2 width_1" style="stroke-width: 1"/><line x1="158" x2="284" y1="159" y2="159" class="net_2 width_1" style="stroke-width: 1"/><line x1="121" x2="158" y1="388" y2="388" class="net_2 width_1" style="stroke-width: 1"/><line x1="158" x2="158" y1="388" y2="379" class="net_2 width_1" style="stroke-width: 1"/><circle cx="158" cy="379" r="2" style="fill:#000" class="net_2 width_1"/><line x1="158" x2="178" y1="379" y2="379" class="net_2 width_1" style="stroke-width: 1"/><line x1="121" x2="158" y1="388" y2="388" class="net_2 width_1" style="stroke-width: 1"/><line x1="158" x2="158" y1="388" y2="439" class="net_2 width_1" style="stroke-width: 1"/><circle cx="158" cy="439" r="2" style="fill:#000" class="net_2 width_1"/><line x1="158" x2="178" y1="439" y2="439" class="net_2 width_1" style="stroke-width: 1"/><line x1="121" x2="158" y1="388" y2="388" class="net_2 width_1" style="stroke-width: 1"/><line x1="158" x2="158" y1="388" y2="484" class="net_2 width_1" style="stroke-width: 1"/><line x1="158" x2="182" y1="484" y2="484" class="net_2 width_1" style="stroke-width: 1"/><line x1="214" x2="264" y1="262.5" y2="262.5" class="net_14 width_1" style="stroke-width: 1"/><line x1="264" x2="264" y1="262.5" y2="32" class="net_14 width_1" style="stroke-width: 1"/><circle cx="264" cy="262.5" r="2" style="fill:#000" class="net_14 width_1"/><line x1="264" x2="367.3333333333333" y1="32" y2="32" class="net_14 width_1" style="stroke-width: 1"/><line x1="214" x2="264" y1="262.5" y2="262.5" class="net_14 width_1" style="stroke-width: 1"/><line x1="264" x2="264" y1="262.5" y2="103" class="net_14 width_1" style="stroke-width: 1"/><circle cx="264" cy="103" r="2" style="fill:#000" class="net_14 width_1"/><line x1="264" x2="367.3333333333333" y1="103" y2="103" class="net_14 width_1" style="stroke-width: 1"/><line x1="214" x2="290" y1="262.5" y2="262.5" class="net_14 width_1" style="stroke-width: 1"/><line x1="214" x2="264" y1="262.5" y2="262.5" class="net_14 width_1" style="stroke-width: 1"/><line x1="264" x2="264" y1="262.5" y2="413" class="net_14 width_1" style="stroke-width: 1"/><line x1="264" x2="290" y1="413" y2="413" class="net_14 width_1" style="stroke-width: 1"/><line x1="396" x2="426" y1="319.5" y2="319.5" class="net_13 width_1" style="stroke-width: 1"/><line x1="426" x2="426" y1="319.5" y2="22" class="net_13 width_1" style="stroke-width: 1"/><circle cx="426" cy="319.5" r="2" style="fill:#000" class="net_13 width_1"/><line x1="426" x2="446" y1="22" y2="22" class="net_13 width_1" style="stroke-width: 1"/><line x1="396" x2="426" y1="319.5" y2="319.5" class="net_13 width_1" style="stroke-width: 1"/><line x1="426" x2="426" y1="319.5" y2="93" class="net_13 width_1" style="stroke-width: 1"/><circle cx="426" cy="93" r="2" style="fill:#000" class="net_13 width_1"/><line x1="426" x2="446" y1="93" y2="93" class="net_13 width_1" style="stroke-width: 1"/><line x1="396" x2="446" y1="319.5" y2="319.5" class="net_13 width_1" style="stroke-width: 1"/><line x1="396" x2="426" y1="319.5" y2="319.5" class="net_13 width_1" style="stroke-width: 1"/><line x1="426" x2="426" y1="319.5" y2="534" class="net_13 width_1" style="stroke-width: 1"/><circle cx="426" cy="534" r="2" style="fill:#000" class="net_13 width_1"/><line x1="426" x2="446" y1="534" y2="534" class="net_13 width_1" style="stroke-width: 1"/><line x1="396" x2="426" y1="319.5" y2="319.5" class="net_13 width_1" style="stroke-width: 1"/><line x1="426" x2="426" y1="319.5" y2="594" class="net_13 width_1" style="stroke-width: 1"/><circle cx="426" cy="594" r="2" style="fill:#000" class="net_13 width_1"/><line x1="426" x2="446" y1="594" y2="594" class="net_13 width_1" style="stroke-width: 1"/><line x1="396" x2="426" y1="319.5" y2="319.5" class="net_13 width_1" style="stroke-width: 1"/><line x1="426" x2="426" y1="319.5" y2="655" class="net_13 width_1" style="stroke-width: 1"/><line x1="426" x2="446" y1="655" y2="655" class="net_13 width_1" style="stroke-width: 1"/><line x1="387.3333333333333" x2="446" y1="42" y2="42" class="net_15 width_1" style="stroke-width: 1"/><line x1="121" x2="138" y1="408" y2="408" class="net_5 width_1" style="stroke-width: 1"/><line x1="138" x2="138" y1="408" y2="72" class="net_5 width_1" style="stroke-width: 1"/><line x1="138" x2="456" y1="72" y2="72" class="net_5 width_1" style="stroke-width: 1"/><circle cx="138" cy="408" r="2" style="fill:#000" class="net_5 width_1"/><line x1="456" x2="456" y1="72" y2="47" class="net_5 width_1" style="stroke-width: 1"/><line x1="121" x2="138" y1="408" y2="408" class="net_5 width_1" style="stroke-width: 1"/><line x1="138" x2="138" y1="408" y2="72" class="net_5 width_1" style="stroke-width: 1"/><line x1="138" x2="436" y1="72" y2="72" class="net_5 width_1" style="stroke-width: 1"/><line x1="436" x2="436" y1="72" y2="133" class="net_5 width_1" style="stroke-width: 1"/><line x1="436" x2="456" y1="133" y2="133" class="net_5 width_1" style="stroke-width: 1"/><circle cx="436" cy="72" r="2" style="fill:#000" class="net_5 width_1"/><line x1="456" x2="456" y1="133" y2="118" class="net_5 width_1" style="stroke-width: 1"/><line x1="121" x2="138" y1="408" y2="408" class="net_5 width_1" style="stroke-width: 1"/><line x1="138" x2="138" y1="408" y2="296" class="net_5 width_1" style="stroke-width: 1"/><line x1="138" x2="456" y1="296" y2="296" class="net_5 width_1" style="stroke-width: 1"/><circle cx="138" cy="296" r="2" style="fill:#000" class="net_5 width_1"/><line x1="456" x2="456" y1="296" y2="199" class="net_5 width_1" style="stroke-width: 1"/><line x1="121" x2="138" y1="408" y2="408" class="net_5 width_1" style="stroke-width: 1"/><line x1="138" x2="138" y1="408" y2="514" class="net_5 width_1" style="stroke-width: 1"/><line x1="138" x2="456" y1="514" y2="514" class="net_5 width_1" style="stroke-width: 1"/><circle cx="138" cy="514" r="2" style="fill:#000" class="net_5 width_1"/><line x1="456" x2="456" y1="514" y2="344.5" class="net_5 width_1" style="stroke-width: 1"/><line x1="121" x2="138" y1="408" y2="408" class="net_5 width_1" style="stroke-width: 1"/><line x1="138" x2="138" y1="408" y2="644" class="net_5 width_1" style="stroke-width: 1"/><line x1="138" x2="406" y1="644" y2="644" class="net_5 width_1" style="stroke-width: 1"/><line x1="406" x2="406" y1="644" y2="574" class="net_5 width_1" style="stroke-width: 1"/><line x1="406" x2="456" y1="574" y2="574" class="net_5 width_1" style="stroke-width: 1"/><circle cx="138" cy="644" r="2" style="fill:#000" class="net_5 width_1"/><line x1="456" x2="456" y1="574" y2="559" class="net_5 width_1" style="stroke-width: 1"/><line x1="121" x2="138" y1="408" y2="408" class="net_5 width_1" style="stroke-width: 1"/><line x1="138" x2="138" y1="408" y2="716" class="net_5 width_1" style="stroke-width: 1"/><line x1="138" x2="416" y1="716" y2="716" class="net_5 width_1" style="stroke-width: 1"/><line x1="416" x2="416" y1="716" y2="635" class="net_5 width_1" style="stroke-width: 1"/><line x1="416" x2="456" y1="635" y2="635" class="net_5 width_1" style="stroke-width: 1"/><circle cx="416" cy="716" r="2" style="fill:#000" class="net_5 width_1"/><line x1="456" x2="456" y1="635" y2="619" class="net_5 width_1" style="stroke-width: 1"/><line x1="121" x2="138" y1="408" y2="408" class="net_5 width_1" style="stroke-width: 1"/><line x1="138" x2="138" y1="408" y2="716" class="net_5 width_1" style="stroke-width: 1"/><line x1="138" x2="456" y1="716" y2="716" class="net_5 width_1" style="stroke-width: 1"/><line x1="456" x2="456" y1="716" y2="680" class="net_5 width_1" style="stroke-width: 1"/><line x1="320" x2="330" y1="166.5" y2="166.5" class="net_17 width_1" style="stroke-width: 1"/><line x1="330" x2="330" y1="166.5" y2="123" class="net_17 width_1" style="stroke-width: 1"/><circle cx="330" cy="166.5" r="2" style="fill:#000" class="net_17 width_1"/><line x1="330" x2="367.3333333333333" y1="123" y2="123" class="net_17 width_1" style="stroke-width: 1"/><line x1="320" x2="366" y1="166.5" y2="166.5" class="net_17 width_1" style="stroke-width: 1"/><line x1="387.3333333333333" x2="446" y1="113" y2="113" class="net_18 width_1" style="stroke-width: 1"/><line x1="314" x2="340" y1="348" y2="348" class="net_16 width_1" style="stroke-width: 1"/><line x1="340" x2="340" y1="348" y2="181.5" class="net_16 width_1" style="stroke-width: 1"/><circle cx="340" cy="348" r="2" style="fill:#000" class="net_16 width_1"/><line x1="340" x2="366" y1="181.5" y2="181.5" class="net_16 width_1" style="stroke-width: 1"/><line x1="314" x2="340" y1="348" y2="348" class="net_16 width_1" style="stroke-width: 1"/><line x1="340" x2="340" y1="348" y2="606.5" class="net_16 width_1" style="stroke-width: 1"/><line x1="340" x2="366" y1="606.5" y2="606.5" class="net_16 width_1" style="stroke-width: 1"/><line x1="214" x2="224" y1="431.5" y2="431.5" class="net_21 width_1" style="stroke-width: 1"/><line x1="224" x2="224" y1="431.5" y2="247.5" class="net_21 width_1" style="stroke-width: 1"/><circle cx="224" cy="431.5" r="2" style="fill:#000" class="net_21 width_1"/><line x1="224" x2="290" y1="247.5" y2="247.5" class="net_21 width_1" style="stroke-width: 1"/><line x1="214" x2="224" y1="431.5" y2="431.5" class="net_21 width_1" style="stroke-width: 1"/><line x1="224" x2="224" y1="431.5" y2="428" class="net_21 width_1" style="stroke-width: 1"/><line x1="224" x2="330" y1="428" y2="428" class="net_21 width_1" style="stroke-width: 1"/><line x1="330" x2="330" y1="428" y2="425.5" class="net_21 width_1" style="stroke-width: 1"/><circle cx="224" cy="428" r="2" style="fill:#000" class="net_21 width_1"/><line x1="330" x2="367.3333333333333" y1="425.5" y2="425.5" class="net_21 width_1" style="stroke-width: 1"/><line x1="214" x2="224" y1="431.5" y2="431.5" class="net_21 width_1" style="stroke-width: 1"/><line x1="224" x2="224" y1="431.5" y2="629" class="net_21 width_1" style="stroke-width: 1"/><circle cx="224" cy="629" r="2" style="fill:#000" class="net_21 width_1"/><line x1="224" x2="284" y1="629" y2="629" class="net_21 width_1" style="stroke-width: 1"/><line x1="214" x2="224" y1="431.5" y2="431.5" class="net_21 width_1" style="stroke-width: 1"/><line x1="224" x2="224" y1="431.5" y2="685" class="net_21 width_1" style="stroke-width: 1"/><line x1="224" x2="367.3333333333333" y1="685" y2="685" class="net_21 width_1" style="stroke-width: 1"/><line x1="212" x2="244" y1="371.5" y2="371.5" class="net_20 width_1" style="stroke-width: 1"/><line x1="244" x2="244" y1="371.5" y2="231.5" class="net_20 width_1" style="stroke-width: 1"/><circle cx="244" cy="371.5" r="2" style="fill:#000" class="net_20 width_1"/><line x1="244" x2="367.3333333333333" y1="231.5" y2="231.5" class="net_20 width_1" style="stroke-width: 1"/><line x1="212" x2="244" y1="371.5" y2="371.5" class="net_20 width_1" style="stroke-width: 1"/><line x1="244" x2="244" y1="371.5" y2="561.5" class="net_20 width_1" style="stroke-width: 1"/><circle cx="244" cy="561.5" r="2" style="fill:#000" class="net_20 width_1"/><line x1="244" x2="360" y1="561.5" y2="561.5" class="net_20 width_1" style="stroke-width: 1"/><line x1="212" x2="244" y1="371.5" y2="371.5" class="net_20 width_1" style="stroke-width: 1"/><line x1="244" x2="244" y1="371.5" y2="614" class="net_20 width_1" style="stroke-width: 1"/><line x1="244" x2="290" y1="614" y2="614" class="net_20 width_1" style="stroke-width: 1"/><line x1="318" x2="350" y1="255" y2="255" class="net_22 width_1" style="stroke-width: 1"/><line x1="350" x2="350" y1="255" y2="251.5" class="net_22 width_1" style="stroke-width: 1"/><line x1="350" x2="367.3333333333333" y1="251.5" y2="251.5" class="net_22 width_1" style="stroke-width: 1"/><line x1="394" x2="446" y1="174" y2="174" class="net_19 width_1" style="stroke-width: 1"/><line x1="387.3333333333333" x2="436" y1="241.5" y2="241.5" class="net_23 width_1" style="stroke-width: 1"/><line x1="436" x2="436" y1="241.5" y2="194" class="net_23 width_1" style="stroke-width: 1"/><line x1="436" x2="446" y1="194" y2="194" class="net_23 width_1" style="stroke-width: 1"/><line x1="212" x2="234" y1="491.5" y2="491.5" class="net_24 width_1" style="stroke-width: 1"/><line x1="234" x2="234" y1="491.5" y2="398" class="net_24 width_1" style="stroke-width: 1"/><circle cx="234" cy="491.5" r="2" style="fill:#000" class="net_24 width_1"/><line x1="234" x2="290" y1="398" y2="398" class="net_24 width_1" style="stroke-width: 1"/><line x1="212" x2="234" y1="491.5" y2="491.5" class="net_24 width_1" style="stroke-width: 1"/><line x1="234" x2="234" y1="491.5" y2="665" class="net_24 width_1" style="stroke-width: 1"/><line x1="234" x2="367.3333333333333" y1="665" y2="665" class="net_24 width_1" style="stroke-width: 1"/><line x1="318" x2="367.3333333333333" y1="405.5" y2="405.5" class="net_25 width_1" style="stroke-width: 1"/><line x1="387.3333333333333" x2="406" y1="415.5" y2="415.5" class="net_26 width_1" style="stroke-width: 1"/><line x1="406" x2="406" y1="415.5" y2="339.5" class="net_26 width_1" style="stroke-width: 1"/><line x1="406" x2="446" y1="339.5" y2="339.5" class="net_26 width_1" style="stroke-width: 1"/><line x1="396" x2="446" y1="554" y2="554" class="net_27 width_1" style="stroke-width: 1"/><line x1="320" x2="360" y1="621.5" y2="621.5" class="net_28 width_1" style="stroke-width: 1"/><line x1="396" x2="446" y1="614" y2="614" class="net_29 width_1" style="stroke-width: 1"/><line x1="387.3333333333333" x2="446" y1="675" y2="675" class="net_30 width_1" style="stroke-width: 1"/><line x1="522" x2="598" y1="93" y2="93" class="net_6,7,8,9,10,11,12 width_7" style="stroke-width: 2"/><line x1="466" x2="516.5" y1="32" y2="32" class="net_6 width_1" style="stroke-width: 1"/><line x1="516.5" x2="516.5" y1="32" y2="82.5" class="net_6 width_1" style="stroke-width: 1"/><line x1="466" x2="516" y1="103" y2="103" class="net_7 width_1" style="stroke-width: 1"/><line x1="466" x2="476" y1="184" y2="184" class="net_8 width_1" style="stroke-width: 1"/><line x1="476" x2="476" y1="184" y2="123" class="net_8 width_1" style="stroke-width: 1"/><line x1="476" x2="516" y1="123" y2="123" class="net_8 width_1" style="stroke-width: 1"/><line x1="466" x2="486" y1="329.5" y2="329.5" class="net_9 width_1" style="stroke-width: 1"/><line x1="486" x2="486" y1="329.5" y2="143" class="net_9 width_1" style="stroke-width: 1"/><line x1="486" x2="516" y1="143" y2="143" class="net_9 width_1" style="stroke-width: 1"/><line x1="466" x2="496" y1="544" y2="544" class="net_10 width_1" style="stroke-width: 1"/><line x1="496" x2="496" y1="544" y2="163" class="net_10 width_1" style="stroke-width: 1"/><line x1="496" x2="516" y1="163" y2="163" class="net_10 width_1" style="stroke-width: 1"/><line x1="466" x2="506" y1="604" y2="604" class="net_11 width_1" style="stroke-width: 1"/><line x1="506" x2="506" y1="604" y2="183" class="net_11 width_1" style="stroke-width: 1"/><line x1="506" x2="516" y1="183" y2="183" class="net_11 width_1" style="stroke-width: 1"/><line x1="466" x2="516.5" y1="665" y2="665" class="net_12 width_1" style="stroke-width: 1"/><line x1="516.5" x2="516.5" y1="665" y2="203.5" class="net_12 width_1" style="stroke-width: 1"/><line x1="42" x2="116" y1="358" y2="358" class="net_2,3,4,5 width_4" style="stroke-width: 2"/><rect x="560" y="88" width="16" height="9" class="net_6,7,8,9,10,11,12 width_7 busLabel_7" style="fill: white; stroke: none"/><text x="559" y="96" class="net_6,7,8,9,10,11,12 width_7 busLabel_7">/7/</text><rect x="78" y="353" width="16" height="9" class="net_2,3,4,5 width_4 busLabel_4" style="fill: white; stroke: none"/><text x="77" y="361" class="net_2,3,4,5 width_4 busLabel_4">/4/</text></svg>