<?xml version="1.0" encoding="UTF-8" standalone="no"?>
<!DOCTYPE svg PUBLIC "-//W3C//DTD SVG 1.1//EN"
 "http://www.w3.org/Graphics/SVG/1.1/DTD/svg11.dtd">
<!-- Generated by graphviz version 12.2.1 (0)
 -->
<!-- Title: swxor Pages: 1 -->
<svg width="570pt" height="1005pt"
 viewBox="0.00 0.00 570.18 1005.25" xmlns="http://www.w3.org/2000/svg" xmlns:xlink="http://www.w3.org/1999/xlink">
<g id="graph0" class="graph" transform="scale(1 1) rotate(0) translate(4 1001.25)">
<title>swxor</title>
<polygon fill="white" stroke="none" points="-4,4 -4,-1001.25 566.18,-1001.25 566.18,4 -4,4"/>
<text text-anchor="middle" x="281.09" y="-7.95" font-family="Times,serif" font-size="14.00">swxor</text>
<!-- n1 -->
<g id="node1" class="node">
<title>n1</title>
<polygon fill="none" stroke="black" points="562.18,-442.29 562.18,-457.21 536.72,-467.75 500.71,-467.75 475.24,-457.21 475.24,-442.29 500.71,-431.75 536.72,-431.75 562.18,-442.29"/>
<text text-anchor="middle" x="518.71" y="-445.07" font-family="Times,serif" font-size="14.00">LEDR</text>
</g>
<!-- n2 -->
<g id="node2" class="node">
<title>n2</title>
<polygon fill="none" stroke="black" points="60.74,-503.29 60.74,-518.21 42.95,-528.75 17.79,-528.75 0,-518.21 0,-503.29 17.79,-492.75 42.95,-492.75 60.74,-503.29"/>
<text text-anchor="middle" x="30.37" y="-506.07" font-family="Times,serif" font-size="14.00">SW</text>
</g>
<!-- x0 -->
<g id="node4" class="node">
<title>x0</title>
<path fill="none" stroke="black" d="M108.74,-960.75C108.74,-960.75 159.24,-960.75 159.24,-960.75 165.24,-960.75 171.24,-966.75 171.24,-972.75 171.24,-972.75 171.24,-984.75 171.24,-984.75 171.24,-990.75 165.24,-996.75 159.24,-996.75 159.24,-996.75 108.74,-996.75 108.74,-996.75 102.74,-996.75 96.74,-990.75 96.74,-984.75 96.74,-984.75 96.74,-972.75 96.74,-972.75 96.74,-966.75 102.74,-960.75 108.74,-960.75"/>
<text text-anchor="middle" x="133.99" y="-974.45" font-family="Times,serif" font-size="14.00">5:5 &#45; 0:0</text>
</g>
<!-- n2&#45;&gt;x0 -->
<g id="edge38" class="edge">
<title>n2:e&#45;&gt;x0:w</title>
<path fill="none" stroke="black" d="M60.74,-510.75C161.05,-510.75 5.43,-943.25 85.74,-977.04"/>
<polygon fill="black" stroke="black" points="84.78,-980.42 95.26,-978.84 86.08,-973.54 84.78,-980.42"/>
</g>
<!-- x1 -->
<g id="node5" class="node">
<title>x1</title>
<path fill="none" stroke="black" d="M108.74,-905.75C108.74,-905.75 159.24,-905.75 159.24,-905.75 165.24,-905.75 171.24,-911.75 171.24,-917.75 171.24,-917.75 171.24,-929.75 171.24,-929.75 171.24,-935.75 165.24,-941.75 159.24,-941.75 159.24,-941.75 108.74,-941.75 108.74,-941.75 102.74,-941.75 96.74,-935.75 96.74,-929.75 96.74,-929.75 96.74,-917.75 96.74,-917.75 96.74,-911.75 102.74,-905.75 108.74,-905.75"/>
<text text-anchor="middle" x="133.99" y="-919.45" font-family="Times,serif" font-size="14.00">6:6 &#45; 0:0</text>
</g>
<!-- n2&#45;&gt;x1 -->
<g id="edge46" class="edge">
<title>n2:e&#45;&gt;x1:w</title>
<path fill="none" stroke="black" d="M60.74,-510.75C148.81,-510.75 17.38,-887.82 85.73,-921.7"/>
<polygon fill="black" stroke="black" points="84.75,-925.06 95.26,-923.8 86.25,-918.23 84.75,-925.06"/>
</g>
<!-- x3 -->
<g id="node8" class="node">
<title>x3</title>
<path fill="none" stroke="black" d="M108.74,-850.75C108.74,-850.75 159.24,-850.75 159.24,-850.75 165.24,-850.75 171.24,-856.75 171.24,-862.75 171.24,-862.75 171.24,-874.75 171.24,-874.75 171.24,-880.75 165.24,-886.75 159.24,-886.75 159.24,-886.75 108.74,-886.75 108.74,-886.75 102.74,-886.75 96.74,-880.75 96.74,-874.75 96.74,-874.75 96.74,-862.75 96.74,-862.75 96.74,-856.75 102.74,-850.75 108.74,-850.75"/>
<text text-anchor="middle" x="133.99" y="-864.45" font-family="Times,serif" font-size="14.00">4:4 &#45; 0:0</text>
</g>
<!-- n2&#45;&gt;x3 -->
<g id="edge51" class="edge">
<title>n2:e&#45;&gt;x3:w</title>
<path fill="none" stroke="black" d="M60.74,-510.75C136.56,-510.75 29.22,-832.32 85.72,-866.24"/>
<polygon fill="black" stroke="black" points="84.72,-869.6 95.28,-868.74 86.49,-862.82 84.72,-869.6"/>
</g>
<!-- x4 -->
<g id="node9" class="node">
<title>x4</title>
<path fill="none" stroke="black" d="M108.74,-795.75C108.74,-795.75 159.24,-795.75 159.24,-795.75 165.24,-795.75 171.24,-801.75 171.24,-807.75 171.24,-807.75 171.24,-819.75 171.24,-819.75 171.24,-825.75 165.24,-831.75 159.24,-831.75 159.24,-831.75 108.74,-831.75 108.74,-831.75 102.74,-831.75 96.74,-825.75 96.74,-819.75 96.74,-819.75 96.74,-807.75 96.74,-807.75 96.74,-801.75 102.74,-795.75 108.74,-795.75"/>
<text text-anchor="middle" x="133.99" y="-809.45" font-family="Times,serif" font-size="14.00">5:5 &#45; 0:0</text>
</g>
<!-- n2&#45;&gt;x4 -->
<g id="edge52" class="edge">
<title>n2:e&#45;&gt;x4:w</title>
<path fill="none" stroke="black" d="M60.74,-510.75C124.39,-510.75 40.67,-777.39 85.9,-810.72"/>
<polygon fill="black" stroke="black" points="84.71,-814.01 95.3,-813.67 86.81,-807.34 84.71,-814.01"/>
</g>
<!-- x6 -->
<g id="node12" class="node">
<title>x6</title>
<path fill="none" stroke="black" d="M108.74,-740.75C108.74,-740.75 159.24,-740.75 159.24,-740.75 165.24,-740.75 171.24,-746.75 171.24,-752.75 171.24,-752.75 171.24,-764.75 171.24,-764.75 171.24,-770.75 165.24,-776.75 159.24,-776.75 159.24,-776.75 108.74,-776.75 108.74,-776.75 102.74,-776.75 96.74,-770.75 96.74,-764.75 96.74,-764.75 96.74,-752.75 96.74,-752.75 96.74,-746.75 102.74,-740.75 108.74,-740.75"/>
<text text-anchor="middle" x="133.99" y="-754.45" font-family="Times,serif" font-size="14.00">3:3 &#45; 0:0</text>
</g>
<!-- n2&#45;&gt;x6 -->
<g id="edge53" class="edge">
<title>n2:e&#45;&gt;x6:w</title>
<path fill="none" stroke="black" d="M60.74,-510.75C112.37,-510.75 51.46,-723.62 86.39,-755.22"/>
<polygon fill="black" stroke="black" points="84.73,-758.34 95.33,-758.59 87.2,-751.79 84.73,-758.34"/>
</g>
<!-- x7 -->
<g id="node13" class="node">
<title>x7</title>
<path fill="none" stroke="black" d="M108.74,-685.75C108.74,-685.75 159.24,-685.75 159.24,-685.75 165.24,-685.75 171.24,-691.75 171.24,-697.75 171.24,-697.75 171.24,-709.75 171.24,-709.75 171.24,-715.75 165.24,-721.75 159.24,-721.75 159.24,-721.75 108.74,-721.75 108.74,-721.75 102.74,-721.75 96.74,-715.75 96.74,-709.75 96.74,-709.75 96.74,-697.75 96.74,-697.75 96.74,-691.75 102.74,-685.75 108.74,-685.75"/>
<text text-anchor="middle" x="133.99" y="-699.45" font-family="Times,serif" font-size="14.00">4:4 &#45; 0:0</text>
</g>
<!-- n2&#45;&gt;x7 -->
<g id="edge54" class="edge">
<title>n2:e&#45;&gt;x7:w</title>
<path fill="none" stroke="black" d="M60.74,-510.75C143.89,-510.75 22.34,-685.7 85.5,-702.79"/>
<polygon fill="black" stroke="black" points="84.9,-706.24 95.24,-703.95 85.72,-699.29 84.9,-706.24"/>
</g>
<!-- x9 -->
<g id="node16" class="node">
<title>x9</title>
<path fill="none" stroke="black" d="M108.74,-630.75C108.74,-630.75 159.24,-630.75 159.24,-630.75 165.24,-630.75 171.24,-636.75 171.24,-642.75 171.24,-642.75 171.24,-654.75 171.24,-654.75 171.24,-660.75 165.24,-666.75 159.24,-666.75 159.24,-666.75 108.74,-666.75 108.74,-666.75 102.74,-666.75 96.74,-660.75 96.74,-654.75 96.74,-654.75 96.74,-642.75 96.74,-642.75 96.74,-636.75 102.74,-630.75 108.74,-630.75"/>
<text text-anchor="middle" x="133.99" y="-644.45" font-family="Times,serif" font-size="14.00">2:2 &#45; 0:0</text>
</g>
<!-- n2&#45;&gt;x9 -->
<g id="edge55" class="edge">
<title>n2:e&#45;&gt;x9:w</title>
<path fill="none" stroke="black" d="M60.74,-510.75C119.82,-510.75 45.24,-630.35 85.52,-647.17"/>
<polygon fill="black" stroke="black" points="84.8,-650.6 95.25,-648.87 86,-643.7 84.8,-650.6"/>
</g>
<!-- x10 -->
<g id="node17" class="node">
<title>x10</title>
<path fill="none" stroke="black" d="M108.74,-575.75C108.74,-575.75 159.24,-575.75 159.24,-575.75 165.24,-575.75 171.24,-581.75 171.24,-587.75 171.24,-587.75 171.24,-599.75 171.24,-599.75 171.24,-605.75 165.24,-611.75 159.24,-611.75 159.24,-611.75 108.74,-611.75 108.74,-611.75 102.74,-611.75 96.74,-605.75 96.74,-599.75 96.74,-599.75 96.74,-587.75 96.74,-587.75 96.74,-581.75 102.74,-575.75 108.74,-575.75"/>
<text text-anchor="middle" x="133.99" y="-589.45" font-family="Times,serif" font-size="14.00">3:3 &#45; 0:0</text>
</g>
<!-- n2&#45;&gt;x10 -->
<g id="edge39" class="edge">
<title>n2:e&#45;&gt;x10:w</title>
<path fill="none" stroke="black" d="M60.74,-510.75C96.37,-510.75 65.69,-575.73 85.78,-590.96"/>
<polygon fill="black" stroke="black" points="84.71,-594.29 95.29,-593.7 86.65,-587.57 84.71,-594.29"/>
</g>
<!-- x12 -->
<g id="node20" class="node">
<title>x12</title>
<path fill="none" stroke="black" d="M108.74,-520.75C108.74,-520.75 159.24,-520.75 159.24,-520.75 165.24,-520.75 171.24,-526.75 171.24,-532.75 171.24,-532.75 171.24,-544.75 171.24,-544.75 171.24,-550.75 165.24,-556.75 159.24,-556.75 159.24,-556.75 108.74,-556.75 108.74,-556.75 102.74,-556.75 96.74,-550.75 96.74,-544.75 96.74,-544.75 96.74,-532.75 96.74,-532.75 96.74,-526.75 102.74,-520.75 108.74,-520.75"/>
<text text-anchor="middle" x="133.99" y="-534.45" font-family="Times,serif" font-size="14.00">1:1 &#45; 0:0</text>
</g>
<!-- n2&#45;&gt;x12 -->
<g id="edge40" class="edge">
<title>n2:e&#45;&gt;x12:w</title>
<path fill="none" stroke="black" d="M60.74,-510.75C76.5,-510.75 77.23,-527.72 86.18,-535.42"/>
<polygon fill="black" stroke="black" points="84.72,-538.61 95.31,-538.62 87.04,-532.01 84.72,-538.61"/>
</g>
<!-- x13 -->
<g id="node21" class="node">
<title>x13</title>
<path fill="none" stroke="black" d="M108.74,-465.75C108.74,-465.75 159.24,-465.75 159.24,-465.75 165.24,-465.75 171.24,-471.75 171.24,-477.75 171.24,-477.75 171.24,-489.75 171.24,-489.75 171.24,-495.75 165.24,-501.75 159.24,-501.75 159.24,-501.75 108.74,-501.75 108.74,-501.75 102.74,-501.75 96.74,-495.75 96.74,-489.75 96.74,-489.75 96.74,-477.75 96.74,-477.75 96.74,-471.75 102.74,-465.75 108.74,-465.75"/>
<text text-anchor="middle" x="133.99" y="-479.45" font-family="Times,serif" font-size="14.00">2:2 &#45; 0:0</text>
</g>
<!-- n2&#45;&gt;x13 -->
<g id="edge41" class="edge">
<title>n2:e&#45;&gt;x13:w</title>
<path fill="none" stroke="black" d="M60.74,-510.75C75.98,-510.75 77.32,-495.14 86.05,-487.83"/>
<polygon fill="black" stroke="black" points="87.01,-491.2 95.31,-484.62 84.72,-484.58 87.01,-491.2"/>
</g>
<!-- x15 -->
<g id="node24" class="node">
<title>x15</title>
<path fill="none" stroke="black" d="M108.74,-410.75C108.74,-410.75 159.24,-410.75 159.24,-410.75 165.24,-410.75 171.24,-416.75 171.24,-422.75 171.24,-422.75 171.24,-434.75 171.24,-434.75 171.24,-440.75 165.24,-446.75 159.24,-446.75 159.24,-446.75 108.74,-446.75 108.74,-446.75 102.74,-446.75 96.74,-440.75 96.74,-434.75 96.74,-434.75 96.74,-422.75 96.74,-422.75 96.74,-416.75 102.74,-410.75 108.74,-410.75"/>
<text text-anchor="middle" x="133.99" y="-424.45" font-family="Times,serif" font-size="14.00">0:0 &#45; 0:0</text>
</g>
<!-- n2&#45;&gt;x15 -->
<g id="edge42" class="edge">
<title>n2:e&#45;&gt;x15:w</title>
<path fill="none" stroke="black" d="M60.74,-510.75C95.75,-510.75 66.1,-447.13 85.95,-432.23"/>
<polygon fill="black" stroke="black" points="86.64,-435.67 95.29,-429.54 84.71,-428.94 86.64,-435.67"/>
</g>
<!-- x16 -->
<g id="node25" class="node">
<title>x16</title>
<path fill="none" stroke="black" d="M108.74,-355.75C108.74,-355.75 159.24,-355.75 159.24,-355.75 165.24,-355.75 171.24,-361.75 171.24,-367.75 171.24,-367.75 171.24,-379.75 171.24,-379.75 171.24,-385.75 165.24,-391.75 159.24,-391.75 159.24,-391.75 108.74,-391.75 108.74,-391.75 102.74,-391.75 96.74,-385.75 96.74,-379.75 96.74,-379.75 96.74,-367.75 96.74,-367.75 96.74,-361.75 102.74,-355.75 108.74,-355.75"/>
<text text-anchor="middle" x="133.99" y="-369.45" font-family="Times,serif" font-size="14.00">1:1 &#45; 0:0</text>
</g>
<!-- n2&#45;&gt;x16 -->
<g id="edge43" class="edge">
<title>n2:e&#45;&gt;x16:w</title>
<path fill="none" stroke="black" d="M60.74,-510.75C119.12,-510.75 45.79,-392.66 85.65,-376.06"/>
<polygon fill="black" stroke="black" points="86,-379.55 95.25,-374.38 84.8,-372.65 86,-379.55"/>
</g>
<!-- x18 -->
<g id="node28" class="node">
<title>x18</title>
<path fill="none" stroke="black" d="M108.74,-300.75C108.74,-300.75 159.24,-300.75 159.24,-300.75 165.24,-300.75 171.24,-306.75 171.24,-312.75 171.24,-312.75 171.24,-324.75 171.24,-324.75 171.24,-330.75 165.24,-336.75 159.24,-336.75 159.24,-336.75 108.74,-336.75 108.74,-336.75 102.74,-336.75 96.74,-330.75 96.74,-324.75 96.74,-324.75 96.74,-312.75 96.74,-312.75 96.74,-306.75 102.74,-300.75 108.74,-300.75"/>
<text text-anchor="middle" x="133.99" y="-314.45" font-family="Times,serif" font-size="14.00">8:8 &#45; 0:0</text>
</g>
<!-- n2&#45;&gt;x18 -->
<g id="edge44" class="edge">
<title>n2:e&#45;&gt;x18:w</title>
<path fill="none" stroke="black" d="M60.74,-510.75C143.17,-510.75 22.96,-337.38 85.6,-320.45"/>
<polygon fill="black" stroke="black" points="85.72,-323.96 95.24,-319.3 84.9,-317.01 85.72,-323.96"/>
</g>
<!-- x19 -->
<g id="node29" class="node">
<title>x19</title>
<path fill="none" stroke="black" d="M108.74,-245.75C108.74,-245.75 159.24,-245.75 159.24,-245.75 165.24,-245.75 171.24,-251.75 171.24,-257.75 171.24,-257.75 171.24,-269.75 171.24,-269.75 171.24,-275.75 165.24,-281.75 159.24,-281.75 159.24,-281.75 108.74,-281.75 108.74,-281.75 102.74,-281.75 96.74,-275.75 96.74,-269.75 96.74,-269.75 96.74,-257.75 96.74,-257.75 96.74,-251.75 102.74,-245.75 108.74,-245.75"/>
<text text-anchor="middle" x="133.99" y="-259.45" font-family="Times,serif" font-size="14.00">9:9 &#45; 0:0</text>
</g>
<!-- n2&#45;&gt;x19 -->
<g id="edge45" class="edge">
<title>n2:e&#45;&gt;x19:w</title>
<path fill="none" stroke="black" d="M60.74,-510.75C112.02,-510.75 51.74,-299.37 86.45,-268"/>
<polygon fill="black" stroke="black" points="87.2,-271.46 95.33,-264.66 84.73,-264.91 87.2,-271.46"/>
</g>
<!-- x21 -->
<g id="node32" class="node">
<title>x21</title>
<path fill="none" stroke="black" d="M108.74,-190.75C108.74,-190.75 159.24,-190.75 159.24,-190.75 165.24,-190.75 171.24,-196.75 171.24,-202.75 171.24,-202.75 171.24,-214.75 171.24,-214.75 171.24,-220.75 165.24,-226.75 159.24,-226.75 159.24,-226.75 108.74,-226.75 108.74,-226.75 102.74,-226.75 96.74,-220.75 96.74,-214.75 96.74,-214.75 96.74,-202.75 96.74,-202.75 96.74,-196.75 102.74,-190.75 108.74,-190.75"/>
<text text-anchor="middle" x="133.99" y="-204.45" font-family="Times,serif" font-size="14.00">7:7 &#45; 0:0</text>
</g>
<!-- n2&#45;&gt;x21 -->
<g id="edge47" class="edge">
<title>n2:e&#45;&gt;x21:w</title>
<path fill="none" stroke="black" d="M60.74,-510.75C124.03,-510.75 40.96,-245.65 85.96,-212.51"/>
<polygon fill="black" stroke="black" points="86.81,-215.91 95.3,-209.58 84.71,-209.24 86.81,-215.91"/>
</g>
<!-- x22 -->
<g id="node33" class="node">
<title>x22</title>
<path fill="none" stroke="black" d="M108.74,-135.75C108.74,-135.75 159.24,-135.75 159.24,-135.75 165.24,-135.75 171.24,-141.75 171.24,-147.75 171.24,-147.75 171.24,-159.75 171.24,-159.75 171.24,-165.75 165.24,-171.75 159.24,-171.75 159.24,-171.75 108.74,-171.75 108.74,-171.75 102.74,-171.75 96.74,-165.75 96.74,-159.75 96.74,-159.75 96.74,-147.75 96.74,-147.75 96.74,-141.75 102.74,-135.75 108.74,-135.75"/>
<text text-anchor="middle" x="133.99" y="-149.45" font-family="Times,serif" font-size="14.00">8:8 &#45; 0:0</text>
</g>
<!-- n2&#45;&gt;x22 -->
<g id="edge48" class="edge">
<title>n2:e&#45;&gt;x22:w</title>
<path fill="none" stroke="black" d="M60.74,-510.75C136.19,-510.75 29.53,-190.75 85.77,-157"/>
<polygon fill="black" stroke="black" points="86.49,-160.43 95.28,-154.51 84.72,-153.65 86.49,-160.43"/>
</g>
<!-- x24 -->
<g id="node36" class="node">
<title>x24</title>
<path fill="none" stroke="black" d="M108.74,-80.75C108.74,-80.75 159.24,-80.75 159.24,-80.75 165.24,-80.75 171.24,-86.75 171.24,-92.75 171.24,-92.75 171.24,-104.75 171.24,-104.75 171.24,-110.75 165.24,-116.75 159.24,-116.75 159.24,-116.75 108.74,-116.75 108.74,-116.75 102.74,-116.75 96.74,-110.75 96.74,-104.75 96.74,-104.75 96.74,-92.75 96.74,-92.75 96.74,-86.75 102.74,-80.75 108.74,-80.75"/>
<text text-anchor="middle" x="133.99" y="-94.45" font-family="Times,serif" font-size="14.00">6:6 &#45; 0:0</text>
</g>
<!-- n2&#45;&gt;x24 -->
<g id="edge49" class="edge">
<title>n2:e&#45;&gt;x24:w</title>
<path fill="none" stroke="black" d="M60.74,-510.75C148.44,-510.75 17.7,-135.28 85.77,-101.54"/>
<polygon fill="black" stroke="black" points="86.25,-105.02 95.26,-99.45 84.75,-98.19 86.25,-105.02"/>
</g>
<!-- x25 -->
<g id="node37" class="node">
<title>x25</title>
<path fill="none" stroke="black" d="M108.74,-25.75C108.74,-25.75 159.24,-25.75 159.24,-25.75 165.24,-25.75 171.24,-31.75 171.24,-37.75 171.24,-37.75 171.24,-49.75 171.24,-49.75 171.24,-55.75 165.24,-61.75 159.24,-61.75 159.24,-61.75 108.74,-61.75 108.74,-61.75 102.74,-61.75 96.74,-55.75 96.74,-49.75 96.74,-49.75 96.74,-37.75 96.74,-37.75 96.74,-31.75 102.74,-25.75 108.74,-25.75"/>
<text text-anchor="middle" x="133.99" y="-39.45" font-family="Times,serif" font-size="14.00">7:7 &#45; 0:0</text>
</g>
<!-- n2&#45;&gt;x25 -->
<g id="edge50" class="edge">
<title>n2:e&#45;&gt;x25:w</title>
<path fill="none" stroke="black" d="M60.74,-510.75C160.68,-510.75 5.76,-79.87 85.78,-46.21"/>
<polygon fill="black" stroke="black" points="86.08,-49.71 95.26,-44.41 84.78,-42.83 86.08,-49.71"/>
</g>
<!-- c6 -->
<g id="node3" class="node">
<title>c6</title>
<polygon fill="none" stroke="black" points="207.24,-910.5 207.24,-961 328.74,-961 328.74,-910.5 207.24,-910.5"/>
<text text-anchor="middle" x="220.49" y="-943.7" font-family="Times,serif" font-size="14.00">A</text>
<polyline fill="none" stroke="black" points="207.24,-935.75 233.74,-935.75"/>
<text text-anchor="middle" x="220.49" y="-918.45" font-family="Times,serif" font-size="14.00">B</text>
<polyline fill="none" stroke="black" points="233.74,-910.5 233.74,-961"/>
<text text-anchor="middle" x="268.74" y="-939.7" font-family="Times,serif" font-size="14.00">$100</text>
<text text-anchor="middle" x="268.74" y="-922.45" font-family="Times,serif" font-size="14.00">$_XOR_</text>
<polyline fill="none" stroke="black" points="303.74,-910.5 303.74,-961"/>
<text text-anchor="middle" x="316.24" y="-931.2" font-family="Times,serif" font-size="14.00">Y</text>
</g>
<!-- x2 -->
<g id="node6" class="node">
<title>x2</title>
<path fill="none" stroke="black" d="M376.74,-870.75C376.74,-870.75 427.24,-870.75 427.24,-870.75 433.24,-870.75 439.24,-876.75 439.24,-882.75 439.24,-882.75 439.24,-894.75 439.24,-894.75 439.24,-900.75 433.24,-906.75 427.24,-906.75 427.24,-906.75 376.74,-906.75 376.74,-906.75 370.74,-906.75 364.74,-900.75 364.74,-894.75 364.74,-894.75 364.74,-882.75 364.74,-882.75 364.74,-876.75 370.74,-870.75 376.74,-870.75"/>
<text text-anchor="middle" x="401.99" y="-884.45" font-family="Times,serif" font-size="14.00">0:0 &#45; 6:6</text>
</g>
<!-- c6&#45;&gt;x2 -->
<g id="edge3" class="edge">
<title>c6:e&#45;&gt;x2:w</title>
<path fill="none" stroke="black" d="M340.48,-930.47C347.45,-921.38 346.05,-903.14 353.05,-894.09"/>
<polygon fill="none" stroke="black" points="340.46,-930.48 336.68,-936.62 329.56,-935.5 333.34,-929.35 340.46,-930.48"/>
<polygon fill="none" stroke="black" points="353.01,-894.11 356.8,-887.98 363.92,-889.12 360.13,-895.26 353.01,-894.11"/>
</g>
<!-- x0&#45;&gt;c6 -->
<g id="edge1" class="edge">
<title>x0:e&#45;&gt;c6:w</title>
<path fill="none" stroke="black" d="M183.01,-973.73C188.21,-968.07 190.33,-958.92 195.56,-953.3"/>
<polygon fill="none" stroke="black" points="183.11,-973.69 179.16,-979.72 172.07,-978.4 176.02,-972.36 183.11,-973.69"/>
<polygon fill="none" stroke="black" points="195.35,-953.39 199.33,-947.37 206.41,-948.73 202.44,-954.74 195.35,-953.39"/>
</g>
<!-- x1&#45;&gt;c6 -->
<g id="edge2" class="edge">
<title>x1:e&#45;&gt;c6:w</title>
<path fill="none" stroke="black" d="M183.96,-923.59C187.56,-923.5 190.69,-923.38 194.27,-923.29"/>
<polygon fill="none" stroke="black" points="184.14,-923.59 178.19,-927.66 172.14,-923.74 178.09,-919.66 184.14,-923.59"/>
<polygon fill="none" stroke="black" points="194.34,-923.29 200.29,-919.21 206.34,-923.14 200.39,-927.21 194.34,-923.29"/>
</g>
<!-- x2&#45;&gt;n1 -->
<g id="edge35" class="edge">
<title>x2:e&#45;&gt;n1:w</title>
<path fill="none" stroke="black" d="M439.24,-889.12C533,-889.12 390.54,-486.7 464,-452.11"/>
<polygon fill="black" stroke="black" points="464.7,-455.54 473.76,-450.06 463.25,-448.69 464.7,-455.54"/>
</g>
<!-- c7 -->
<g id="node7" class="node">
<title>c7</title>
<polygon fill="none" stroke="black" points="207.24,-800.5 207.24,-851 328.74,-851 328.74,-800.5 207.24,-800.5"/>
<text text-anchor="middle" x="220.49" y="-833.7" font-family="Times,serif" font-size="14.00">A</text>
<polyline fill="none" stroke="black" points="207.24,-825.75 233.74,-825.75"/>
<text text-anchor="middle" x="220.49" y="-808.45" font-family="Times,serif" font-size="14.00">B</text>
<polyline fill="none" stroke="black" points="233.74,-800.5 233.74,-851"/>
<text text-anchor="middle" x="268.74" y="-829.7" font-family="Times,serif" font-size="14.00">$101</text>
<text text-anchor="middle" x="268.74" y="-812.45" font-family="Times,serif" font-size="14.00">$_XOR_</text>
<polyline fill="none" stroke="black" points="303.74,-800.5 303.74,-851"/>
<text text-anchor="middle" x="316.24" y="-821.2" font-family="Times,serif" font-size="14.00">Y</text>
</g>
<!-- x5 -->
<g id="node10" class="node">
<title>x5</title>
<path fill="none" stroke="black" d="M376.74,-763.75C376.74,-763.75 427.24,-763.75 427.24,-763.75 433.24,-763.75 439.24,-769.75 439.24,-775.75 439.24,-775.75 439.24,-787.75 439.24,-787.75 439.24,-793.75 433.24,-799.75 427.24,-799.75 427.24,-799.75 376.74,-799.75 376.74,-799.75 370.74,-799.75 364.74,-793.75 364.74,-787.75 364.74,-787.75 364.74,-775.75 364.74,-775.75 364.74,-769.75 370.74,-763.75 376.74,-763.75"/>
<text text-anchor="middle" x="401.99" y="-777.45" font-family="Times,serif" font-size="14.00">0:0 &#45; 5:5</text>
</g>
<!-- c7&#45;&gt;x5 -->
<g id="edge6" class="edge">
<title>c7:e&#45;&gt;x5:w</title>
<path fill="none" stroke="black" d="M340.46,-820.46C347,-812 346.47,-795.7 352.99,-787.2"/>
<polygon fill="none" stroke="black" points="340.45,-820.46 336.68,-826.61 329.56,-825.5 333.33,-819.35 340.45,-820.46"/>
<polygon fill="none" stroke="black" points="353.04,-787.18 356.8,-781.03 363.92,-782.13 360.17,-788.28 353.04,-787.18"/>
</g>
<!-- x3&#45;&gt;c7 -->
<g id="edge4" class="edge">
<title>x3:e&#45;&gt;c7:w</title>
<path fill="none" stroke="black" d="M183.01,-863.73C188.21,-858.07 190.33,-848.92 195.56,-843.3"/>
<polygon fill="none" stroke="black" points="183.11,-863.69 179.16,-869.72 172.07,-868.4 176.02,-862.36 183.11,-863.69"/>
<polygon fill="none" stroke="black" points="195.35,-843.39 199.33,-837.37 206.41,-838.73 202.44,-844.74 195.35,-843.39"/>
</g>
<!-- x4&#45;&gt;c7 -->
<g id="edge5" class="edge">
<title>x4:e&#45;&gt;c7:w</title>
<path fill="none" stroke="black" d="M183.96,-813.59C187.56,-813.5 190.69,-813.38 194.27,-813.29"/>
<polygon fill="none" stroke="black" points="184.14,-813.59 178.19,-817.66 172.14,-813.74 178.09,-809.66 184.14,-813.59"/>
<polygon fill="none" stroke="black" points="194.34,-813.29 200.29,-809.21 206.34,-813.14 200.39,-817.21 194.34,-813.29"/>
</g>
<!-- x5&#45;&gt;n1 -->
<g id="edge36" class="edge">
<title>x5:e&#45;&gt;n1:w</title>
<path fill="none" stroke="black" d="M439.24,-782.12C509.33,-782.12 413.1,-486.34 464.35,-452.83"/>
<polygon fill="black" stroke="black" points="465.11,-456.25 473.79,-450.16 463.21,-449.51 465.11,-456.25"/>
</g>
<!-- c8 -->
<g id="node11" class="node">
<title>c8</title>
<polygon fill="none" stroke="black" points="207.24,-690.5 207.24,-741 328.74,-741 328.74,-690.5 207.24,-690.5"/>
<text text-anchor="middle" x="220.49" y="-723.7" font-family="Times,serif" font-size="14.00">A</text>
<polyline fill="none" stroke="black" points="207.24,-715.75 233.74,-715.75"/>
<text text-anchor="middle" x="220.49" y="-698.45" font-family="Times,serif" font-size="14.00">B</text>
<polyline fill="none" stroke="black" points="233.74,-690.5 233.74,-741"/>
<text text-anchor="middle" x="268.74" y="-719.7" font-family="Times,serif" font-size="14.00">$102</text>
<text text-anchor="middle" x="268.74" y="-702.45" font-family="Times,serif" font-size="14.00">$_XOR_</text>
<polyline fill="none" stroke="black" points="303.74,-690.5 303.74,-741"/>
<text text-anchor="middle" x="316.24" y="-711.2" font-family="Times,serif" font-size="14.00">Y</text>
</g>
<!-- x8 -->
<g id="node14" class="node">
<title>x8</title>
<path fill="none" stroke="black" d="M376.74,-658.75C376.74,-658.75 427.24,-658.75 427.24,-658.75 433.24,-658.75 439.24,-664.75 439.24,-670.75 439.24,-670.75 439.24,-682.75 439.24,-682.75 439.24,-688.75 433.24,-694.75 427.24,-694.75 427.24,-694.75 376.74,-694.75 376.74,-694.75 370.74,-694.75 364.74,-688.75 364.74,-682.75 364.74,-682.75 364.74,-670.75 364.74,-670.75 364.74,-664.75 370.74,-658.75 376.74,-658.75"/>
<text text-anchor="middle" x="401.99" y="-672.45" font-family="Times,serif" font-size="14.00">0:0 &#45; 4:4</text>
</g>
<!-- c8&#45;&gt;x8 -->
<g id="edge9" class="edge">
<title>c8:e&#45;&gt;x8:w</title>
<path fill="none" stroke="black" d="M340.51,-710.43C346.49,-702.88 347.09,-689.29 353.22,-681.9"/>
<polygon fill="none" stroke="black" points="340.45,-710.46 336.69,-716.61 329.56,-715.5 333.33,-709.35 340.45,-710.46"/>
<polygon fill="none" stroke="black" points="352.96,-682.01 356.81,-675.91 363.92,-677.12 360.07,-683.22 352.96,-682.01"/>
</g>
<!-- x6&#45;&gt;c8 -->
<g id="edge7" class="edge">
<title>x6:e&#45;&gt;c8:w</title>
<path fill="none" stroke="black" d="M183.01,-753.73C188.21,-748.07 190.33,-738.92 195.56,-733.3"/>
<polygon fill="none" stroke="black" points="183.11,-753.69 179.16,-759.72 172.07,-758.4 176.02,-752.36 183.11,-753.69"/>
<polygon fill="none" stroke="black" points="195.35,-733.39 199.33,-727.37 206.41,-728.73 202.44,-734.74 195.35,-733.39"/>
</g>
<!-- x7&#45;&gt;c8 -->
<g id="edge8" class="edge">
<title>x7:e&#45;&gt;c8:w</title>
<path fill="none" stroke="black" d="M183.96,-703.59C187.56,-703.5 190.69,-703.38 194.27,-703.29"/>
<polygon fill="none" stroke="black" points="184.14,-703.59 178.19,-707.66 172.14,-703.74 178.09,-699.66 184.14,-703.59"/>
<polygon fill="none" stroke="black" points="194.34,-703.29 200.29,-699.21 206.34,-703.14 200.39,-707.21 194.34,-703.29"/>
</g>
<!-- x8&#45;&gt;n1 -->
<g id="edge37" class="edge">
<title>x8:e&#45;&gt;n1:w</title>
<path fill="none" stroke="black" d="M439.24,-677.12C537.36,-677.12 386.3,-468.02 463.98,-450.87"/>
<polygon fill="black" stroke="black" points="464.13,-454.37 473.74,-449.9 463.44,-447.4 464.13,-454.37"/>
</g>
<!-- c9 -->
<g id="node15" class="node">
<title>c9</title>
<polygon fill="none" stroke="black" points="207.24,-580.5 207.24,-631 328.74,-631 328.74,-580.5 207.24,-580.5"/>
<text text-anchor="middle" x="220.49" y="-613.7" font-family="Times,serif" font-size="14.00">A</text>
<polyline fill="none" stroke="black" points="207.24,-605.75 233.74,-605.75"/>
<text text-anchor="middle" x="220.49" y="-588.45" font-family="Times,serif" font-size="14.00">B</text>
<polyline fill="none" stroke="black" points="233.74,-580.5 233.74,-631"/>
<text text-anchor="middle" x="268.74" y="-609.7" font-family="Times,serif" font-size="14.00">$103</text>
<text text-anchor="middle" x="268.74" y="-592.45" font-family="Times,serif" font-size="14.00">$_XOR_</text>
<polyline fill="none" stroke="black" points="303.74,-580.5 303.74,-631"/>
<text text-anchor="middle" x="316.24" y="-601.2" font-family="Times,serif" font-size="14.00">Y</text>
</g>
<!-- x11 -->
<g id="node18" class="node">
<title>x11</title>
<path fill="none" stroke="black" d="M376.74,-559.75C376.74,-559.75 427.24,-559.75 427.24,-559.75 433.24,-559.75 439.24,-565.75 439.24,-571.75 439.24,-571.75 439.24,-583.75 439.24,-583.75 439.24,-589.75 433.24,-595.75 427.24,-595.75 427.24,-595.75 376.74,-595.75 376.74,-595.75 370.74,-595.75 364.74,-589.75 364.74,-583.75 364.74,-583.75 364.74,-571.75 364.74,-571.75 364.74,-565.75 370.74,-559.75 376.74,-559.75"/>
<text text-anchor="middle" x="401.99" y="-573.45" font-family="Times,serif" font-size="14.00">0:0 &#45; 3:3</text>
</g>
<!-- c9&#45;&gt;x11 -->
<g id="edge12" class="edge">
<title>c9:e&#45;&gt;x11:w</title>
<path fill="none" stroke="black" d="M340.58,-600.98C345.56,-595.81 347.96,-587.73 352.96,-582.59"/>
<polygon fill="none" stroke="black" points="340.66,-600.94 336.65,-606.93 329.58,-605.53 333.59,-599.54 340.66,-600.94"/>
<polygon fill="none" stroke="black" points="352.81,-582.65 356.84,-576.67 363.91,-578.09 359.88,-584.07 352.81,-582.65"/>
</g>
<!-- x9&#45;&gt;c9 -->
<g id="edge10" class="edge">
<title>x9:e&#45;&gt;c9:w</title>
<path fill="none" stroke="black" d="M183.01,-643.73C188.21,-638.07 190.33,-628.92 195.56,-623.3"/>
<polygon fill="none" stroke="black" points="183.11,-643.69 179.16,-649.72 172.07,-648.4 176.02,-642.36 183.11,-643.69"/>
<polygon fill="none" stroke="black" points="195.35,-623.39 199.33,-617.37 206.41,-618.73 202.44,-624.74 195.35,-623.39"/>
</g>
<!-- x10&#45;&gt;c9 -->
<g id="edge11" class="edge">
<title>x10:e&#45;&gt;c9:w</title>
<path fill="none" stroke="black" d="M183.96,-593.59C187.56,-593.5 190.69,-593.38 194.27,-593.29"/>
<polygon fill="none" stroke="black" points="184.14,-593.59 178.19,-597.66 172.14,-593.74 178.09,-589.66 184.14,-593.59"/>
<polygon fill="none" stroke="black" points="194.34,-593.29 200.29,-589.21 206.34,-593.14 200.39,-597.21 194.34,-593.29"/>
</g>
<!-- x11&#45;&gt;n1 -->
<g id="edge28" class="edge">
<title>x11:e&#45;&gt;n1:w</title>
<path fill="none" stroke="black" d="M439.24,-578.12C494.1,-578.12 427.45,-468.1 464.28,-451.77"/>
<polygon fill="black" stroke="black" points="464.55,-455.27 473.75,-450.02 463.29,-448.39 464.55,-455.27"/>
</g>
<!-- c10 -->
<g id="node19" class="node">
<title>c10</title>
<polygon fill="none" stroke="black" points="207.24,-470.5 207.24,-521 328.74,-521 328.74,-470.5 207.24,-470.5"/>
<text text-anchor="middle" x="220.49" y="-503.7" font-family="Times,serif" font-size="14.00">A</text>
<polyline fill="none" stroke="black" points="207.24,-495.75 233.74,-495.75"/>
<text text-anchor="middle" x="220.49" y="-478.45" font-family="Times,serif" font-size="14.00">B</text>
<polyline fill="none" stroke="black" points="233.74,-470.5 233.74,-521"/>
<text text-anchor="middle" x="268.74" y="-499.7" font-family="Times,serif" font-size="14.00">$104</text>
<text text-anchor="middle" x="268.74" y="-482.45" font-family="Times,serif" font-size="14.00">$_XOR_</text>
<polyline fill="none" stroke="black" points="303.74,-470.5 303.74,-521"/>
<text text-anchor="middle" x="316.24" y="-491.2" font-family="Times,serif" font-size="14.00">Y</text>
</g>
<!-- x14 -->
<g id="node22" class="node">
<title>x14</title>
<path fill="none" stroke="black" d="M376.74,-471.75C376.74,-471.75 427.24,-471.75 427.24,-471.75 433.24,-471.75 439.24,-477.75 439.24,-483.75 439.24,-483.75 439.24,-495.75 439.24,-495.75 439.24,-501.75 433.24,-507.75 427.24,-507.75 427.24,-507.75 376.74,-507.75 376.74,-507.75 370.74,-507.75 364.74,-501.75 364.74,-495.75 364.74,-495.75 364.74,-483.75 364.74,-483.75 364.74,-477.75 370.74,-471.75 376.74,-471.75"/>
<text text-anchor="middle" x="401.99" y="-485.45" font-family="Times,serif" font-size="14.00">0:0 &#45; 2:2</text>
</g>
<!-- c10&#45;&gt;x14 -->
<g id="edge15" class="edge">
<title>c10:e&#45;&gt;x14:w</title>
<path fill="none" stroke="black" d="M341.52,-494.33C345.2,-493.39 348.36,-492.21 352.05,-491.27"/>
<polygon fill="none" stroke="black" points="341.55,-494.33 336.07,-499.02 329.64,-495.77 335.11,-491.07 341.55,-494.33"/>
<polygon fill="none" stroke="black" points="351.93,-491.29 357.41,-486.6 363.85,-489.86 358.37,-494.54 351.93,-491.29"/>
</g>
<!-- x12&#45;&gt;c10 -->
<g id="edge13" class="edge">
<title>x12:e&#45;&gt;c10:w</title>
<path fill="none" stroke="black" d="M183.01,-533.73C188.21,-528.07 190.33,-518.92 195.56,-513.3"/>
<polygon fill="none" stroke="black" points="183.11,-533.69 179.16,-539.72 172.07,-538.4 176.02,-532.36 183.11,-533.69"/>
<polygon fill="none" stroke="black" points="195.35,-513.39 199.33,-507.37 206.41,-508.73 202.44,-514.74 195.35,-513.39"/>
</g>
<!-- x13&#45;&gt;c10 -->
<g id="edge14" class="edge">
<title>x13:e&#45;&gt;c10:w</title>
<path fill="none" stroke="black" d="M183.96,-483.59C187.56,-483.5 190.69,-483.38 194.27,-483.29"/>
<polygon fill="none" stroke="black" points="184.14,-483.59 178.19,-487.66 172.14,-483.74 178.09,-479.66 184.14,-483.59"/>
<polygon fill="none" stroke="black" points="194.34,-483.29 200.29,-479.21 206.34,-483.14 200.39,-487.21 194.34,-483.29"/>
</g>
<!-- x14&#45;&gt;n1 -->
<g id="edge29" class="edge">
<title>x14:e&#45;&gt;n1:w</title>
<path fill="none" stroke="black" d="M439.24,-490.12C458.59,-490.12 454.54,-463.98 464.75,-453.77"/>
<polygon fill="black" stroke="black" points="465.74,-457.14 473.83,-450.29 463.24,-450.6 465.74,-457.14"/>
</g>
<!-- c11 -->
<g id="node23" class="node">
<title>c11</title>
<polygon fill="none" stroke="black" points="207.24,-391.5 207.24,-442 328.74,-442 328.74,-391.5 207.24,-391.5"/>
<text text-anchor="middle" x="220.49" y="-424.7" font-family="Times,serif" font-size="14.00">A</text>
<polyline fill="none" stroke="black" points="207.24,-416.75 233.74,-416.75"/>
<text text-anchor="middle" x="220.49" y="-399.45" font-family="Times,serif" font-size="14.00">B</text>
<polyline fill="none" stroke="black" points="233.74,-391.5 233.74,-442"/>
<text text-anchor="middle" x="268.74" y="-420.7" font-family="Times,serif" font-size="14.00">$105</text>
<text text-anchor="middle" x="268.74" y="-403.45" font-family="Times,serif" font-size="14.00">$_XOR_</text>
<polyline fill="none" stroke="black" points="303.74,-391.5 303.74,-442"/>
<text text-anchor="middle" x="316.24" y="-412.2" font-family="Times,serif" font-size="14.00">Y</text>
</g>
<!-- x17 -->
<g id="node26" class="node">
<title>x17</title>
<path fill="none" stroke="black" d="M376.74,-404.75C376.74,-404.75 427.24,-404.75 427.24,-404.75 433.24,-404.75 439.24,-410.75 439.24,-416.75 439.24,-416.75 439.24,-428.75 439.24,-428.75 439.24,-434.75 433.24,-440.75 427.24,-440.75 427.24,-440.75 376.74,-440.75 376.74,-440.75 370.74,-440.75 364.74,-434.75 364.74,-428.75 364.74,-428.75 364.74,-416.75 364.74,-416.75 364.74,-410.75 370.74,-404.75 376.74,-404.75"/>
<text text-anchor="middle" x="401.99" y="-418.45" font-family="Times,serif" font-size="14.00">0:0 &#45; 1:1</text>
</g>
<!-- c11&#45;&gt;x17 -->
<g id="edge18" class="edge">
<title>c11:e&#45;&gt;x17:w</title>
<path fill="none" stroke="black" d="M341.51,-418.36C345.2,-419.25 348.36,-420.39 352.06,-421.29"/>
<polygon fill="none" stroke="black" points="341.56,-418.36 335.14,-421.64 329.64,-416.98 336.06,-413.7 341.56,-418.36"/>
<polygon fill="none" stroke="black" points="351.93,-421.27 358.34,-417.99 363.85,-422.65 357.43,-425.93 351.93,-421.27"/>
</g>
<!-- x15&#45;&gt;c11 -->
<g id="edge16" class="edge">
<title>x15:e&#45;&gt;c11:w</title>
<path fill="none" stroke="black" d="M183.96,-428.91C187.56,-429 190.69,-429.12 194.27,-429.21"/>
<polygon fill="none" stroke="black" points="184.14,-428.91 178.09,-432.84 172.14,-428.76 178.19,-424.84 184.14,-428.91"/>
<polygon fill="none" stroke="black" points="194.34,-429.21 200.39,-425.29 206.34,-429.36 200.29,-433.29 194.34,-429.21"/>
</g>
<!-- x16&#45;&gt;c11 -->
<g id="edge17" class="edge">
<title>x16:e&#45;&gt;c11:w</title>
<path fill="none" stroke="black" d="M183.01,-378.77C188.21,-384.43 190.33,-393.58 195.56,-399.2"/>
<polygon fill="none" stroke="black" points="183.11,-378.81 176.02,-380.14 172.07,-374.1 179.16,-372.78 183.11,-378.81"/>
<polygon fill="none" stroke="black" points="195.35,-399.11 202.44,-397.76 206.41,-403.77 199.33,-405.13 195.35,-399.11"/>
</g>
<!-- x17&#45;&gt;n1 -->
<g id="edge30" class="edge">
<title>x17:e&#45;&gt;n1:w</title>
<path fill="none" stroke="black" d="M439.24,-423.12C454.48,-423.12 455.82,-438.73 464.55,-446.05"/>
<polygon fill="black" stroke="black" points="463.22,-449.29 473.81,-449.25 465.51,-442.68 463.22,-449.29"/>
</g>
<!-- c12 -->
<g id="node27" class="node">
<title>c12</title>
<polygon fill="none" stroke="black" points="207.24,-281.5 207.24,-332 328.74,-332 328.74,-281.5 207.24,-281.5"/>
<text text-anchor="middle" x="220.49" y="-314.7" font-family="Times,serif" font-size="14.00">A</text>
<polyline fill="none" stroke="black" points="207.24,-306.75 233.74,-306.75"/>
<text text-anchor="middle" x="220.49" y="-289.45" font-family="Times,serif" font-size="14.00">B</text>
<polyline fill="none" stroke="black" points="233.74,-281.5 233.74,-332"/>
<text text-anchor="middle" x="268.74" y="-310.7" font-family="Times,serif" font-size="14.00">$97</text>
<text text-anchor="middle" x="268.74" y="-293.45" font-family="Times,serif" font-size="14.00">$_XOR_</text>
<polyline fill="none" stroke="black" points="303.74,-281.5 303.74,-332"/>
<text text-anchor="middle" x="316.24" y="-302.2" font-family="Times,serif" font-size="14.00">Y</text>
</g>
<!-- x20 -->
<g id="node30" class="node">
<title>x20</title>
<path fill="none" stroke="black" d="M376.74,-318.75C376.74,-318.75 427.24,-318.75 427.24,-318.75 433.24,-318.75 439.24,-324.75 439.24,-330.75 439.24,-330.75 439.24,-342.75 439.24,-342.75 439.24,-348.75 433.24,-354.75 427.24,-354.75 427.24,-354.75 376.74,-354.75 376.74,-354.75 370.74,-354.75 364.74,-348.75 364.74,-342.75 364.74,-342.75 364.74,-330.75 364.74,-330.75 364.74,-324.75 370.74,-318.75 376.74,-318.75"/>
<text text-anchor="middle" x="401.99" y="-332.45" font-family="Times,serif" font-size="14.00">0:0 &#45; 9:9</text>
</g>
<!-- c12&#45;&gt;x20 -->
<g id="edge21" class="edge">
<title>c12:e&#45;&gt;x20:w</title>
<path fill="none" stroke="black" d="M340.47,-311.81C345.68,-317.38 347.86,-326.38 353.1,-331.91"/>
<polygon fill="none" stroke="black" points="340.63,-311.88 333.55,-313.24 329.57,-307.22 336.65,-305.86 340.63,-311.88"/>
<polygon fill="none" stroke="black" points="352.83,-331.8 359.91,-330.41 363.91,-336.4 356.83,-337.79 352.83,-331.8"/>
</g>
<!-- x18&#45;&gt;c12 -->
<g id="edge19" class="edge">
<title>x18:e&#45;&gt;c12:w</title>
<path fill="none" stroke="black" d="M183.96,-318.91C187.56,-319 190.69,-319.12 194.27,-319.21"/>
<polygon fill="none" stroke="black" points="184.14,-318.91 178.09,-322.84 172.14,-318.76 178.19,-314.84 184.14,-318.91"/>
<polygon fill="none" stroke="black" points="194.34,-319.21 200.39,-315.29 206.34,-319.36 200.29,-323.29 194.34,-319.21"/>
</g>
<!-- x19&#45;&gt;c12 -->
<g id="edge20" class="edge">
<title>x19:e&#45;&gt;c12:w</title>
<path fill="none" stroke="black" d="M183.01,-268.77C188.21,-274.43 190.33,-283.58 195.56,-289.2"/>
<polygon fill="none" stroke="black" points="183.11,-268.81 176.02,-270.14 172.07,-264.1 179.16,-262.78 183.11,-268.81"/>
<polygon fill="none" stroke="black" points="195.35,-289.11 202.44,-287.76 206.41,-293.77 199.33,-295.13 195.35,-289.11"/>
</g>
<!-- x20&#45;&gt;n1 -->
<g id="edge31" class="edge">
<title>x20:e&#45;&gt;n1:w</title>
<path fill="none" stroke="black" d="M439.24,-337.12C487.28,-337.12 433.67,-431.22 464.23,-447.4"/>
<polygon fill="black" stroke="black" points="463.25,-450.77 473.76,-449.43 464.71,-443.92 463.25,-450.77"/>
</g>
<!-- c13 -->
<g id="node31" class="node">
<title>c13</title>
<polygon fill="none" stroke="black" points="207.24,-171.5 207.24,-222 328.74,-222 328.74,-171.5 207.24,-171.5"/>
<text text-anchor="middle" x="220.49" y="-204.7" font-family="Times,serif" font-size="14.00">A</text>
<polyline fill="none" stroke="black" points="207.24,-196.75 233.74,-196.75"/>
<text text-anchor="middle" x="220.49" y="-179.45" font-family="Times,serif" font-size="14.00">B</text>
<polyline fill="none" stroke="black" points="233.74,-171.5 233.74,-222"/>
<text text-anchor="middle" x="268.74" y="-200.7" font-family="Times,serif" font-size="14.00">$98</text>
<text text-anchor="middle" x="268.74" y="-183.45" font-family="Times,serif" font-size="14.00">$_XOR_</text>
<polyline fill="none" stroke="black" points="303.74,-171.5 303.74,-222"/>
<text text-anchor="middle" x="316.24" y="-192.2" font-family="Times,serif" font-size="14.00">Y</text>
</g>
<!-- x23 -->
<g id="node34" class="node">
<title>x23</title>
<path fill="none" stroke="black" d="M376.74,-220.75C376.74,-220.75 427.24,-220.75 427.24,-220.75 433.24,-220.75 439.24,-226.75 439.24,-232.75 439.24,-232.75 439.24,-244.75 439.24,-244.75 439.24,-250.75 433.24,-256.75 427.24,-256.75 427.24,-256.75 376.74,-256.75 376.74,-256.75 370.74,-256.75 364.74,-250.75 364.74,-244.75 364.74,-244.75 364.74,-232.75 364.74,-232.75 364.74,-226.75 370.74,-220.75 376.74,-220.75"/>
<text text-anchor="middle" x="401.99" y="-234.45" font-family="Times,serif" font-size="14.00">0:0 &#45; 8:8</text>
</g>
<!-- c13&#45;&gt;x23 -->
<g id="edge24" class="edge">
<title>c13:e&#45;&gt;x23:w</title>
<path fill="none" stroke="black" d="M340.5,-202.35C346.75,-210.42 346.77,-225.41 353.08,-233.41"/>
<polygon fill="none" stroke="black" points="340.44,-202.32 333.31,-203.41 329.56,-197.26 336.69,-196.16 340.44,-202.32"/>
<polygon fill="none" stroke="black" points="353.01,-233.38 360.13,-232.24 363.92,-238.37 356.8,-239.51 353.01,-233.38"/>
</g>
<!-- x21&#45;&gt;c13 -->
<g id="edge22" class="edge">
<title>x21:e&#45;&gt;c13:w</title>
<path fill="none" stroke="black" d="M183.96,-208.91C187.56,-209 190.69,-209.12 194.27,-209.21"/>
<polygon fill="none" stroke="black" points="184.14,-208.91 178.09,-212.84 172.14,-208.76 178.19,-204.84 184.14,-208.91"/>
<polygon fill="none" stroke="black" points="194.34,-209.21 200.39,-205.29 206.34,-209.36 200.29,-213.29 194.34,-209.21"/>
</g>
<!-- x22&#45;&gt;c13 -->
<g id="edge23" class="edge">
<title>x22:e&#45;&gt;c13:w</title>
<path fill="none" stroke="black" d="M183.01,-158.77C188.21,-164.43 190.33,-173.58 195.56,-179.2"/>
<polygon fill="none" stroke="black" points="183.11,-158.81 176.02,-160.14 172.07,-154.1 179.16,-152.78 183.11,-158.81"/>
<polygon fill="none" stroke="black" points="195.35,-179.11 202.44,-177.76 206.41,-183.77 199.33,-185.13 195.35,-179.11"/>
</g>
<!-- x23&#45;&gt;n1 -->
<g id="edge32" class="edge">
<title>x23:e&#45;&gt;n1:w</title>
<path fill="none" stroke="black" d="M439.24,-239.12C529.94,-239.12 393.6,-431.25 463.91,-448.51"/>
<polygon fill="black" stroke="black" points="463.42,-451.98 473.74,-449.59 464.18,-445.02 463.42,-451.98"/>
</g>
<!-- c14 -->
<g id="node35" class="node">
<title>c14</title>
<polygon fill="none" stroke="black" points="207.24,-81.5 207.24,-132 328.74,-132 328.74,-81.5 207.24,-81.5"/>
<text text-anchor="middle" x="220.49" y="-114.7" font-family="Times,serif" font-size="14.00">A</text>
<polyline fill="none" stroke="black" points="207.24,-106.75 233.74,-106.75"/>
<text text-anchor="middle" x="220.49" y="-89.45" font-family="Times,serif" font-size="14.00">B</text>
<polyline fill="none" stroke="black" points="233.74,-81.5 233.74,-132"/>
<text text-anchor="middle" x="268.74" y="-110.7" font-family="Times,serif" font-size="14.00">$99</text>
<text text-anchor="middle" x="268.74" y="-93.45" font-family="Times,serif" font-size="14.00">$_XOR_</text>
<polyline fill="none" stroke="black" points="303.74,-81.5 303.74,-132"/>
<text text-anchor="middle" x="316.24" y="-102.2" font-family="Times,serif" font-size="14.00">Y</text>
</g>
<!-- x26 -->
<g id="node38" class="node">
<title>x26</title>
<path fill="none" stroke="black" d="M376.74,-126.75C376.74,-126.75 427.24,-126.75 427.24,-126.75 433.24,-126.75 439.24,-132.75 439.24,-138.75 439.24,-138.75 439.24,-150.75 439.24,-150.75 439.24,-156.75 433.24,-162.75 427.24,-162.75 427.24,-162.75 376.74,-162.75 376.74,-162.75 370.74,-162.75 364.74,-156.75 364.74,-150.75 364.74,-150.75 364.74,-138.75 364.74,-138.75 364.74,-132.75 370.74,-126.75 376.74,-126.75"/>
<text text-anchor="middle" x="401.99" y="-140.45" font-family="Times,serif" font-size="14.00">0:0 &#45; 7:7</text>
</g>
<!-- c14&#45;&gt;x26 -->
<g id="edge27" class="edge">
<title>c14:e&#45;&gt;x26:w</title>
<path fill="none" stroke="black" d="M340.39,-112.14C346.25,-119.3 347.16,-132.03 352.93,-139.28"/>
<polygon fill="none" stroke="black" points="340.5,-112.19 333.38,-113.36 329.56,-107.25 336.68,-106.07 340.5,-112.19"/>
<polygon fill="none" stroke="black" points="353.03,-139.33 360.16,-138.22 363.92,-144.37 356.8,-145.48 353.03,-139.33"/>
</g>
<!-- x24&#45;&gt;c14 -->
<g id="edge25" class="edge">
<title>x24:e&#45;&gt;c14:w</title>
<path fill="none" stroke="black" d="M183.08,-102.73C187.61,-106.29 190.61,-111.49 195.07,-115.13"/>
<polygon fill="none" stroke="black" points="183.47,-102.86 176.51,-104.74 172.1,-99.04 179.06,-97.16 183.47,-102.86"/>
<polygon fill="none" stroke="black" points="195.06,-115.12 202.04,-113.32 206.39,-119.08 199.41,-120.88 195.06,-115.12"/>
</g>
<!-- x25&#45;&gt;c14 -->
<g id="edge26" class="edge">
<title>x25:e&#45;&gt;c14:w</title>
<path fill="none" stroke="black" d="M183.03,-49.14C190.47,-58.89 188.03,-79.32 195.6,-88.92"/>
<polygon fill="none" stroke="black" points="182.97,-49.12 175.85,-50.26 172.06,-44.12 179.18,-42.98 182.97,-49.12"/>
<polygon fill="none" stroke="black" points="195.46,-88.86 202.57,-87.66 206.42,-93.76 199.31,-94.96 195.46,-88.86"/>
</g>
<!-- x26&#45;&gt;n1 -->
<g id="edge33" class="edge">
<title>x26:e&#45;&gt;n1:w</title>
<path fill="none" stroke="black" d="M439.24,-145.12C503.15,-145.12 418.96,-412.86 464.35,-446.33"/>
<polygon fill="black" stroke="black" points="463.21,-449.64 473.8,-449.3 465.31,-442.96 463.21,-449.64"/>
</g>
<!-- v27 -->
<g id="node39" class="node">
<title>v27</title>
<ellipse fill="none" stroke="black" cx="267.99" cy="-44.75" rx="27" ry="18"/>
<text text-anchor="middle" x="267.99" y="-40.08" font-family="Times,serif" font-size="14.00">1&#39;0</text>
</g>
<!-- x28 -->
<g id="node40" class="node">
<title>x28</title>
<path fill="none" stroke="black" d="M376.74,-68.75C376.74,-68.75 427.24,-68.75 427.24,-68.75 433.24,-68.75 439.24,-74.75 439.24,-80.75 439.24,-80.75 439.24,-92.75 439.24,-92.75 439.24,-98.75 433.24,-104.75 427.24,-104.75 427.24,-104.75 376.74,-104.75 376.74,-104.75 370.74,-104.75 364.74,-98.75 364.74,-92.75 364.74,-92.75 364.74,-80.75 364.74,-80.75 364.74,-74.75 370.74,-68.75 376.74,-68.75"/>
<text text-anchor="middle" x="401.99" y="-82.45" font-family="Times,serif" font-size="14.00">0:0 &#45; 0:0</text>
</g>
<!-- v27&#45;&gt;x28 -->
<g id="edge56" class="edge">
<title>v27:e&#45;&gt;x28:w</title>
<path fill="none" stroke="black" d="M296.25,-44.75C327.77,-44.75 329.19,-77.48 353.66,-85.15"/>
<polygon fill="black" stroke="black" points="352.85,-88.57 363.24,-86.53 353.84,-81.65 352.85,-88.57"/>
</g>
<!-- x28&#45;&gt;n1 -->
<g id="edge34" class="edge">
<title>x28:e&#45;&gt;n1:w</title>
<path fill="none" stroke="black" d="M439.24,-87.12C516.11,-87.12 406.52,-413.86 464.45,-447.04"/>
<polygon fill="black" stroke="black" points="463.22,-450.34 473.77,-449.38 464.93,-443.55 463.22,-450.34"/>
</g>
</g>
</svg>
